%TF.GenerationSoftware,KiCad,Pcbnew,8.0.8*%
%TF.CreationDate,2025-03-05T15:18:01-05:00*%
%TF.ProjectId,PacmanProject,5061636d-616e-4507-926f-6a6563742e6b,rev?*%
%TF.SameCoordinates,Original*%
%TF.FileFunction,Copper,L2,Bot*%
%TF.FilePolarity,Positive*%
%FSLAX46Y46*%
G04 Gerber Fmt 4.6, Leading zero omitted, Abs format (unit mm)*
G04 Created by KiCad (PCBNEW 8.0.8) date 2025-03-05 15:18:01*
%MOMM*%
%LPD*%
G01*
G04 APERTURE LIST*
G04 Aperture macros list*
%AMRoundRect*
0 Rectangle with rounded corners*
0 $1 Rounding radius*
0 $2 $3 $4 $5 $6 $7 $8 $9 X,Y pos of 4 corners*
0 Add a 4 corners polygon primitive as box body*
4,1,4,$2,$3,$4,$5,$6,$7,$8,$9,$2,$3,0*
0 Add four circle primitives for the rounded corners*
1,1,$1+$1,$2,$3*
1,1,$1+$1,$4,$5*
1,1,$1+$1,$6,$7*
1,1,$1+$1,$8,$9*
0 Add four rect primitives between the rounded corners*
20,1,$1+$1,$2,$3,$4,$5,0*
20,1,$1+$1,$4,$5,$6,$7,0*
20,1,$1+$1,$6,$7,$8,$9,0*
20,1,$1+$1,$8,$9,$2,$3,0*%
G04 Aperture macros list end*
%TA.AperFunction,ComponentPad*%
%ADD10O,3.000000X2.500000*%
%TD*%
%TA.AperFunction,ComponentPad*%
%ADD11C,1.524000*%
%TD*%
%TA.AperFunction,ComponentPad*%
%ADD12R,1.500000X1.500000*%
%TD*%
%TA.AperFunction,ComponentPad*%
%ADD13C,1.600000*%
%TD*%
%TA.AperFunction,ComponentPad*%
%ADD14RoundRect,0.250000X0.625000X-0.350000X0.625000X0.350000X-0.625000X0.350000X-0.625000X-0.350000X0*%
%TD*%
%TA.AperFunction,ComponentPad*%
%ADD15O,1.750000X1.200000*%
%TD*%
%TA.AperFunction,ComponentPad*%
%ADD16O,1.600000X1.600000*%
%TD*%
%TA.AperFunction,ComponentPad*%
%ADD17O,1.700000X1.700000*%
%TD*%
%TA.AperFunction,ComponentPad*%
%ADD18R,1.700000X1.700000*%
%TD*%
%TA.AperFunction,Conductor*%
%ADD19C,0.200000*%
%TD*%
%TA.AperFunction,Conductor*%
%ADD20C,0.400000*%
%TD*%
G04 APERTURE END LIST*
D10*
%TO.P,SW3,1,1*%
%TO.N,+3.3V*%
X161500000Y-70000000D03*
X174000000Y-70000000D03*
%TO.P,SW3,2,2*%
%TO.N,/C*%
X161500000Y-75000000D03*
X174000000Y-75000000D03*
%TD*%
D11*
%TO.P,SSD1,1,SDA*%
%TO.N,/SDA*%
X218110000Y-63760000D03*
%TO.P,SSD1,2,SCL*%
%TO.N,/SCL*%
X220650000Y-63760000D03*
%TO.P,SSD1,3,A0*%
%TO.N,unconnected-(SSD1-A0-Pad3)*%
X223190000Y-63760000D03*
%TO.P,SSD1,4,RST*%
%TO.N,unconnected-(SSD1-RST-Pad4)*%
X225730000Y-63760000D03*
%TO.P,SSD1,5,CS*%
%TO.N,unconnected-(SSD1-CS-Pad5)*%
X228270000Y-63760000D03*
%TO.P,SSD1,6,3Vo*%
%TO.N,unconnected-(SSD1-3Vo-Pad6)*%
X230810000Y-63760000D03*
%TO.P,SSD1,7,+3.3V*%
%TO.N,+3.3V*%
X233350000Y-63760000D03*
%TO.P,SSD1,8,GND*%
%TO.N,GND*%
X235890000Y-63760000D03*
%TD*%
D12*
%TO.P,SW5,1,B*%
%TO.N,Net-(J1-Pin_2)*%
X262000000Y-131000000D03*
D13*
%TO.P,SW5,2,C*%
%TO.N,GND*%
X262000000Y-128460000D03*
%TO.P,SW5,3,A*%
%TO.N,+3.7V*%
X262000000Y-133540000D03*
%TD*%
D14*
%TO.P,J1,1,Pin_1*%
%TO.N,GND*%
X260550000Y-117000000D03*
D15*
%TO.P,J1,2,Pin_2*%
%TO.N,Net-(J1-Pin_2)*%
X260550000Y-115000000D03*
%TD*%
D10*
%TO.P,SW1,1,1*%
%TO.N,+3.3V*%
X178000000Y-83500000D03*
X190500000Y-83500000D03*
%TO.P,SW1,2,2*%
%TO.N,/A*%
X178000000Y-88500000D03*
X190500000Y-88500000D03*
%TD*%
D13*
%TO.P,R3,1*%
%TO.N,/C*%
X185000000Y-73810000D03*
D16*
%TO.P,R3,2*%
%TO.N,GND*%
X185000000Y-61110000D03*
%TD*%
D10*
%TO.P,SW4,1,1*%
%TO.N,+3.3V*%
X144750000Y-83500000D03*
X157250000Y-83500000D03*
%TO.P,SW4,2,2*%
%TO.N,/D*%
X144750000Y-88500000D03*
X157250000Y-88500000D03*
%TD*%
D13*
%TO.P,R4,1*%
%TO.N,/D*%
X144650000Y-76000000D03*
D16*
%TO.P,R4,2*%
%TO.N,GND*%
X157350000Y-76000000D03*
%TD*%
D17*
%TO.P,U1,1,GPIO0*%
%TO.N,unconnected-(U1-GPIO0-Pad1)*%
X244130000Y-117110000D03*
%TO.P,U1,2,GPIO1*%
%TO.N,unconnected-(U1-GPIO1-Pad2)_1*%
X241590000Y-117110000D03*
D18*
%TO.P,U1,3,GND*%
%TO.N,unconnected-(U1-GND-Pad3)_1*%
X239050000Y-117110000D03*
D17*
%TO.P,U1,4,GPIO2*%
%TO.N,/SDA*%
X236510000Y-117110000D03*
%TO.P,U1,5,GPIO3*%
%TO.N,/SCL*%
X233970000Y-117110000D03*
%TO.P,U1,6,GPIO4*%
%TO.N,unconnected-(U1-GPIO4-Pad6)_1*%
X231430000Y-117110000D03*
%TO.P,U1,7,GPIO5*%
%TO.N,unconnected-(U1-GPIO5-Pad7)_1*%
X228890000Y-117110000D03*
D18*
%TO.P,U1,8,GND*%
%TO.N,unconnected-(U1-GND-Pad8)*%
X226350000Y-117110000D03*
D17*
%TO.P,U1,9,GPIO6*%
%TO.N,unconnected-(U1-GPIO6-Pad9)*%
X223810000Y-117110000D03*
%TO.P,U1,10,GPIO7*%
%TO.N,unconnected-(U1-GPIO7-Pad10)_1*%
X221270000Y-117110000D03*
%TO.P,U1,11,GPIO8*%
%TO.N,/A*%
X218730000Y-117110000D03*
%TO.P,U1,12,GPIO9*%
%TO.N,/B*%
X216190000Y-117110000D03*
D18*
%TO.P,U1,13,GND*%
%TO.N,unconnected-(U1-GND-Pad13)_1*%
X213650000Y-117110000D03*
D17*
%TO.P,U1,14,GPIO10*%
%TO.N,unconnected-(U1-GPIO10-Pad14)_1*%
X211110000Y-117110000D03*
%TO.P,U1,15,GPIO11*%
%TO.N,/C*%
X208570000Y-117110000D03*
%TO.P,U1,16,GPIO12*%
%TO.N,/D*%
X206030000Y-117110000D03*
%TO.P,U1,17,GPIO13*%
%TO.N,unconnected-(U1-GPIO13-Pad17)_1*%
X203490000Y-117110000D03*
D18*
%TO.P,U1,18,GND*%
%TO.N,GND*%
X200950000Y-117110000D03*
D17*
%TO.P,U1,19,GPIO14*%
%TO.N,unconnected-(U1-GPIO14-Pad19)*%
X198410000Y-117110000D03*
%TO.P,U1,20,GPIO15*%
%TO.N,unconnected-(U1-GPIO15-Pad20)*%
X195870000Y-117110000D03*
%TO.P,U1,21,GPIO16*%
%TO.N,unconnected-(U1-GPIO16-Pad21)*%
X195870000Y-134890000D03*
%TO.P,U1,22,GPIO17*%
%TO.N,unconnected-(U1-GPIO17-Pad22)*%
X198410000Y-134890000D03*
D18*
%TO.P,U1,23,GND*%
%TO.N,unconnected-(U1-GND-Pad23)*%
X200950000Y-134890000D03*
D17*
%TO.P,U1,24,GPIO18*%
%TO.N,unconnected-(U1-GPIO18-Pad24)*%
X203490000Y-134890000D03*
%TO.P,U1,25,GPIO19*%
%TO.N,unconnected-(U1-GPIO19-Pad25)*%
X206030000Y-134890000D03*
%TO.P,U1,26,GPIO20*%
%TO.N,unconnected-(U1-GPIO20-Pad26)_1*%
X208570000Y-134890000D03*
%TO.P,U1,27,GPIO21*%
%TO.N,unconnected-(U1-GPIO21-Pad27)_1*%
X211110000Y-134890000D03*
D18*
%TO.P,U1,28,GND*%
%TO.N,unconnected-(U1-GND-Pad28)*%
X213650000Y-134890000D03*
D17*
%TO.P,U1,29,GPIO22*%
%TO.N,unconnected-(U1-GPIO22-Pad29)*%
X216190000Y-134890000D03*
%TO.P,U1,30,RUN*%
%TO.N,unconnected-(U1-RUN-Pad30)_1*%
X218730000Y-134890000D03*
%TO.P,U1,31,GPIO26_ADC0*%
%TO.N,/VRY*%
X221270000Y-134890000D03*
%TO.P,U1,32,GPIO27_ADC1*%
%TO.N,/VRX*%
X223810000Y-134890000D03*
D18*
%TO.P,U1,33,AGND*%
%TO.N,unconnected-(U1-AGND-Pad33)_1*%
X226350000Y-134890000D03*
D17*
%TO.P,U1,34,GPIO28_ADC2*%
%TO.N,unconnected-(U1-GPIO28_ADC2-Pad34)_1*%
X228890000Y-134890000D03*
%TO.P,U1,35,ADC_VREF*%
%TO.N,unconnected-(U1-ADC_VREF-Pad35)*%
X231430000Y-134890000D03*
%TO.P,U1,36,3V3*%
%TO.N,+3.3V*%
X233970000Y-134890000D03*
%TO.P,U1,37,3V3_EN*%
%TO.N,unconnected-(U1-3V3_EN-Pad37)*%
X236510000Y-134890000D03*
D18*
%TO.P,U1,38,GND*%
%TO.N,GND*%
X239050000Y-134890000D03*
D17*
%TO.P,U1,39,VSYS*%
%TO.N,+3.7V*%
X241590000Y-134890000D03*
%TO.P,U1,40,VBUS*%
%TO.N,unconnected-(U1-VBUS-Pad40)*%
X244130000Y-134890000D03*
%TO.P,U1,41,SWCLK*%
%TO.N,unconnected-(U1-SWCLK-Pad41)*%
X196100000Y-123460000D03*
D18*
%TO.P,U1,42,GND*%
%TO.N,unconnected-(U1-GND-Pad42)*%
X196100000Y-126000000D03*
D17*
%TO.P,U1,43,SWDIO*%
%TO.N,unconnected-(U1-SWDIO-Pad43)*%
X196100000Y-128540000D03*
%TD*%
D13*
%TO.P,R2,1*%
%TO.N,/A*%
X197000000Y-84380000D03*
D16*
%TO.P,R2,2*%
%TO.N,GND*%
X197000000Y-97080000D03*
%TD*%
D10*
%TO.P,SW2,1,1*%
%TO.N,+3.3V*%
X161750000Y-96500000D03*
X174250000Y-96500000D03*
%TO.P,SW2,2,2*%
%TO.N,/B*%
X161750000Y-101500000D03*
X174250000Y-101500000D03*
%TD*%
D13*
%TO.P,C2,1*%
%TO.N,/C*%
X180000000Y-73000000D03*
%TO.P,C2,2*%
%TO.N,GND*%
X180000000Y-68000000D03*
%TD*%
D11*
%TO.P,ST1,1,VRY*%
%TO.N,/VRY*%
X265000000Y-83920000D03*
%TO.P,ST1,2,VRX*%
%TO.N,/VRX*%
X265000000Y-86460000D03*
%TO.P,ST1,3,SW*%
%TO.N,unconnected-(ST1-SW-Pad3)*%
X265000000Y-89000000D03*
%TO.P,ST1,4,V*%
%TO.N,+3.3V*%
X265000000Y-91540000D03*
%TO.P,ST1,5,G*%
%TO.N,GND*%
X265000000Y-94080000D03*
%TD*%
D13*
%TO.P,C1,1*%
%TO.N,/A*%
X203000000Y-85500000D03*
%TO.P,C1,2*%
%TO.N,GND*%
X203000000Y-90500000D03*
%TD*%
%TO.P,C4,1*%
%TO.N,/D*%
X147500000Y-71000000D03*
%TO.P,C4,2*%
%TO.N,GND*%
X152500000Y-71000000D03*
%TD*%
%TO.P,C3,1*%
%TO.N,/B*%
X165500000Y-117000000D03*
%TO.P,C3,2*%
%TO.N,GND*%
X170500000Y-117000000D03*
%TD*%
%TO.P,R1,1*%
%TO.N,/B*%
X164190000Y-111000000D03*
D16*
%TO.P,R1,2*%
%TO.N,GND*%
X176890000Y-111000000D03*
%TD*%
D19*
%TO.N,/D*%
X155500000Y-88500000D02*
X157250000Y-88500000D01*
X151000000Y-84000000D02*
X155500000Y-88500000D01*
X151000000Y-79692031D02*
X151000000Y-84000000D01*
X147500000Y-76192031D02*
X151000000Y-79692031D01*
X147500000Y-71000000D02*
X147500000Y-76192031D01*
D20*
%TO.N,+3.3V*%
X265000000Y-91540000D02*
X261130000Y-91540000D01*
X261130000Y-91540000D02*
X233350000Y-63760000D01*
X249000000Y-106000000D02*
X263460000Y-91540000D01*
X233970000Y-133030000D02*
X235000000Y-132000000D01*
X233970000Y-134890000D02*
X233970000Y-133030000D01*
X235000000Y-132000000D02*
X249000000Y-132000000D01*
X249000000Y-132000000D02*
X249000000Y-106000000D01*
X263460000Y-91540000D02*
X265000000Y-91540000D01*
X200000000Y-74000000D02*
X223110000Y-74000000D01*
X223110000Y-74000000D02*
X233350000Y-63760000D01*
X190500000Y-83500000D02*
X200000000Y-74000000D01*
D19*
%TO.N,/C*%
X174000000Y-75000000D02*
X161500000Y-75000000D01*
%TO.N,/B*%
X200580000Y-101500000D02*
X216190000Y-117110000D01*
X161750000Y-101500000D02*
X161750000Y-108560000D01*
X174250000Y-101500000D02*
X200580000Y-101500000D01*
X161750000Y-108560000D02*
X164190000Y-111000000D01*
X174250000Y-101500000D02*
X161750000Y-101500000D01*
X165500000Y-117000000D02*
X165500000Y-112310000D01*
X165500000Y-112310000D02*
X164190000Y-111000000D01*
%TO.N,/D*%
X147500000Y-73150000D02*
X144650000Y-76000000D01*
X157250000Y-88500000D02*
X149150000Y-88500000D01*
X146550000Y-85900000D02*
X146550000Y-86700000D01*
X146550000Y-77900000D02*
X146550000Y-85900000D01*
X144650000Y-76000000D02*
X146550000Y-77900000D01*
X146550000Y-86700000D02*
X144750000Y-88500000D01*
X147500000Y-71000000D02*
X147500000Y-73150000D01*
X149150000Y-88500000D02*
X146550000Y-85900000D01*
D20*
%TO.N,+3.3V*%
X161500000Y-70000000D02*
X161500000Y-70152943D01*
X178000000Y-83500000D02*
X190500000Y-83500000D01*
X159100000Y-80400000D02*
X159100000Y-72400000D01*
X157250000Y-82250000D02*
X159100000Y-80400000D01*
X161500000Y-70000000D02*
X174000000Y-70000000D01*
X178000000Y-74000000D02*
X178000000Y-83500000D01*
X174250000Y-96500000D02*
X174250000Y-87250000D01*
X157250000Y-83500000D02*
X157250000Y-82250000D01*
X161750000Y-96500000D02*
X174250000Y-96500000D01*
X159100000Y-72400000D02*
X161500000Y-70000000D01*
X174250000Y-87250000D02*
X178000000Y-83500000D01*
X174000000Y-70000000D02*
X178000000Y-74000000D01*
%TD*%
%TA.AperFunction,Conductor*%
%TO.N,GND*%
G36*
X268442539Y-59520185D02*
G01*
X268488294Y-59572989D01*
X268499500Y-59624500D01*
X268499500Y-143375500D01*
X268479815Y-143442539D01*
X268427011Y-143488294D01*
X268375500Y-143499500D01*
X142624500Y-143499500D01*
X142557461Y-143479815D01*
X142511706Y-143427011D01*
X142500500Y-143375500D01*
X142500500Y-123459999D01*
X194744341Y-123459999D01*
X194744341Y-123460000D01*
X194764936Y-123695403D01*
X194764938Y-123695413D01*
X194826094Y-123923655D01*
X194826096Y-123923659D01*
X194826097Y-123923663D01*
X194925965Y-124137830D01*
X194925967Y-124137834D01*
X195034281Y-124292521D01*
X195061501Y-124331396D01*
X195061506Y-124331402D01*
X195183430Y-124453326D01*
X195216915Y-124514649D01*
X195211931Y-124584341D01*
X195170059Y-124640274D01*
X195139083Y-124657189D01*
X195007669Y-124706203D01*
X195007664Y-124706206D01*
X194892455Y-124792452D01*
X194892452Y-124792455D01*
X194806206Y-124907664D01*
X194806202Y-124907671D01*
X194755908Y-125042517D01*
X194749501Y-125102116D01*
X194749501Y-125102123D01*
X194749500Y-125102135D01*
X194749500Y-126897870D01*
X194749501Y-126897876D01*
X194755908Y-126957483D01*
X194806202Y-127092328D01*
X194806206Y-127092335D01*
X194892452Y-127207544D01*
X194892455Y-127207547D01*
X195007664Y-127293793D01*
X195007671Y-127293797D01*
X195139081Y-127342810D01*
X195195015Y-127384681D01*
X195219432Y-127450145D01*
X195204580Y-127518418D01*
X195183430Y-127546673D01*
X195061503Y-127668600D01*
X194925965Y-127862169D01*
X194925964Y-127862171D01*
X194826098Y-128076335D01*
X194826094Y-128076344D01*
X194764938Y-128304586D01*
X194764936Y-128304596D01*
X194744341Y-128539999D01*
X194744341Y-128540000D01*
X194764936Y-128775403D01*
X194764938Y-128775413D01*
X194826094Y-129003655D01*
X194826096Y-129003659D01*
X194826097Y-129003663D01*
X194908931Y-129181300D01*
X194925965Y-129217830D01*
X194925967Y-129217834D01*
X195034281Y-129372521D01*
X195061505Y-129411401D01*
X195228599Y-129578495D01*
X195265848Y-129604577D01*
X195422165Y-129714032D01*
X195422167Y-129714033D01*
X195422170Y-129714035D01*
X195636337Y-129813903D01*
X195864592Y-129875063D01*
X196052918Y-129891539D01*
X196099999Y-129895659D01*
X196100000Y-129895659D01*
X196100001Y-129895659D01*
X196139234Y-129892226D01*
X196335408Y-129875063D01*
X196563663Y-129813903D01*
X196777830Y-129714035D01*
X196971401Y-129578495D01*
X197138495Y-129411401D01*
X197274035Y-129217830D01*
X197373903Y-129003663D01*
X197435063Y-128775408D01*
X197455659Y-128540000D01*
X197445597Y-128424997D01*
X239714723Y-128424997D01*
X239714723Y-128425002D01*
X239720733Y-128493695D01*
X239731292Y-128614394D01*
X239733793Y-128642975D01*
X239733793Y-128642979D01*
X239790422Y-128854322D01*
X239790424Y-128854326D01*
X239790425Y-128854330D01*
X239836661Y-128953484D01*
X239882897Y-129052638D01*
X239882898Y-129052639D01*
X240008402Y-129231877D01*
X240163123Y-129386598D01*
X240342361Y-129512102D01*
X240540670Y-129604575D01*
X240752023Y-129661207D01*
X240934926Y-129677208D01*
X240969998Y-129680277D01*
X240970000Y-129680277D01*
X240970002Y-129680277D01*
X240998254Y-129677805D01*
X241187977Y-129661207D01*
X241399330Y-129604575D01*
X241597639Y-129512102D01*
X241776877Y-129386598D01*
X241931598Y-129231877D01*
X242057102Y-129052639D01*
X242149575Y-128854330D01*
X242184231Y-128724993D01*
X242594700Y-128724993D01*
X242594700Y-128725006D01*
X242613864Y-128956297D01*
X242613866Y-128956308D01*
X242670842Y-129181300D01*
X242764075Y-129393848D01*
X242891016Y-129588147D01*
X242891019Y-129588151D01*
X242891021Y-129588153D01*
X243048216Y-129758913D01*
X243048219Y-129758915D01*
X243048222Y-129758918D01*
X243231365Y-129901464D01*
X243231371Y-129901468D01*
X243231374Y-129901470D01*
X243435497Y-130011936D01*
X243549487Y-130051068D01*
X243655015Y-130087297D01*
X243655017Y-130087297D01*
X243655019Y-130087298D01*
X243883951Y-130125500D01*
X243883952Y-130125500D01*
X244116048Y-130125500D01*
X244116049Y-130125500D01*
X244344981Y-130087298D01*
X244564503Y-130011936D01*
X244768626Y-129901470D01*
X244780213Y-129892452D01*
X244881130Y-129813905D01*
X244951784Y-129758913D01*
X245108979Y-129588153D01*
X245235924Y-129393849D01*
X245329157Y-129181300D01*
X245386134Y-128956305D01*
X245394584Y-128854330D01*
X245405300Y-128725006D01*
X245405300Y-128724993D01*
X245386135Y-128493702D01*
X245386133Y-128493691D01*
X245329157Y-128268699D01*
X245235924Y-128056151D01*
X245108983Y-127861852D01*
X245108980Y-127861849D01*
X245108979Y-127861847D01*
X244951784Y-127691087D01*
X244951779Y-127691083D01*
X244951777Y-127691081D01*
X244768634Y-127548535D01*
X244768628Y-127548531D01*
X244564504Y-127438064D01*
X244564495Y-127438061D01*
X244344984Y-127362702D01*
X244173282Y-127334050D01*
X244116049Y-127324500D01*
X243883951Y-127324500D01*
X243838164Y-127332140D01*
X243655015Y-127362702D01*
X243435504Y-127438061D01*
X243435495Y-127438064D01*
X243231371Y-127548531D01*
X243231365Y-127548535D01*
X243048222Y-127691081D01*
X243048219Y-127691084D01*
X242891016Y-127861852D01*
X242764075Y-128056151D01*
X242670842Y-128268699D01*
X242613866Y-128493691D01*
X242613864Y-128493702D01*
X242594700Y-128724993D01*
X242184231Y-128724993D01*
X242206207Y-128642977D01*
X242225277Y-128425000D01*
X242206207Y-128207023D01*
X242149575Y-127995670D01*
X242057102Y-127797362D01*
X242057100Y-127797359D01*
X242057099Y-127797357D01*
X241931599Y-127618124D01*
X241860148Y-127546673D01*
X241776877Y-127463402D01*
X241628811Y-127359725D01*
X241597638Y-127337897D01*
X241498484Y-127291661D01*
X241399330Y-127245425D01*
X241399326Y-127245424D01*
X241399322Y-127245422D01*
X241187977Y-127188793D01*
X240970002Y-127169723D01*
X240969998Y-127169723D01*
X240824682Y-127182436D01*
X240752023Y-127188793D01*
X240752020Y-127188793D01*
X240540677Y-127245422D01*
X240540668Y-127245426D01*
X240342361Y-127337898D01*
X240342357Y-127337900D01*
X240163121Y-127463402D01*
X240008402Y-127618121D01*
X239882900Y-127797357D01*
X239882898Y-127797361D01*
X239790426Y-127995668D01*
X239790422Y-127995677D01*
X239733793Y-128207020D01*
X239733793Y-128207024D01*
X239714723Y-128424997D01*
X197445597Y-128424997D01*
X197435063Y-128304592D01*
X197373903Y-128076337D01*
X197274035Y-127862171D01*
X197273808Y-127861847D01*
X197138496Y-127668600D01*
X197088017Y-127618121D01*
X197016567Y-127546671D01*
X196983084Y-127485351D01*
X196988068Y-127415659D01*
X197029939Y-127359725D01*
X197060915Y-127342810D01*
X197192331Y-127293796D01*
X197307546Y-127207546D01*
X197393796Y-127092331D01*
X197444091Y-126957483D01*
X197450500Y-126897873D01*
X197450499Y-125102128D01*
X197444091Y-125042517D01*
X197393796Y-124907669D01*
X197393795Y-124907668D01*
X197393793Y-124907664D01*
X197307547Y-124792455D01*
X197307544Y-124792452D01*
X197192335Y-124706206D01*
X197192328Y-124706202D01*
X197060917Y-124657189D01*
X197004983Y-124615318D01*
X196980566Y-124549853D01*
X196995418Y-124481580D01*
X197016563Y-124453332D01*
X197138495Y-124331401D01*
X197274035Y-124137830D01*
X197373903Y-123923663D01*
X197435063Y-123695408D01*
X197445598Y-123575000D01*
X239714723Y-123575000D01*
X239725257Y-123695413D01*
X239733793Y-123792975D01*
X239733793Y-123792979D01*
X239790422Y-124004322D01*
X239790424Y-124004326D01*
X239790425Y-124004330D01*
X239836661Y-124103484D01*
X239882897Y-124202638D01*
X239882898Y-124202639D01*
X240008402Y-124381877D01*
X240163123Y-124536598D01*
X240342361Y-124662102D01*
X240540670Y-124754575D01*
X240752023Y-124811207D01*
X240934926Y-124827208D01*
X240969998Y-124830277D01*
X240970000Y-124830277D01*
X240970002Y-124830277D01*
X240998254Y-124827805D01*
X241187977Y-124811207D01*
X241399330Y-124754575D01*
X241597639Y-124662102D01*
X241776877Y-124536598D01*
X241931598Y-124381877D01*
X242057102Y-124202639D01*
X242149575Y-124004330D01*
X242206207Y-123792977D01*
X242225277Y-123575000D01*
X242206207Y-123357023D01*
X242184227Y-123274993D01*
X242594700Y-123274993D01*
X242594700Y-123275006D01*
X242613864Y-123506297D01*
X242613866Y-123506308D01*
X242670842Y-123731300D01*
X242764075Y-123943848D01*
X242891016Y-124138147D01*
X242891019Y-124138151D01*
X242891021Y-124138153D01*
X243048216Y-124308913D01*
X243048219Y-124308915D01*
X243048222Y-124308918D01*
X243231365Y-124451464D01*
X243231371Y-124451468D01*
X243231374Y-124451470D01*
X243435497Y-124561936D01*
X243500761Y-124584341D01*
X243655015Y-124637297D01*
X243655017Y-124637297D01*
X243655019Y-124637298D01*
X243883951Y-124675500D01*
X243883952Y-124675500D01*
X244116048Y-124675500D01*
X244116049Y-124675500D01*
X244344981Y-124637298D01*
X244564503Y-124561936D01*
X244768626Y-124451470D01*
X244951784Y-124308913D01*
X245108979Y-124138153D01*
X245235924Y-123943849D01*
X245329157Y-123731300D01*
X245386134Y-123506305D01*
X245389971Y-123459999D01*
X245405300Y-123275006D01*
X245405300Y-123274993D01*
X245386135Y-123043702D01*
X245386133Y-123043691D01*
X245329157Y-122818699D01*
X245235924Y-122606151D01*
X245108983Y-122411852D01*
X245108980Y-122411849D01*
X245108979Y-122411847D01*
X244951784Y-122241087D01*
X244951779Y-122241083D01*
X244951777Y-122241081D01*
X244768634Y-122098535D01*
X244768628Y-122098531D01*
X244564504Y-121988064D01*
X244564495Y-121988061D01*
X244344984Y-121912702D01*
X244173282Y-121884050D01*
X244116049Y-121874500D01*
X243883951Y-121874500D01*
X243838164Y-121882140D01*
X243655015Y-121912702D01*
X243435504Y-121988061D01*
X243435495Y-121988064D01*
X243231371Y-122098531D01*
X243231365Y-122098535D01*
X243048222Y-122241081D01*
X243048219Y-122241084D01*
X242891016Y-122411852D01*
X242764075Y-122606151D01*
X242670842Y-122818699D01*
X242613866Y-123043691D01*
X242613864Y-123043702D01*
X242594700Y-123274993D01*
X242184227Y-123274993D01*
X242149575Y-123145670D01*
X242057102Y-122947362D01*
X242057100Y-122947359D01*
X242057099Y-122947357D01*
X241931599Y-122768124D01*
X241931596Y-122768121D01*
X241776877Y-122613402D01*
X241597639Y-122487898D01*
X241597640Y-122487898D01*
X241597638Y-122487897D01*
X241498484Y-122441661D01*
X241399330Y-122395425D01*
X241399326Y-122395424D01*
X241399322Y-122395422D01*
X241187977Y-122338793D01*
X240970002Y-122319723D01*
X240969998Y-122319723D01*
X240824682Y-122332436D01*
X240752023Y-122338793D01*
X240752020Y-122338793D01*
X240540677Y-122395422D01*
X240540668Y-122395426D01*
X240342361Y-122487898D01*
X240342357Y-122487900D01*
X240163121Y-122613402D01*
X240008402Y-122768121D01*
X239882900Y-122947357D01*
X239882898Y-122947361D01*
X239790426Y-123145668D01*
X239790422Y-123145677D01*
X239733793Y-123357020D01*
X239733793Y-123357024D01*
X239720733Y-123506308D01*
X239714723Y-123575000D01*
X197445598Y-123575000D01*
X197455659Y-123460000D01*
X197435063Y-123224592D01*
X197373903Y-122996337D01*
X197274035Y-122782171D01*
X197264200Y-122768124D01*
X197138494Y-122588597D01*
X196971402Y-122421506D01*
X196971395Y-122421501D01*
X196777834Y-122285967D01*
X196777830Y-122285965D01*
X196681589Y-122241087D01*
X196563663Y-122186097D01*
X196563659Y-122186096D01*
X196563655Y-122186094D01*
X196335413Y-122124938D01*
X196335403Y-122124936D01*
X196100001Y-122104341D01*
X196099999Y-122104341D01*
X195864596Y-122124936D01*
X195864586Y-122124938D01*
X195636344Y-122186094D01*
X195636335Y-122186098D01*
X195422171Y-122285964D01*
X195422169Y-122285965D01*
X195228597Y-122421505D01*
X195061505Y-122588597D01*
X194925965Y-122782169D01*
X194925964Y-122782171D01*
X194826098Y-122996335D01*
X194826094Y-122996344D01*
X194764938Y-123224586D01*
X194764936Y-123224596D01*
X194744341Y-123459999D01*
X142500500Y-123459999D01*
X142500500Y-101385258D01*
X159749500Y-101385258D01*
X159749500Y-101614741D01*
X159774446Y-101804215D01*
X159779452Y-101842238D01*
X159779453Y-101842240D01*
X159838842Y-102063887D01*
X159926650Y-102275876D01*
X159926657Y-102275890D01*
X160041392Y-102474617D01*
X160181081Y-102656661D01*
X160181089Y-102656670D01*
X160343330Y-102818911D01*
X160343338Y-102818918D01*
X160525382Y-102958607D01*
X160525385Y-102958608D01*
X160525388Y-102958611D01*
X160724112Y-103073344D01*
X160724114Y-103073344D01*
X160724118Y-103073347D01*
X160936103Y-103161154D01*
X160936113Y-103161158D01*
X161057595Y-103193708D01*
X161117253Y-103230071D01*
X161147783Y-103292918D01*
X161149500Y-103313482D01*
X161149500Y-108473330D01*
X161149499Y-108473348D01*
X161149499Y-108639054D01*
X161149498Y-108639054D01*
X161190423Y-108791785D01*
X161219358Y-108841900D01*
X161219359Y-108841904D01*
X161219360Y-108841904D01*
X161269479Y-108928714D01*
X161269481Y-108928717D01*
X161388349Y-109047585D01*
X161388355Y-109047590D01*
X162898058Y-110557293D01*
X162931543Y-110618616D01*
X162930152Y-110677067D01*
X162904366Y-110773302D01*
X162904364Y-110773313D01*
X162884532Y-110999998D01*
X162884532Y-111000001D01*
X162904364Y-111226686D01*
X162904366Y-111226697D01*
X162963258Y-111446488D01*
X162963261Y-111446497D01*
X163059431Y-111652732D01*
X163059432Y-111652734D01*
X163189954Y-111839141D01*
X163350858Y-112000045D01*
X163350861Y-112000047D01*
X163537266Y-112130568D01*
X163743504Y-112226739D01*
X163743509Y-112226740D01*
X163743511Y-112226741D01*
X163759197Y-112230944D01*
X163963308Y-112285635D01*
X164125230Y-112299801D01*
X164189998Y-112305468D01*
X164190000Y-112305468D01*
X164190002Y-112305468D01*
X164246673Y-112300509D01*
X164416692Y-112285635D01*
X164512932Y-112259847D01*
X164582781Y-112261510D01*
X164632706Y-112291941D01*
X164863181Y-112522416D01*
X164896666Y-112583739D01*
X164899500Y-112610097D01*
X164899500Y-115768306D01*
X164879815Y-115835345D01*
X164846623Y-115869881D01*
X164660859Y-115999953D01*
X164499954Y-116160858D01*
X164369432Y-116347265D01*
X164369431Y-116347267D01*
X164273261Y-116553502D01*
X164273258Y-116553511D01*
X164214366Y-116773302D01*
X164214364Y-116773313D01*
X164194532Y-116999998D01*
X164194532Y-117000001D01*
X164214364Y-117226686D01*
X164214366Y-117226697D01*
X164273258Y-117446488D01*
X164273261Y-117446497D01*
X164369431Y-117652732D01*
X164369432Y-117652734D01*
X164499954Y-117839141D01*
X164660858Y-118000045D01*
X164668530Y-118005417D01*
X164847266Y-118130568D01*
X165053504Y-118226739D01*
X165273308Y-118285635D01*
X165435230Y-118299801D01*
X165499998Y-118305468D01*
X165500000Y-118305468D01*
X165500002Y-118305468D01*
X165556673Y-118300509D01*
X165726692Y-118285635D01*
X165946496Y-118226739D01*
X166152734Y-118130568D01*
X166339139Y-118000047D01*
X166500047Y-117839139D01*
X166630568Y-117652734D01*
X166726739Y-117446496D01*
X166785635Y-117226692D01*
X166805468Y-117000000D01*
X166805468Y-116999997D01*
X169195034Y-116999997D01*
X169195034Y-117000002D01*
X169214858Y-117226599D01*
X169214860Y-117226610D01*
X169273730Y-117446317D01*
X169273735Y-117446331D01*
X169369863Y-117652478D01*
X169420974Y-117725472D01*
X170100000Y-117046446D01*
X170100000Y-117052661D01*
X170127259Y-117154394D01*
X170179920Y-117245606D01*
X170254394Y-117320080D01*
X170345606Y-117372741D01*
X170447339Y-117400000D01*
X170453553Y-117400000D01*
X169774526Y-118079025D01*
X169847513Y-118130132D01*
X169847521Y-118130136D01*
X170053668Y-118226264D01*
X170053682Y-118226269D01*
X170273389Y-118285139D01*
X170273400Y-118285141D01*
X170499998Y-118304966D01*
X170500002Y-118304966D01*
X170726599Y-118285141D01*
X170726610Y-118285139D01*
X170946317Y-118226269D01*
X170946331Y-118226264D01*
X171152478Y-118130136D01*
X171225471Y-118079024D01*
X170546447Y-117400000D01*
X170552661Y-117400000D01*
X170654394Y-117372741D01*
X170745606Y-117320080D01*
X170820080Y-117245606D01*
X170872741Y-117154394D01*
X170900000Y-117052661D01*
X170900000Y-117046447D01*
X171579024Y-117725471D01*
X171630136Y-117652478D01*
X171726264Y-117446331D01*
X171726269Y-117446317D01*
X171785139Y-117226610D01*
X171785141Y-117226599D01*
X171804966Y-117000002D01*
X171804966Y-116999997D01*
X171785141Y-116773400D01*
X171785139Y-116773389D01*
X171726269Y-116553682D01*
X171726264Y-116553668D01*
X171630136Y-116347521D01*
X171630132Y-116347513D01*
X171579025Y-116274526D01*
X170900000Y-116953551D01*
X170900000Y-116947339D01*
X170872741Y-116845606D01*
X170820080Y-116754394D01*
X170745606Y-116679920D01*
X170654394Y-116627259D01*
X170552661Y-116600000D01*
X170546445Y-116600000D01*
X171225472Y-115920974D01*
X171152478Y-115869863D01*
X170946331Y-115773735D01*
X170946317Y-115773730D01*
X170726610Y-115714860D01*
X170726599Y-115714858D01*
X170500002Y-115695034D01*
X170499998Y-115695034D01*
X170273400Y-115714858D01*
X170273389Y-115714860D01*
X170053682Y-115773730D01*
X170053673Y-115773734D01*
X169847516Y-115869866D01*
X169847512Y-115869868D01*
X169774526Y-115920973D01*
X169774526Y-115920974D01*
X170453553Y-116600000D01*
X170447339Y-116600000D01*
X170345606Y-116627259D01*
X170254394Y-116679920D01*
X170179920Y-116754394D01*
X170127259Y-116845606D01*
X170100000Y-116947339D01*
X170100000Y-116953552D01*
X169420974Y-116274526D01*
X169420973Y-116274526D01*
X169369868Y-116347512D01*
X169369866Y-116347516D01*
X169273734Y-116553673D01*
X169273730Y-116553682D01*
X169214860Y-116773389D01*
X169214858Y-116773400D01*
X169195034Y-116999997D01*
X166805468Y-116999997D01*
X166785635Y-116773308D01*
X166726739Y-116553504D01*
X166630568Y-116347266D01*
X166500047Y-116160861D01*
X166500045Y-116160858D01*
X166339140Y-115999953D01*
X166153377Y-115869881D01*
X166109752Y-115815304D01*
X166100500Y-115768306D01*
X166100500Y-112399060D01*
X166100501Y-112399047D01*
X166100501Y-112230944D01*
X166099375Y-112226741D01*
X166059577Y-112078216D01*
X166014447Y-112000047D01*
X165980524Y-111941290D01*
X165980518Y-111941282D01*
X165481941Y-111442706D01*
X165448456Y-111381383D01*
X165449847Y-111322931D01*
X165450611Y-111320080D01*
X165475635Y-111226692D01*
X165495468Y-111000000D01*
X165475635Y-110773308D01*
X165469389Y-110749999D01*
X175611127Y-110749999D01*
X175611128Y-110750000D01*
X176574314Y-110750000D01*
X176569920Y-110754394D01*
X176517259Y-110845606D01*
X176490000Y-110947339D01*
X176490000Y-111052661D01*
X176517259Y-111154394D01*
X176569920Y-111245606D01*
X176574314Y-111250000D01*
X175611128Y-111250000D01*
X175663730Y-111446317D01*
X175663734Y-111446326D01*
X175759865Y-111652482D01*
X175890342Y-111838820D01*
X176051179Y-111999657D01*
X176237517Y-112130134D01*
X176443673Y-112226265D01*
X176443682Y-112226269D01*
X176639999Y-112278872D01*
X176640000Y-112278871D01*
X176640000Y-111315686D01*
X176644394Y-111320080D01*
X176735606Y-111372741D01*
X176837339Y-111400000D01*
X176942661Y-111400000D01*
X177044394Y-111372741D01*
X177135606Y-111320080D01*
X177140000Y-111315686D01*
X177140000Y-112278872D01*
X177336317Y-112226269D01*
X177336326Y-112226265D01*
X177542482Y-112130134D01*
X177728820Y-111999657D01*
X177889657Y-111838820D01*
X178020134Y-111652482D01*
X178116265Y-111446326D01*
X178116269Y-111446317D01*
X178168872Y-111250000D01*
X177205686Y-111250000D01*
X177210080Y-111245606D01*
X177262741Y-111154394D01*
X177290000Y-111052661D01*
X177290000Y-110947339D01*
X177262741Y-110845606D01*
X177210080Y-110754394D01*
X177205686Y-110750000D01*
X178168872Y-110750000D01*
X178168872Y-110749999D01*
X178116269Y-110553682D01*
X178116265Y-110553673D01*
X178020134Y-110347517D01*
X177889657Y-110161179D01*
X177728820Y-110000342D01*
X177542482Y-109869865D01*
X177336328Y-109773734D01*
X177140000Y-109721127D01*
X177140000Y-110684314D01*
X177135606Y-110679920D01*
X177044394Y-110627259D01*
X176942661Y-110600000D01*
X176837339Y-110600000D01*
X176735606Y-110627259D01*
X176644394Y-110679920D01*
X176640000Y-110684314D01*
X176640000Y-109721127D01*
X176443671Y-109773734D01*
X176237517Y-109869865D01*
X176051179Y-110000342D01*
X175890342Y-110161179D01*
X175759865Y-110347517D01*
X175663734Y-110553673D01*
X175663730Y-110553682D01*
X175611127Y-110749999D01*
X165469389Y-110749999D01*
X165416739Y-110553504D01*
X165320568Y-110347266D01*
X165190047Y-110160861D01*
X165190045Y-110160858D01*
X165029141Y-109999954D01*
X164842734Y-109869432D01*
X164842732Y-109869431D01*
X164636497Y-109773261D01*
X164636488Y-109773258D01*
X164416697Y-109714366D01*
X164416693Y-109714365D01*
X164416692Y-109714365D01*
X164416691Y-109714364D01*
X164416686Y-109714364D01*
X164190002Y-109694532D01*
X164189998Y-109694532D01*
X163963313Y-109714364D01*
X163963302Y-109714366D01*
X163867067Y-109740152D01*
X163797217Y-109738489D01*
X163747293Y-109708058D01*
X162386819Y-108347584D01*
X162353334Y-108286261D01*
X162350500Y-108259903D01*
X162350500Y-103313482D01*
X162370185Y-103246443D01*
X162422989Y-103200688D01*
X162442396Y-103193710D01*
X162563887Y-103161158D01*
X162775888Y-103073344D01*
X162974612Y-102958611D01*
X163156661Y-102818919D01*
X163156665Y-102818914D01*
X163156670Y-102818911D01*
X163318911Y-102656670D01*
X163318914Y-102656665D01*
X163318919Y-102656661D01*
X163458611Y-102474612D01*
X163573344Y-102275888D01*
X163614285Y-102177048D01*
X163658125Y-102122644D01*
X163724420Y-102100579D01*
X163728846Y-102100500D01*
X172271154Y-102100500D01*
X172338193Y-102120185D01*
X172383948Y-102172989D01*
X172385715Y-102177048D01*
X172426650Y-102275876D01*
X172426657Y-102275890D01*
X172541392Y-102474617D01*
X172681081Y-102656661D01*
X172681089Y-102656670D01*
X172843330Y-102818911D01*
X172843338Y-102818918D01*
X173025382Y-102958607D01*
X173025385Y-102958608D01*
X173025388Y-102958611D01*
X173224112Y-103073344D01*
X173224117Y-103073346D01*
X173224123Y-103073349D01*
X173315480Y-103111190D01*
X173436113Y-103161158D01*
X173657762Y-103220548D01*
X173885266Y-103250500D01*
X173885273Y-103250500D01*
X174614727Y-103250500D01*
X174614734Y-103250500D01*
X174842238Y-103220548D01*
X175063887Y-103161158D01*
X175275888Y-103073344D01*
X175474612Y-102958611D01*
X175656661Y-102818919D01*
X175656665Y-102818914D01*
X175656670Y-102818911D01*
X175818911Y-102656670D01*
X175818914Y-102656665D01*
X175818919Y-102656661D01*
X175958611Y-102474612D01*
X176073344Y-102275888D01*
X176114285Y-102177048D01*
X176158125Y-102122644D01*
X176224420Y-102100579D01*
X176228846Y-102100500D01*
X200279903Y-102100500D01*
X200346942Y-102120185D01*
X200367584Y-102136819D01*
X213778583Y-115547819D01*
X213812068Y-115609142D01*
X213807084Y-115678834D01*
X213765212Y-115734767D01*
X213699748Y-115759184D01*
X213690902Y-115759500D01*
X212752129Y-115759500D01*
X212752123Y-115759501D01*
X212692516Y-115765908D01*
X212557671Y-115816202D01*
X212557664Y-115816206D01*
X212442455Y-115902452D01*
X212442452Y-115902455D01*
X212356206Y-116017664D01*
X212356203Y-116017669D01*
X212307189Y-116149083D01*
X212265317Y-116205016D01*
X212199853Y-116229433D01*
X212131580Y-116214581D01*
X212103326Y-116193430D01*
X211981402Y-116071506D01*
X211981395Y-116071501D01*
X211961662Y-116057684D01*
X211904518Y-116017671D01*
X211787834Y-115935967D01*
X211787830Y-115935965D01*
X211755682Y-115920974D01*
X211573663Y-115836097D01*
X211573659Y-115836096D01*
X211573655Y-115836094D01*
X211345413Y-115774938D01*
X211345403Y-115774936D01*
X211110001Y-115754341D01*
X211109999Y-115754341D01*
X210874596Y-115774936D01*
X210874586Y-115774938D01*
X210646344Y-115836094D01*
X210646335Y-115836098D01*
X210432171Y-115935964D01*
X210432169Y-115935965D01*
X210238597Y-116071505D01*
X210071505Y-116238597D01*
X209941575Y-116424158D01*
X209886998Y-116467783D01*
X209817500Y-116474977D01*
X209755145Y-116443454D01*
X209738425Y-116424158D01*
X209608494Y-116238597D01*
X209441402Y-116071506D01*
X209441395Y-116071501D01*
X209421662Y-116057684D01*
X209364518Y-116017671D01*
X209247834Y-115935967D01*
X209247830Y-115935965D01*
X209215682Y-115920974D01*
X209033663Y-115836097D01*
X209033659Y-115836096D01*
X209033655Y-115836094D01*
X208805413Y-115774938D01*
X208805403Y-115774936D01*
X208570001Y-115754341D01*
X208569999Y-115754341D01*
X208334596Y-115774936D01*
X208334586Y-115774938D01*
X208106344Y-115836094D01*
X208106335Y-115836098D01*
X207892171Y-115935964D01*
X207892169Y-115935965D01*
X207698597Y-116071505D01*
X207531505Y-116238597D01*
X207401575Y-116424158D01*
X207346998Y-116467783D01*
X207277500Y-116474977D01*
X207215145Y-116443454D01*
X207198425Y-116424158D01*
X207068494Y-116238597D01*
X206901402Y-116071506D01*
X206901395Y-116071501D01*
X206881662Y-116057684D01*
X206824518Y-116017671D01*
X206707834Y-115935967D01*
X206707830Y-115935965D01*
X206675682Y-115920974D01*
X206493663Y-115836097D01*
X206493659Y-115836096D01*
X206493655Y-115836094D01*
X206265413Y-115774938D01*
X206265403Y-115774936D01*
X206030001Y-115754341D01*
X206029999Y-115754341D01*
X205794596Y-115774936D01*
X205794586Y-115774938D01*
X205566344Y-115836094D01*
X205566335Y-115836098D01*
X205352171Y-115935964D01*
X205352169Y-115935965D01*
X205158597Y-116071505D01*
X204991505Y-116238597D01*
X204861575Y-116424158D01*
X204806998Y-116467783D01*
X204737500Y-116474977D01*
X204675145Y-116443454D01*
X204658425Y-116424158D01*
X204528494Y-116238597D01*
X204361402Y-116071506D01*
X204361395Y-116071501D01*
X204341662Y-116057684D01*
X204284518Y-116017671D01*
X204167834Y-115935967D01*
X204167830Y-115935965D01*
X204135682Y-115920974D01*
X203953663Y-115836097D01*
X203953659Y-115836096D01*
X203953655Y-115836094D01*
X203725413Y-115774938D01*
X203725403Y-115774936D01*
X203490001Y-115754341D01*
X203489999Y-115754341D01*
X203254596Y-115774936D01*
X203254586Y-115774938D01*
X203026344Y-115836094D01*
X203026335Y-115836098D01*
X202812171Y-115935964D01*
X202812169Y-115935965D01*
X202618600Y-116071503D01*
X202496284Y-116193819D01*
X202434961Y-116227303D01*
X202365269Y-116222319D01*
X202309336Y-116180447D01*
X202292421Y-116149470D01*
X202243354Y-116017913D01*
X202243350Y-116017906D01*
X202157190Y-115902812D01*
X202157187Y-115902809D01*
X202042093Y-115816649D01*
X202042086Y-115816645D01*
X201907379Y-115766403D01*
X201907372Y-115766401D01*
X201847844Y-115760000D01*
X201200000Y-115760000D01*
X201200000Y-116665439D01*
X201146853Y-116634755D01*
X201017143Y-116600000D01*
X200882857Y-116600000D01*
X200753147Y-116634755D01*
X200700000Y-116665439D01*
X200700000Y-115760000D01*
X200052155Y-115760000D01*
X199992627Y-115766401D01*
X199992620Y-115766403D01*
X199857913Y-115816645D01*
X199857906Y-115816649D01*
X199742812Y-115902809D01*
X199742809Y-115902812D01*
X199656649Y-116017906D01*
X199656645Y-116017913D01*
X199607578Y-116149470D01*
X199565707Y-116205404D01*
X199500242Y-116229821D01*
X199431969Y-116214969D01*
X199403715Y-116193819D01*
X199358977Y-116149081D01*
X199281401Y-116071505D01*
X199281397Y-116071502D01*
X199281396Y-116071501D01*
X199087834Y-115935967D01*
X199087830Y-115935965D01*
X199055682Y-115920974D01*
X198873663Y-115836097D01*
X198873659Y-115836096D01*
X198873655Y-115836094D01*
X198645413Y-115774938D01*
X198645403Y-115774936D01*
X198410001Y-115754341D01*
X198409999Y-115754341D01*
X198174596Y-115774936D01*
X198174586Y-115774938D01*
X197946344Y-115836094D01*
X197946335Y-115836098D01*
X197732171Y-115935964D01*
X197732169Y-115935965D01*
X197538597Y-116071505D01*
X197371505Y-116238597D01*
X197241575Y-116424158D01*
X197186998Y-116467783D01*
X197117500Y-116474977D01*
X197055145Y-116443454D01*
X197038425Y-116424158D01*
X196908494Y-116238597D01*
X196741402Y-116071506D01*
X196741395Y-116071501D01*
X196721662Y-116057684D01*
X196664518Y-116017671D01*
X196547834Y-115935967D01*
X196547830Y-115935965D01*
X196515682Y-115920974D01*
X196333663Y-115836097D01*
X196333659Y-115836096D01*
X196333655Y-115836094D01*
X196105413Y-115774938D01*
X196105403Y-115774936D01*
X195870001Y-115754341D01*
X195869999Y-115754341D01*
X195634596Y-115774936D01*
X195634586Y-115774938D01*
X195406344Y-115836094D01*
X195406335Y-115836098D01*
X195192171Y-115935964D01*
X195192169Y-115935965D01*
X194998597Y-116071505D01*
X194831505Y-116238597D01*
X194695965Y-116432169D01*
X194695964Y-116432171D01*
X194596098Y-116646335D01*
X194596094Y-116646344D01*
X194534938Y-116874586D01*
X194534936Y-116874596D01*
X194514341Y-117109999D01*
X194514341Y-117110000D01*
X194534936Y-117345403D01*
X194534938Y-117345413D01*
X194596094Y-117573655D01*
X194596096Y-117573659D01*
X194596097Y-117573663D01*
X194666887Y-117725472D01*
X194695965Y-117787830D01*
X194695967Y-117787834D01*
X194731893Y-117839141D01*
X194831505Y-117981401D01*
X194998599Y-118148495D01*
X195095384Y-118216265D01*
X195192165Y-118284032D01*
X195192167Y-118284033D01*
X195192170Y-118284035D01*
X195406337Y-118383903D01*
X195634592Y-118445063D01*
X195811034Y-118460500D01*
X195869999Y-118465659D01*
X195870000Y-118465659D01*
X195870001Y-118465659D01*
X195928966Y-118460500D01*
X196105408Y-118445063D01*
X196333663Y-118383903D01*
X196547830Y-118284035D01*
X196741401Y-118148495D01*
X196908495Y-117981401D01*
X197038425Y-117795842D01*
X197093002Y-117752217D01*
X197162500Y-117745023D01*
X197224855Y-117776546D01*
X197241575Y-117795842D01*
X197371500Y-117981395D01*
X197371505Y-117981401D01*
X197538599Y-118148495D01*
X197635384Y-118216265D01*
X197732165Y-118284032D01*
X197732167Y-118284033D01*
X197732170Y-118284035D01*
X197946337Y-118383903D01*
X198174592Y-118445063D01*
X198351034Y-118460500D01*
X198409999Y-118465659D01*
X198410000Y-118465659D01*
X198410001Y-118465659D01*
X198468966Y-118460500D01*
X198645408Y-118445063D01*
X198873663Y-118383903D01*
X199087830Y-118284035D01*
X199281401Y-118148495D01*
X199403717Y-118026178D01*
X199465036Y-117992696D01*
X199534728Y-117997680D01*
X199590662Y-118039551D01*
X199607577Y-118070528D01*
X199656646Y-118202088D01*
X199656649Y-118202093D01*
X199742809Y-118317187D01*
X199742812Y-118317190D01*
X199857906Y-118403350D01*
X199857913Y-118403354D01*
X199992620Y-118453596D01*
X199992627Y-118453598D01*
X200052155Y-118459999D01*
X200052172Y-118460000D01*
X200700000Y-118460000D01*
X200700000Y-117554560D01*
X200753147Y-117585245D01*
X200882857Y-117620000D01*
X201017143Y-117620000D01*
X201146853Y-117585245D01*
X201200000Y-117554560D01*
X201200000Y-118460000D01*
X201847828Y-118460000D01*
X201847844Y-118459999D01*
X201907372Y-118453598D01*
X201907379Y-118453596D01*
X202042086Y-118403354D01*
X202042093Y-118403350D01*
X202157187Y-118317190D01*
X202157190Y-118317187D01*
X202243350Y-118202093D01*
X202243354Y-118202086D01*
X202292422Y-118070529D01*
X202334293Y-118014595D01*
X202399757Y-117990178D01*
X202468030Y-118005030D01*
X202496285Y-118026181D01*
X202618599Y-118148495D01*
X202715384Y-118216265D01*
X202812165Y-118284032D01*
X202812167Y-118284033D01*
X202812170Y-118284035D01*
X203026337Y-118383903D01*
X203254592Y-118445063D01*
X203431034Y-118460500D01*
X203489999Y-118465659D01*
X203490000Y-118465659D01*
X203490001Y-118465659D01*
X203548966Y-118460500D01*
X203725408Y-118445063D01*
X203953663Y-118383903D01*
X204167830Y-118284035D01*
X204361401Y-118148495D01*
X204528495Y-117981401D01*
X204658425Y-117795842D01*
X204713002Y-117752217D01*
X204782500Y-117745023D01*
X204844855Y-117776546D01*
X204861575Y-117795842D01*
X204991500Y-117981395D01*
X204991505Y-117981401D01*
X205158599Y-118148495D01*
X205255384Y-118216265D01*
X205352165Y-118284032D01*
X205352167Y-118284033D01*
X205352170Y-118284035D01*
X205566337Y-118383903D01*
X205794592Y-118445063D01*
X205971034Y-118460500D01*
X206029999Y-118465659D01*
X206030000Y-118465659D01*
X206030001Y-118465659D01*
X206088966Y-118460500D01*
X206265408Y-118445063D01*
X206493663Y-118383903D01*
X206707830Y-118284035D01*
X206901401Y-118148495D01*
X207068495Y-117981401D01*
X207198425Y-117795842D01*
X207253002Y-117752217D01*
X207322500Y-117745023D01*
X207384855Y-117776546D01*
X207401575Y-117795842D01*
X207531500Y-117981395D01*
X207531505Y-117981401D01*
X207698599Y-118148495D01*
X207795384Y-118216265D01*
X207892165Y-118284032D01*
X207892167Y-118284033D01*
X207892170Y-118284035D01*
X208106337Y-118383903D01*
X208334592Y-118445063D01*
X208511034Y-118460500D01*
X208569999Y-118465659D01*
X208570000Y-118465659D01*
X208570001Y-118465659D01*
X208628966Y-118460500D01*
X208805408Y-118445063D01*
X209033663Y-118383903D01*
X209247830Y-118284035D01*
X209441401Y-118148495D01*
X209608495Y-117981401D01*
X209738425Y-117795842D01*
X209793002Y-117752217D01*
X209862500Y-117745023D01*
X209924855Y-117776546D01*
X209941575Y-117795842D01*
X210071500Y-117981395D01*
X210071505Y-117981401D01*
X210238599Y-118148495D01*
X210335384Y-118216265D01*
X210432165Y-118284032D01*
X210432167Y-118284033D01*
X210432170Y-118284035D01*
X210646337Y-118383903D01*
X210874592Y-118445063D01*
X211051034Y-118460500D01*
X211109999Y-118465659D01*
X211110000Y-118465659D01*
X211110001Y-118465659D01*
X211168966Y-118460500D01*
X211345408Y-118445063D01*
X211573663Y-118383903D01*
X211787830Y-118284035D01*
X211981401Y-118148495D01*
X212103329Y-118026566D01*
X212164648Y-117993084D01*
X212234340Y-117998068D01*
X212290274Y-118039939D01*
X212307189Y-118070917D01*
X212356202Y-118202328D01*
X212356206Y-118202335D01*
X212442452Y-118317544D01*
X212442455Y-118317547D01*
X212557664Y-118403793D01*
X212557671Y-118403797D01*
X212692517Y-118454091D01*
X212692516Y-118454091D01*
X212699444Y-118454835D01*
X212752127Y-118460500D01*
X214547872Y-118460499D01*
X214607483Y-118454091D01*
X214742331Y-118403796D01*
X214857546Y-118317546D01*
X214943796Y-118202331D01*
X214992810Y-118070916D01*
X215034681Y-118014984D01*
X215100145Y-117990566D01*
X215168418Y-118005417D01*
X215196673Y-118026569D01*
X215318599Y-118148495D01*
X215415384Y-118216265D01*
X215512165Y-118284032D01*
X215512167Y-118284033D01*
X215512170Y-118284035D01*
X215726337Y-118383903D01*
X215954592Y-118445063D01*
X216131034Y-118460500D01*
X216189999Y-118465659D01*
X216190000Y-118465659D01*
X216190001Y-118465659D01*
X216248966Y-118460500D01*
X216425408Y-118445063D01*
X216653663Y-118383903D01*
X216867830Y-118284035D01*
X217061401Y-118148495D01*
X217228495Y-117981401D01*
X217358425Y-117795842D01*
X217413002Y-117752217D01*
X217482500Y-117745023D01*
X217544855Y-117776546D01*
X217561575Y-117795842D01*
X217691500Y-117981395D01*
X217691505Y-117981401D01*
X217858599Y-118148495D01*
X217955384Y-118216265D01*
X218052165Y-118284032D01*
X218052167Y-118284033D01*
X218052170Y-118284035D01*
X218266337Y-118383903D01*
X218494592Y-118445063D01*
X218671034Y-118460500D01*
X218729999Y-118465659D01*
X218730000Y-118465659D01*
X218730001Y-118465659D01*
X218788966Y-118460500D01*
X218965408Y-118445063D01*
X219193663Y-118383903D01*
X219407830Y-118284035D01*
X219601401Y-118148495D01*
X219768495Y-117981401D01*
X219898425Y-117795842D01*
X219953002Y-117752217D01*
X220022500Y-117745023D01*
X220084855Y-117776546D01*
X220101575Y-117795842D01*
X220231500Y-117981395D01*
X220231505Y-117981401D01*
X220398599Y-118148495D01*
X220495384Y-118216265D01*
X220592165Y-118284032D01*
X220592167Y-118284033D01*
X220592170Y-118284035D01*
X220806337Y-118383903D01*
X221034592Y-118445063D01*
X221211034Y-118460500D01*
X221269999Y-118465659D01*
X221270000Y-118465659D01*
X221270001Y-118465659D01*
X221328966Y-118460500D01*
X221505408Y-118445063D01*
X221733663Y-118383903D01*
X221947830Y-118284035D01*
X222141401Y-118148495D01*
X222308495Y-117981401D01*
X222438425Y-117795842D01*
X222493002Y-117752217D01*
X222562500Y-117745023D01*
X222624855Y-117776546D01*
X222641575Y-117795842D01*
X222771500Y-117981395D01*
X222771505Y-117981401D01*
X222938599Y-118148495D01*
X223035384Y-118216265D01*
X223132165Y-118284032D01*
X223132167Y-118284033D01*
X223132170Y-118284035D01*
X223346337Y-118383903D01*
X223574592Y-118445063D01*
X223751034Y-118460500D01*
X223809999Y-118465659D01*
X223810000Y-118465659D01*
X223810001Y-118465659D01*
X223868966Y-118460500D01*
X224045408Y-118445063D01*
X224273663Y-118383903D01*
X224487830Y-118284035D01*
X224681401Y-118148495D01*
X224803329Y-118026566D01*
X224864648Y-117993084D01*
X224934340Y-117998068D01*
X224990274Y-118039939D01*
X225007189Y-118070917D01*
X225056202Y-118202328D01*
X225056206Y-118202335D01*
X225142452Y-118317544D01*
X225142455Y-118317547D01*
X225257664Y-118403793D01*
X225257671Y-118403797D01*
X225392517Y-118454091D01*
X225392516Y-118454091D01*
X225399444Y-118454835D01*
X225452127Y-118460500D01*
X227247872Y-118460499D01*
X227307483Y-118454091D01*
X227442331Y-118403796D01*
X227557546Y-118317546D01*
X227643796Y-118202331D01*
X227692810Y-118070916D01*
X227734681Y-118014984D01*
X227800145Y-117990566D01*
X227868418Y-118005417D01*
X227896673Y-118026569D01*
X228018599Y-118148495D01*
X228115384Y-118216265D01*
X228212165Y-118284032D01*
X228212167Y-118284033D01*
X228212170Y-118284035D01*
X228426337Y-118383903D01*
X228654592Y-118445063D01*
X228831034Y-118460500D01*
X228889999Y-118465659D01*
X228890000Y-118465659D01*
X228890001Y-118465659D01*
X228948966Y-118460500D01*
X229125408Y-118445063D01*
X229353663Y-118383903D01*
X229567830Y-118284035D01*
X229761401Y-118148495D01*
X229928495Y-117981401D01*
X230058425Y-117795842D01*
X230113002Y-117752217D01*
X230182500Y-117745023D01*
X230244855Y-117776546D01*
X230261575Y-117795842D01*
X230391500Y-117981395D01*
X230391505Y-117981401D01*
X230558599Y-118148495D01*
X230655384Y-118216265D01*
X230752165Y-118284032D01*
X230752167Y-118284033D01*
X230752170Y-118284035D01*
X230966337Y-118383903D01*
X231194592Y-118445063D01*
X231371034Y-118460500D01*
X231429999Y-118465659D01*
X231430000Y-118465659D01*
X231430001Y-118465659D01*
X231488966Y-118460500D01*
X231665408Y-118445063D01*
X231893663Y-118383903D01*
X232107830Y-118284035D01*
X232301401Y-118148495D01*
X232468495Y-117981401D01*
X232598425Y-117795842D01*
X232653002Y-117752217D01*
X232722500Y-117745023D01*
X232784855Y-117776546D01*
X232801575Y-117795842D01*
X232931500Y-117981395D01*
X232931505Y-117981401D01*
X233098599Y-118148495D01*
X233195384Y-118216265D01*
X233292165Y-118284032D01*
X233292167Y-118284033D01*
X233292170Y-118284035D01*
X233506337Y-118383903D01*
X233734592Y-118445063D01*
X233911034Y-118460500D01*
X233969999Y-118465659D01*
X233970000Y-118465659D01*
X233970001Y-118465659D01*
X234028966Y-118460500D01*
X234205408Y-118445063D01*
X234433663Y-118383903D01*
X234647830Y-118284035D01*
X234841401Y-118148495D01*
X235008495Y-117981401D01*
X235138425Y-117795842D01*
X235193002Y-117752217D01*
X235262500Y-117745023D01*
X235324855Y-117776546D01*
X235341575Y-117795842D01*
X235471500Y-117981395D01*
X235471505Y-117981401D01*
X235638599Y-118148495D01*
X235735384Y-118216265D01*
X235832165Y-118284032D01*
X235832167Y-118284033D01*
X235832170Y-118284035D01*
X236046337Y-118383903D01*
X236274592Y-118445063D01*
X236451034Y-118460500D01*
X236509999Y-118465659D01*
X236510000Y-118465659D01*
X236510001Y-118465659D01*
X236568966Y-118460500D01*
X236745408Y-118445063D01*
X236973663Y-118383903D01*
X237187830Y-118284035D01*
X237381401Y-118148495D01*
X237503329Y-118026566D01*
X237564648Y-117993084D01*
X237634340Y-117998068D01*
X237690274Y-118039939D01*
X237707189Y-118070917D01*
X237756202Y-118202328D01*
X237756206Y-118202335D01*
X237842452Y-118317544D01*
X237842455Y-118317547D01*
X237957664Y-118403793D01*
X237957671Y-118403797D01*
X238092517Y-118454091D01*
X238092516Y-118454091D01*
X238099444Y-118454835D01*
X238152127Y-118460500D01*
X239947872Y-118460499D01*
X240007483Y-118454091D01*
X240142331Y-118403796D01*
X240257546Y-118317546D01*
X240343796Y-118202331D01*
X240392810Y-118070916D01*
X240434681Y-118014984D01*
X240500145Y-117990566D01*
X240568418Y-118005417D01*
X240596673Y-118026569D01*
X240718599Y-118148495D01*
X240815384Y-118216265D01*
X240912165Y-118284032D01*
X240912167Y-118284033D01*
X240912170Y-118284035D01*
X241126337Y-118383903D01*
X241354592Y-118445063D01*
X241531034Y-118460500D01*
X241589999Y-118465659D01*
X241590000Y-118465659D01*
X241590001Y-118465659D01*
X241648966Y-118460500D01*
X241825408Y-118445063D01*
X242053663Y-118383903D01*
X242267830Y-118284035D01*
X242461401Y-118148495D01*
X242628495Y-117981401D01*
X242758425Y-117795842D01*
X242813002Y-117752217D01*
X242882500Y-117745023D01*
X242944855Y-117776546D01*
X242961575Y-117795842D01*
X243091500Y-117981395D01*
X243091505Y-117981401D01*
X243258599Y-118148495D01*
X243355384Y-118216265D01*
X243452165Y-118284032D01*
X243452167Y-118284033D01*
X243452170Y-118284035D01*
X243666337Y-118383903D01*
X243894592Y-118445063D01*
X244071034Y-118460500D01*
X244129999Y-118465659D01*
X244130000Y-118465659D01*
X244130001Y-118465659D01*
X244188966Y-118460500D01*
X244365408Y-118445063D01*
X244593663Y-118383903D01*
X244807830Y-118284035D01*
X245001401Y-118148495D01*
X245168495Y-117981401D01*
X245304035Y-117787830D01*
X245403903Y-117573663D01*
X245465063Y-117345408D01*
X245485659Y-117110000D01*
X245465063Y-116874592D01*
X245412901Y-116679920D01*
X245403905Y-116646344D01*
X245403904Y-116646343D01*
X245403903Y-116646337D01*
X245304035Y-116432171D01*
X245298425Y-116424158D01*
X245168494Y-116238597D01*
X245001402Y-116071506D01*
X245001395Y-116071501D01*
X244981662Y-116057684D01*
X244924518Y-116017671D01*
X244807834Y-115935967D01*
X244807830Y-115935965D01*
X244775682Y-115920974D01*
X244593663Y-115836097D01*
X244593659Y-115836096D01*
X244593655Y-115836094D01*
X244365413Y-115774938D01*
X244365403Y-115774936D01*
X244130001Y-115754341D01*
X244129999Y-115754341D01*
X243894596Y-115774936D01*
X243894586Y-115774938D01*
X243666344Y-115836094D01*
X243666335Y-115836098D01*
X243452171Y-115935964D01*
X243452169Y-115935965D01*
X243258597Y-116071505D01*
X243091505Y-116238597D01*
X242961575Y-116424158D01*
X242906998Y-116467783D01*
X242837500Y-116474977D01*
X242775145Y-116443454D01*
X242758425Y-116424158D01*
X242628494Y-116238597D01*
X242461402Y-116071506D01*
X242461395Y-116071501D01*
X242441662Y-116057684D01*
X242384518Y-116017671D01*
X242267834Y-115935967D01*
X242267830Y-115935965D01*
X242235682Y-115920974D01*
X242053663Y-115836097D01*
X242053659Y-115836096D01*
X242053655Y-115836094D01*
X241825413Y-115774938D01*
X241825403Y-115774936D01*
X241590001Y-115754341D01*
X241589999Y-115754341D01*
X241354596Y-115774936D01*
X241354586Y-115774938D01*
X241126344Y-115836094D01*
X241126335Y-115836098D01*
X240912171Y-115935964D01*
X240912169Y-115935965D01*
X240718600Y-116071503D01*
X240596673Y-116193430D01*
X240535350Y-116226914D01*
X240465658Y-116221930D01*
X240409725Y-116180058D01*
X240392810Y-116149081D01*
X240343797Y-116017671D01*
X240343793Y-116017664D01*
X240257547Y-115902455D01*
X240257544Y-115902452D01*
X240142335Y-115816206D01*
X240142328Y-115816202D01*
X240007482Y-115765908D01*
X240007483Y-115765908D01*
X239947883Y-115759501D01*
X239947881Y-115759500D01*
X239947873Y-115759500D01*
X239947864Y-115759500D01*
X238152129Y-115759500D01*
X238152123Y-115759501D01*
X238092516Y-115765908D01*
X237957671Y-115816202D01*
X237957664Y-115816206D01*
X237842455Y-115902452D01*
X237842452Y-115902455D01*
X237756206Y-116017664D01*
X237756203Y-116017669D01*
X237707189Y-116149083D01*
X237665317Y-116205016D01*
X237599853Y-116229433D01*
X237531580Y-116214581D01*
X237503326Y-116193430D01*
X237381402Y-116071506D01*
X237381395Y-116071501D01*
X237361662Y-116057684D01*
X237304518Y-116017671D01*
X237187834Y-115935967D01*
X237187830Y-115935965D01*
X237155682Y-115920974D01*
X236973663Y-115836097D01*
X236973659Y-115836096D01*
X236973655Y-115836094D01*
X236745413Y-115774938D01*
X236745403Y-115774936D01*
X236510001Y-115754341D01*
X236509999Y-115754341D01*
X236274596Y-115774936D01*
X236274586Y-115774938D01*
X236046344Y-115836094D01*
X236046335Y-115836098D01*
X235832171Y-115935964D01*
X235832169Y-115935965D01*
X235638597Y-116071505D01*
X235471505Y-116238597D01*
X235341575Y-116424158D01*
X235286998Y-116467783D01*
X235217500Y-116474977D01*
X235155145Y-116443454D01*
X235138425Y-116424158D01*
X235008494Y-116238597D01*
X234841402Y-116071506D01*
X234841395Y-116071501D01*
X234821662Y-116057684D01*
X234764518Y-116017671D01*
X234647834Y-115935967D01*
X234647830Y-115935965D01*
X234615682Y-115920974D01*
X234433663Y-115836097D01*
X234433659Y-115836096D01*
X234433655Y-115836094D01*
X234205413Y-115774938D01*
X234205403Y-115774936D01*
X233970001Y-115754341D01*
X233969999Y-115754341D01*
X233734596Y-115774936D01*
X233734586Y-115774938D01*
X233506344Y-115836094D01*
X233506335Y-115836098D01*
X233292171Y-115935964D01*
X233292169Y-115935965D01*
X233098597Y-116071505D01*
X232931505Y-116238597D01*
X232801575Y-116424158D01*
X232746998Y-116467783D01*
X232677500Y-116474977D01*
X232615145Y-116443454D01*
X232598425Y-116424158D01*
X232468494Y-116238597D01*
X232301402Y-116071506D01*
X232301395Y-116071501D01*
X232281662Y-116057684D01*
X232224518Y-116017671D01*
X232107834Y-115935967D01*
X232107830Y-115935965D01*
X232075682Y-115920974D01*
X231893663Y-115836097D01*
X231893659Y-115836096D01*
X231893655Y-115836094D01*
X231665413Y-115774938D01*
X231665403Y-115774936D01*
X231430001Y-115754341D01*
X231429999Y-115754341D01*
X231194596Y-115774936D01*
X231194586Y-115774938D01*
X230966344Y-115836094D01*
X230966335Y-115836098D01*
X230752171Y-115935964D01*
X230752169Y-115935965D01*
X230558597Y-116071505D01*
X230391505Y-116238597D01*
X230261575Y-116424158D01*
X230206998Y-116467783D01*
X230137500Y-116474977D01*
X230075145Y-116443454D01*
X230058425Y-116424158D01*
X229928494Y-116238597D01*
X229761402Y-116071506D01*
X229761395Y-116071501D01*
X229741662Y-116057684D01*
X229684518Y-116017671D01*
X229567834Y-115935967D01*
X229567830Y-115935965D01*
X229535682Y-115920974D01*
X229353663Y-115836097D01*
X229353659Y-115836096D01*
X229353655Y-115836094D01*
X229125413Y-115774938D01*
X229125403Y-115774936D01*
X228890001Y-115754341D01*
X228889999Y-115754341D01*
X228654596Y-115774936D01*
X228654586Y-115774938D01*
X228426344Y-115836094D01*
X228426335Y-115836098D01*
X228212171Y-115935964D01*
X228212169Y-115935965D01*
X228018600Y-116071503D01*
X227896673Y-116193430D01*
X227835350Y-116226914D01*
X227765658Y-116221930D01*
X227709725Y-116180058D01*
X227692810Y-116149081D01*
X227643797Y-116017671D01*
X227643793Y-116017664D01*
X227557547Y-115902455D01*
X227557544Y-115902452D01*
X227442335Y-115816206D01*
X227442328Y-115816202D01*
X227307482Y-115765908D01*
X227307483Y-115765908D01*
X227247883Y-115759501D01*
X227247881Y-115759500D01*
X227247873Y-115759500D01*
X227247864Y-115759500D01*
X225452129Y-115759500D01*
X225452123Y-115759501D01*
X225392516Y-115765908D01*
X225257671Y-115816202D01*
X225257664Y-115816206D01*
X225142455Y-115902452D01*
X225142452Y-115902455D01*
X225056206Y-116017664D01*
X225056203Y-116017669D01*
X225007189Y-116149083D01*
X224965317Y-116205016D01*
X224899853Y-116229433D01*
X224831580Y-116214581D01*
X224803326Y-116193430D01*
X224681402Y-116071506D01*
X224681395Y-116071501D01*
X224661662Y-116057684D01*
X224604518Y-116017671D01*
X224487834Y-115935967D01*
X224487830Y-115935965D01*
X224455682Y-115920974D01*
X224273663Y-115836097D01*
X224273659Y-115836096D01*
X224273655Y-115836094D01*
X224045413Y-115774938D01*
X224045403Y-115774936D01*
X223810001Y-115754341D01*
X223809999Y-115754341D01*
X223574596Y-115774936D01*
X223574586Y-115774938D01*
X223346344Y-115836094D01*
X223346335Y-115836098D01*
X223132171Y-115935964D01*
X223132169Y-115935965D01*
X222938597Y-116071505D01*
X222771505Y-116238597D01*
X222641575Y-116424158D01*
X222586998Y-116467783D01*
X222517500Y-116474977D01*
X222455145Y-116443454D01*
X222438425Y-116424158D01*
X222308494Y-116238597D01*
X222141402Y-116071506D01*
X222141395Y-116071501D01*
X222121662Y-116057684D01*
X222064518Y-116017671D01*
X221947834Y-115935967D01*
X221947830Y-115935965D01*
X221915682Y-115920974D01*
X221733663Y-115836097D01*
X221733659Y-115836096D01*
X221733655Y-115836094D01*
X221505413Y-115774938D01*
X221505403Y-115774936D01*
X221270001Y-115754341D01*
X221269999Y-115754341D01*
X221034596Y-115774936D01*
X221034586Y-115774938D01*
X220806344Y-115836094D01*
X220806335Y-115836098D01*
X220592171Y-115935964D01*
X220592169Y-115935965D01*
X220398597Y-116071505D01*
X220231505Y-116238597D01*
X220101575Y-116424158D01*
X220046998Y-116467783D01*
X219977500Y-116474977D01*
X219915145Y-116443454D01*
X219898425Y-116424158D01*
X219768494Y-116238597D01*
X219601402Y-116071506D01*
X219601395Y-116071501D01*
X219581662Y-116057684D01*
X219524518Y-116017671D01*
X219407834Y-115935967D01*
X219407830Y-115935965D01*
X219375682Y-115920974D01*
X219193663Y-115836097D01*
X219193659Y-115836096D01*
X219193655Y-115836094D01*
X218965413Y-115774938D01*
X218965403Y-115774936D01*
X218730001Y-115754341D01*
X218729999Y-115754341D01*
X218494596Y-115774936D01*
X218494586Y-115774938D01*
X218266344Y-115836094D01*
X218266335Y-115836098D01*
X218052171Y-115935964D01*
X218052169Y-115935965D01*
X217858597Y-116071505D01*
X217691505Y-116238597D01*
X217561575Y-116424158D01*
X217506998Y-116467783D01*
X217437500Y-116474977D01*
X217375145Y-116443454D01*
X217358425Y-116424158D01*
X217228494Y-116238597D01*
X217061402Y-116071506D01*
X217061395Y-116071501D01*
X217041662Y-116057684D01*
X216984518Y-116017671D01*
X216867834Y-115935967D01*
X216867830Y-115935965D01*
X216835682Y-115920974D01*
X216653663Y-115836097D01*
X216653659Y-115836096D01*
X216653655Y-115836094D01*
X216425413Y-115774938D01*
X216425403Y-115774936D01*
X216190001Y-115754341D01*
X216189999Y-115754341D01*
X215954596Y-115774936D01*
X215954586Y-115774938D01*
X215826243Y-115809327D01*
X215756393Y-115807664D01*
X215706469Y-115777233D01*
X201067590Y-101138355D01*
X201067588Y-101138352D01*
X200948717Y-101019481D01*
X200948716Y-101019480D01*
X200861904Y-100969360D01*
X200861904Y-100969359D01*
X200861900Y-100969358D01*
X200811785Y-100940423D01*
X200659057Y-100899499D01*
X200500943Y-100899499D01*
X200493347Y-100899499D01*
X200493331Y-100899500D01*
X176228846Y-100899500D01*
X176161807Y-100879815D01*
X176116052Y-100827011D01*
X176114285Y-100822952D01*
X176073349Y-100724123D01*
X176073346Y-100724117D01*
X176073344Y-100724112D01*
X175958611Y-100525388D01*
X175958608Y-100525385D01*
X175958607Y-100525382D01*
X175818918Y-100343338D01*
X175818911Y-100343330D01*
X175656670Y-100181089D01*
X175656661Y-100181081D01*
X175474617Y-100041392D01*
X175275890Y-99926657D01*
X175275876Y-99926650D01*
X175063887Y-99838842D01*
X174842238Y-99779452D01*
X174804215Y-99774446D01*
X174614741Y-99749500D01*
X174614734Y-99749500D01*
X173885266Y-99749500D01*
X173885258Y-99749500D01*
X173668715Y-99778009D01*
X173657762Y-99779452D01*
X173564076Y-99804554D01*
X173436112Y-99838842D01*
X173224123Y-99926650D01*
X173224109Y-99926657D01*
X173025382Y-100041392D01*
X172843338Y-100181081D01*
X172681081Y-100343338D01*
X172541392Y-100525382D01*
X172426657Y-100724109D01*
X172426650Y-100724123D01*
X172385715Y-100822952D01*
X172341875Y-100877356D01*
X172275580Y-100899421D01*
X172271154Y-100899500D01*
X163728846Y-100899500D01*
X163661807Y-100879815D01*
X163616052Y-100827011D01*
X163614285Y-100822952D01*
X163573349Y-100724123D01*
X163573346Y-100724117D01*
X163573344Y-100724112D01*
X163458611Y-100525388D01*
X163458608Y-100525385D01*
X163458607Y-100525382D01*
X163318918Y-100343338D01*
X163318911Y-100343330D01*
X163156670Y-100181089D01*
X163156661Y-100181081D01*
X162974617Y-100041392D01*
X162775890Y-99926657D01*
X162775876Y-99926650D01*
X162563887Y-99838842D01*
X162342238Y-99779452D01*
X162304215Y-99774446D01*
X162114741Y-99749500D01*
X162114734Y-99749500D01*
X161385266Y-99749500D01*
X161385258Y-99749500D01*
X161168715Y-99778009D01*
X161157762Y-99779452D01*
X161064076Y-99804554D01*
X160936112Y-99838842D01*
X160724123Y-99926650D01*
X160724109Y-99926657D01*
X160525382Y-100041392D01*
X160343338Y-100181081D01*
X160181081Y-100343338D01*
X160041392Y-100525382D01*
X159926657Y-100724109D01*
X159926650Y-100724123D01*
X159838842Y-100936112D01*
X159779453Y-101157759D01*
X159779451Y-101157770D01*
X159749500Y-101385258D01*
X142500500Y-101385258D01*
X142500500Y-83385258D01*
X142749500Y-83385258D01*
X142749500Y-83614741D01*
X142774446Y-83804215D01*
X142779452Y-83842238D01*
X142838842Y-84063887D01*
X142926650Y-84275876D01*
X142926654Y-84275884D01*
X142926656Y-84275888D01*
X143041389Y-84474612D01*
X143041392Y-84474617D01*
X143181081Y-84656661D01*
X143181089Y-84656670D01*
X143343330Y-84818911D01*
X143343338Y-84818918D01*
X143343339Y-84818919D01*
X143353215Y-84826497D01*
X143525382Y-84958607D01*
X143525385Y-84958608D01*
X143525388Y-84958611D01*
X143724112Y-85073344D01*
X143724117Y-85073346D01*
X143724123Y-85073349D01*
X143779426Y-85096256D01*
X143936113Y-85161158D01*
X144157762Y-85220548D01*
X144385266Y-85250500D01*
X144385273Y-85250500D01*
X145114727Y-85250500D01*
X145114734Y-85250500D01*
X145342238Y-85220548D01*
X145563887Y-85161158D01*
X145720574Y-85096256D01*
X145778048Y-85072450D01*
X145847517Y-85064981D01*
X145909996Y-85096256D01*
X145945648Y-85156345D01*
X145949500Y-85187011D01*
X145949500Y-85813330D01*
X145949499Y-85813348D01*
X145949499Y-85989046D01*
X145949500Y-85989059D01*
X145949500Y-86399902D01*
X145929815Y-86466941D01*
X145913181Y-86487583D01*
X145612960Y-86787803D01*
X145551637Y-86821288D01*
X145493186Y-86819897D01*
X145342248Y-86779454D01*
X145342241Y-86779452D01*
X145342238Y-86779452D01*
X145291681Y-86772796D01*
X145114741Y-86749500D01*
X145114734Y-86749500D01*
X144385266Y-86749500D01*
X144385258Y-86749500D01*
X144168715Y-86778009D01*
X144157762Y-86779452D01*
X144068196Y-86803451D01*
X143936112Y-86838842D01*
X143724123Y-86926650D01*
X143724109Y-86926657D01*
X143525382Y-87041392D01*
X143343338Y-87181081D01*
X143181081Y-87343338D01*
X143041392Y-87525382D01*
X142926657Y-87724109D01*
X142926650Y-87724123D01*
X142838842Y-87936112D01*
X142779453Y-88157759D01*
X142779451Y-88157770D01*
X142749500Y-88385258D01*
X142749500Y-88614741D01*
X142771249Y-88779929D01*
X142779452Y-88842238D01*
X142786546Y-88868713D01*
X142838842Y-89063887D01*
X142926650Y-89275876D01*
X142926657Y-89275890D01*
X143041392Y-89474617D01*
X143181081Y-89656661D01*
X143181089Y-89656670D01*
X143343330Y-89818911D01*
X143343338Y-89818918D01*
X143525382Y-89958607D01*
X143525385Y-89958608D01*
X143525388Y-89958611D01*
X143724112Y-90073344D01*
X143724117Y-90073346D01*
X143724123Y-90073349D01*
X143782514Y-90097535D01*
X143936113Y-90161158D01*
X144157762Y-90220548D01*
X144385266Y-90250500D01*
X144385273Y-90250500D01*
X145114727Y-90250500D01*
X145114734Y-90250500D01*
X145342238Y-90220548D01*
X145563887Y-90161158D01*
X145775888Y-90073344D01*
X145974612Y-89958611D01*
X146156661Y-89818919D01*
X146156665Y-89818914D01*
X146156670Y-89818911D01*
X146318911Y-89656670D01*
X146318914Y-89656665D01*
X146318919Y-89656661D01*
X146458611Y-89474612D01*
X146573344Y-89275888D01*
X146661158Y-89063887D01*
X146720548Y-88842238D01*
X146750500Y-88614734D01*
X146750500Y-88385266D01*
X146720548Y-88157762D01*
X146661158Y-87936113D01*
X146576892Y-87732677D01*
X146573349Y-87724123D01*
X146573340Y-87724104D01*
X146552390Y-87687819D01*
X146548363Y-87680844D01*
X146531890Y-87612946D01*
X146554742Y-87546919D01*
X146568063Y-87531170D01*
X146862320Y-87236913D01*
X146923641Y-87203430D01*
X146993333Y-87208414D01*
X147037680Y-87236915D01*
X148665139Y-88864374D01*
X148665149Y-88864385D01*
X148669479Y-88868715D01*
X148669480Y-88868716D01*
X148781284Y-88980520D01*
X148815029Y-89000002D01*
X148868095Y-89030639D01*
X148868097Y-89030641D01*
X148918213Y-89059576D01*
X148918215Y-89059577D01*
X149070942Y-89100500D01*
X149070943Y-89100500D01*
X155271154Y-89100500D01*
X155338193Y-89120185D01*
X155383948Y-89172989D01*
X155385715Y-89177048D01*
X155426650Y-89275876D01*
X155426657Y-89275890D01*
X155541392Y-89474617D01*
X155681081Y-89656661D01*
X155681089Y-89656670D01*
X155843330Y-89818911D01*
X155843338Y-89818918D01*
X156025382Y-89958607D01*
X156025385Y-89958608D01*
X156025388Y-89958611D01*
X156224112Y-90073344D01*
X156224117Y-90073346D01*
X156224123Y-90073349D01*
X156282514Y-90097535D01*
X156436113Y-90161158D01*
X156657762Y-90220548D01*
X156885266Y-90250500D01*
X156885273Y-90250500D01*
X157614727Y-90250500D01*
X157614734Y-90250500D01*
X157842238Y-90220548D01*
X158063887Y-90161158D01*
X158275888Y-90073344D01*
X158474612Y-89958611D01*
X158656661Y-89818919D01*
X158656665Y-89818914D01*
X158656670Y-89818911D01*
X158818911Y-89656670D01*
X158818914Y-89656665D01*
X158818919Y-89656661D01*
X158958611Y-89474612D01*
X159073344Y-89275888D01*
X159161158Y-89063887D01*
X159220548Y-88842238D01*
X159250500Y-88614734D01*
X159250500Y-88385266D01*
X159220548Y-88157762D01*
X159161158Y-87936113D01*
X159076892Y-87732677D01*
X159073349Y-87724123D01*
X159073346Y-87724117D01*
X159073344Y-87724112D01*
X158958611Y-87525388D01*
X158958608Y-87525385D01*
X158958607Y-87525382D01*
X158818918Y-87343338D01*
X158818911Y-87343330D01*
X158656670Y-87181089D01*
X158656661Y-87181081D01*
X158474617Y-87041392D01*
X158275890Y-86926657D01*
X158275876Y-86926650D01*
X158063887Y-86838842D01*
X158062334Y-86838426D01*
X157842238Y-86779452D01*
X157804215Y-86774446D01*
X157614741Y-86749500D01*
X157614734Y-86749500D01*
X156885266Y-86749500D01*
X156885258Y-86749500D01*
X156668715Y-86778009D01*
X156657762Y-86779452D01*
X156568196Y-86803451D01*
X156436112Y-86838842D01*
X156224123Y-86926650D01*
X156224109Y-86926657D01*
X156025382Y-87041392D01*
X155843338Y-87181081D01*
X155681081Y-87343338D01*
X155555058Y-87507573D01*
X155498630Y-87548776D01*
X155428884Y-87552930D01*
X155369002Y-87519767D01*
X151636819Y-83787584D01*
X151603334Y-83726261D01*
X151600500Y-83699903D01*
X151600500Y-83385258D01*
X155249500Y-83385258D01*
X155249500Y-83614741D01*
X155274446Y-83804215D01*
X155279452Y-83842238D01*
X155338842Y-84063887D01*
X155426650Y-84275876D01*
X155426654Y-84275884D01*
X155426656Y-84275888D01*
X155541389Y-84474612D01*
X155541392Y-84474617D01*
X155681081Y-84656661D01*
X155681089Y-84656670D01*
X155843330Y-84818911D01*
X155843338Y-84818918D01*
X155843339Y-84818919D01*
X155853215Y-84826497D01*
X156025382Y-84958607D01*
X156025385Y-84958608D01*
X156025388Y-84958611D01*
X156224112Y-85073344D01*
X156224117Y-85073346D01*
X156224123Y-85073349D01*
X156279426Y-85096256D01*
X156436113Y-85161158D01*
X156657762Y-85220548D01*
X156885266Y-85250500D01*
X156885273Y-85250500D01*
X157614727Y-85250500D01*
X157614734Y-85250500D01*
X157842238Y-85220548D01*
X158063887Y-85161158D01*
X158275888Y-85073344D01*
X158474612Y-84958611D01*
X158656661Y-84818919D01*
X158656665Y-84818914D01*
X158656670Y-84818911D01*
X158818911Y-84656670D01*
X158818914Y-84656665D01*
X158818919Y-84656661D01*
X158958611Y-84474612D01*
X159073344Y-84275888D01*
X159161158Y-84063887D01*
X159220548Y-83842238D01*
X159250500Y-83614734D01*
X159250500Y-83385266D01*
X159220548Y-83157762D01*
X159161158Y-82936113D01*
X159096417Y-82779815D01*
X159073349Y-82724123D01*
X159073346Y-82724117D01*
X159073344Y-82724112D01*
X158958611Y-82525388D01*
X158958608Y-82525385D01*
X158958607Y-82525382D01*
X158818918Y-82343338D01*
X158818911Y-82343330D01*
X158656670Y-82181089D01*
X158656661Y-82181081D01*
X158572446Y-82116460D01*
X158531244Y-82060032D01*
X158527089Y-81990286D01*
X158560252Y-81930404D01*
X159644111Y-80846546D01*
X159644112Y-80846545D01*
X159644112Y-80846544D01*
X159644114Y-80846543D01*
X159720775Y-80731811D01*
X159773580Y-80604328D01*
X159800500Y-80468994D01*
X159800500Y-80331006D01*
X159800500Y-76325443D01*
X159820185Y-76258404D01*
X159872989Y-76212649D01*
X159942147Y-76202705D01*
X160005703Y-76231730D01*
X160012181Y-76237762D01*
X160093330Y-76318911D01*
X160093338Y-76318918D01*
X160275382Y-76458607D01*
X160275385Y-76458608D01*
X160275388Y-76458611D01*
X160474112Y-76573344D01*
X160474117Y-76573346D01*
X160474123Y-76573349D01*
X160565480Y-76611190D01*
X160686113Y-76661158D01*
X160907762Y-76720548D01*
X161135266Y-76750500D01*
X161135273Y-76750500D01*
X161864727Y-76750500D01*
X161864734Y-76750500D01*
X162092238Y-76720548D01*
X162313887Y-76661158D01*
X162525888Y-76573344D01*
X162724612Y-76458611D01*
X162906661Y-76318919D01*
X162906665Y-76318914D01*
X162906670Y-76318911D01*
X163068911Y-76156670D01*
X163068914Y-76156665D01*
X163068919Y-76156661D01*
X163208611Y-75974612D01*
X163323344Y-75775888D01*
X163363095Y-75679920D01*
X163364285Y-75677048D01*
X163408125Y-75622644D01*
X163474420Y-75600579D01*
X163478846Y-75600500D01*
X172021154Y-75600500D01*
X172088193Y-75620185D01*
X172133948Y-75672989D01*
X172135715Y-75677048D01*
X172176650Y-75775876D01*
X172176657Y-75775890D01*
X172291392Y-75974617D01*
X172431081Y-76156661D01*
X172431089Y-76156670D01*
X172593330Y-76318911D01*
X172593338Y-76318918D01*
X172775382Y-76458607D01*
X172775385Y-76458608D01*
X172775388Y-76458611D01*
X172974112Y-76573344D01*
X172974117Y-76573346D01*
X172974123Y-76573349D01*
X173065480Y-76611190D01*
X173186113Y-76661158D01*
X173407762Y-76720548D01*
X173635266Y-76750500D01*
X173635273Y-76750500D01*
X174364727Y-76750500D01*
X174364734Y-76750500D01*
X174592238Y-76720548D01*
X174813887Y-76661158D01*
X175025888Y-76573344D01*
X175224612Y-76458611D01*
X175406661Y-76318919D01*
X175406665Y-76318914D01*
X175406670Y-76318911D01*
X175568911Y-76156670D01*
X175568914Y-76156665D01*
X175568919Y-76156661D01*
X175708611Y-75974612D01*
X175823344Y-75775888D01*
X175911158Y-75563887D01*
X175970548Y-75342238D01*
X176000500Y-75114734D01*
X176000500Y-74885266D01*
X175970548Y-74657762D01*
X175911158Y-74436113D01*
X175848827Y-74285633D01*
X175823349Y-74224123D01*
X175823346Y-74224117D01*
X175823344Y-74224112D01*
X175708611Y-74025388D01*
X175708608Y-74025385D01*
X175708607Y-74025382D01*
X175568918Y-73843338D01*
X175568911Y-73843330D01*
X175406670Y-73681089D01*
X175406661Y-73681081D01*
X175224617Y-73541392D01*
X175025890Y-73426657D01*
X175025876Y-73426650D01*
X174813887Y-73338842D01*
X174592238Y-73279452D01*
X174554215Y-73274446D01*
X174364741Y-73249500D01*
X174364734Y-73249500D01*
X173635266Y-73249500D01*
X173635258Y-73249500D01*
X173418715Y-73278009D01*
X173407762Y-73279452D01*
X173343518Y-73296666D01*
X173186112Y-73338842D01*
X172974123Y-73426650D01*
X172974109Y-73426657D01*
X172775382Y-73541392D01*
X172593338Y-73681081D01*
X172431081Y-73843338D01*
X172291392Y-74025382D01*
X172176657Y-74224109D01*
X172176650Y-74224123D01*
X172135715Y-74322952D01*
X172091875Y-74377356D01*
X172025580Y-74399421D01*
X172021154Y-74399500D01*
X163478846Y-74399500D01*
X163411807Y-74379815D01*
X163366052Y-74327011D01*
X163364285Y-74322952D01*
X163323349Y-74224123D01*
X163323346Y-74224117D01*
X163323344Y-74224112D01*
X163208611Y-74025388D01*
X163208608Y-74025385D01*
X163208607Y-74025382D01*
X163068918Y-73843338D01*
X163068911Y-73843330D01*
X162906670Y-73681089D01*
X162906661Y-73681081D01*
X162724617Y-73541392D01*
X162525890Y-73426657D01*
X162525876Y-73426650D01*
X162313887Y-73338842D01*
X162092238Y-73279452D01*
X162054215Y-73274446D01*
X161864741Y-73249500D01*
X161864734Y-73249500D01*
X161135266Y-73249500D01*
X161135258Y-73249500D01*
X160918715Y-73278009D01*
X160907762Y-73279452D01*
X160843518Y-73296666D01*
X160686112Y-73338842D01*
X160474123Y-73426650D01*
X160474109Y-73426657D01*
X160275382Y-73541392D01*
X160093338Y-73681081D01*
X160012181Y-73762238D01*
X159950858Y-73795723D01*
X159881166Y-73790739D01*
X159825233Y-73748867D01*
X159800816Y-73683403D01*
X159800500Y-73674557D01*
X159800500Y-72741518D01*
X159820185Y-72674479D01*
X159836815Y-72653841D01*
X160748576Y-71742079D01*
X160809897Y-71708596D01*
X160868348Y-71709987D01*
X160907762Y-71720548D01*
X161135266Y-71750500D01*
X161135273Y-71750500D01*
X161864727Y-71750500D01*
X161864734Y-71750500D01*
X162092238Y-71720548D01*
X162313887Y-71661158D01*
X162525888Y-71573344D01*
X162724612Y-71458611D01*
X162906661Y-71318919D01*
X162906665Y-71318914D01*
X162906670Y-71318911D01*
X163068911Y-71156670D01*
X163068914Y-71156665D01*
X163068919Y-71156661D01*
X163208611Y-70974612D01*
X163323344Y-70775888D01*
X163323349Y-70775875D01*
X163325142Y-70772242D01*
X163326284Y-70772805D01*
X163366697Y-70722649D01*
X163432990Y-70700579D01*
X163437425Y-70700500D01*
X172062575Y-70700500D01*
X172129614Y-70720185D01*
X172174762Y-70772289D01*
X172174858Y-70772242D01*
X172175038Y-70772607D01*
X172175369Y-70772989D01*
X172176444Y-70775458D01*
X172176657Y-70775890D01*
X172291392Y-70974617D01*
X172431081Y-71156661D01*
X172431089Y-71156670D01*
X172593330Y-71318911D01*
X172593338Y-71318918D01*
X172775382Y-71458607D01*
X172775385Y-71458608D01*
X172775388Y-71458611D01*
X172974112Y-71573344D01*
X172974117Y-71573346D01*
X172974123Y-71573349D01*
X173065480Y-71611190D01*
X173186113Y-71661158D01*
X173407762Y-71720548D01*
X173635266Y-71750500D01*
X173635273Y-71750500D01*
X174364727Y-71750500D01*
X174364734Y-71750500D01*
X174592238Y-71720548D01*
X174631651Y-71709987D01*
X174701499Y-71711650D01*
X174751424Y-71742081D01*
X177263181Y-74253838D01*
X177296666Y-74315161D01*
X177299500Y-74341519D01*
X177299500Y-81713311D01*
X177279815Y-81780350D01*
X177227011Y-81826105D01*
X177207596Y-81833085D01*
X177186116Y-81838840D01*
X176974118Y-81926653D01*
X176974109Y-81926657D01*
X176775382Y-82041392D01*
X176593338Y-82181081D01*
X176431081Y-82343338D01*
X176291392Y-82525382D01*
X176176657Y-82724109D01*
X176176650Y-82724123D01*
X176088842Y-82936112D01*
X176029453Y-83157759D01*
X176029451Y-83157770D01*
X175999500Y-83385258D01*
X175999500Y-83614741D01*
X176024446Y-83804215D01*
X176029452Y-83842238D01*
X176088842Y-84063887D01*
X176088842Y-84063888D01*
X176161584Y-84239504D01*
X176169053Y-84308973D01*
X176137777Y-84371452D01*
X176134704Y-84374637D01*
X173705890Y-86803451D01*
X173705884Y-86803458D01*
X173682243Y-86838841D01*
X173682243Y-86838842D01*
X173629228Y-86918183D01*
X173629221Y-86918195D01*
X173576421Y-87045667D01*
X173576418Y-87045677D01*
X173549500Y-87181004D01*
X173549500Y-94713311D01*
X173529815Y-94780350D01*
X173477011Y-94826105D01*
X173457596Y-94833085D01*
X173436116Y-94838840D01*
X173224118Y-94926653D01*
X173224109Y-94926657D01*
X173025382Y-95041392D01*
X172843338Y-95181081D01*
X172681081Y-95343338D01*
X172541392Y-95525382D01*
X172426657Y-95724109D01*
X172424858Y-95727758D01*
X172423715Y-95727194D01*
X172383303Y-95777351D01*
X172317010Y-95799421D01*
X172312575Y-95799500D01*
X163687425Y-95799500D01*
X163620386Y-95779815D01*
X163575237Y-95727710D01*
X163575142Y-95727758D01*
X163574961Y-95727392D01*
X163574631Y-95727011D01*
X163573555Y-95724541D01*
X163573346Y-95724118D01*
X163573344Y-95724112D01*
X163458611Y-95525388D01*
X163458608Y-95525385D01*
X163458607Y-95525382D01*
X163318918Y-95343338D01*
X163318911Y-95343330D01*
X163156670Y-95181089D01*
X163156661Y-95181081D01*
X162974617Y-95041392D01*
X162775890Y-94926657D01*
X162775876Y-94926650D01*
X162563887Y-94838842D01*
X162516351Y-94826105D01*
X162342238Y-94779452D01*
X162304215Y-94774446D01*
X162114741Y-94749500D01*
X162114734Y-94749500D01*
X161385266Y-94749500D01*
X161385258Y-94749500D01*
X161168715Y-94778009D01*
X161157762Y-94779452D01*
X161154411Y-94780350D01*
X160936112Y-94838842D01*
X160724123Y-94926650D01*
X160724109Y-94926657D01*
X160525382Y-95041392D01*
X160343338Y-95181081D01*
X160181081Y-95343338D01*
X160041392Y-95525382D01*
X159926657Y-95724109D01*
X159926650Y-95724123D01*
X159838842Y-95936112D01*
X159779453Y-96157759D01*
X159779451Y-96157770D01*
X159749500Y-96385258D01*
X159749500Y-96614741D01*
X159761681Y-96707259D01*
X159779452Y-96842238D01*
X159779453Y-96842240D01*
X159838842Y-97063887D01*
X159926650Y-97275876D01*
X159926657Y-97275890D01*
X160041392Y-97474617D01*
X160181081Y-97656661D01*
X160181089Y-97656670D01*
X160343330Y-97818911D01*
X160343338Y-97818918D01*
X160525382Y-97958607D01*
X160525385Y-97958608D01*
X160525388Y-97958611D01*
X160724112Y-98073344D01*
X160724117Y-98073346D01*
X160724123Y-98073349D01*
X160815480Y-98111190D01*
X160936113Y-98161158D01*
X161157762Y-98220548D01*
X161385266Y-98250500D01*
X161385273Y-98250500D01*
X162114727Y-98250500D01*
X162114734Y-98250500D01*
X162342238Y-98220548D01*
X162563887Y-98161158D01*
X162775888Y-98073344D01*
X162974612Y-97958611D01*
X163156661Y-97818919D01*
X163156665Y-97818914D01*
X163156670Y-97818911D01*
X163318911Y-97656670D01*
X163318914Y-97656665D01*
X163318919Y-97656661D01*
X163458611Y-97474612D01*
X163573344Y-97275888D01*
X163573349Y-97275875D01*
X163575142Y-97272242D01*
X163576284Y-97272805D01*
X163616697Y-97222649D01*
X163682990Y-97200579D01*
X163687425Y-97200500D01*
X172312575Y-97200500D01*
X172379614Y-97220185D01*
X172424762Y-97272289D01*
X172424858Y-97272242D01*
X172425038Y-97272607D01*
X172425369Y-97272989D01*
X172426444Y-97275458D01*
X172426657Y-97275890D01*
X172541392Y-97474617D01*
X172681081Y-97656661D01*
X172681089Y-97656670D01*
X172843330Y-97818911D01*
X172843338Y-97818918D01*
X173025382Y-97958607D01*
X173025385Y-97958608D01*
X173025388Y-97958611D01*
X173224112Y-98073344D01*
X173224117Y-98073346D01*
X173224123Y-98073349D01*
X173315480Y-98111190D01*
X173436113Y-98161158D01*
X173657762Y-98220548D01*
X173885266Y-98250500D01*
X173885273Y-98250500D01*
X174614727Y-98250500D01*
X174614734Y-98250500D01*
X174842238Y-98220548D01*
X175063887Y-98161158D01*
X175275888Y-98073344D01*
X175474612Y-97958611D01*
X175656661Y-97818919D01*
X175656665Y-97818914D01*
X175656670Y-97818911D01*
X175818911Y-97656670D01*
X175818914Y-97656665D01*
X175818919Y-97656661D01*
X175958611Y-97474612D01*
X176073344Y-97275888D01*
X176161158Y-97063887D01*
X176220548Y-96842238D01*
X176222159Y-96829999D01*
X195721127Y-96829999D01*
X195721128Y-96830000D01*
X196684314Y-96830000D01*
X196679920Y-96834394D01*
X196627259Y-96925606D01*
X196600000Y-97027339D01*
X196600000Y-97132661D01*
X196627259Y-97234394D01*
X196679920Y-97325606D01*
X196684314Y-97330000D01*
X195721128Y-97330000D01*
X195773730Y-97526317D01*
X195773734Y-97526326D01*
X195869865Y-97732482D01*
X196000342Y-97918820D01*
X196161179Y-98079657D01*
X196347517Y-98210134D01*
X196553673Y-98306265D01*
X196553682Y-98306269D01*
X196749999Y-98358872D01*
X196750000Y-98358871D01*
X196750000Y-97395686D01*
X196754394Y-97400080D01*
X196845606Y-97452741D01*
X196947339Y-97480000D01*
X197052661Y-97480000D01*
X197154394Y-97452741D01*
X197245606Y-97400080D01*
X197250000Y-97395686D01*
X197250000Y-98358872D01*
X197446317Y-98306269D01*
X197446326Y-98306265D01*
X197652482Y-98210134D01*
X197838820Y-98079657D01*
X197999657Y-97918820D01*
X198130134Y-97732482D01*
X198226265Y-97526326D01*
X198226269Y-97526317D01*
X198278872Y-97330000D01*
X197315686Y-97330000D01*
X197320080Y-97325606D01*
X197372741Y-97234394D01*
X197400000Y-97132661D01*
X197400000Y-97027339D01*
X197372741Y-96925606D01*
X197320080Y-96834394D01*
X197315686Y-96830000D01*
X198278872Y-96830000D01*
X198278872Y-96829999D01*
X198226269Y-96633682D01*
X198226265Y-96633673D01*
X198130134Y-96427517D01*
X197999657Y-96241179D01*
X197838820Y-96080342D01*
X197652482Y-95949865D01*
X197446328Y-95853734D01*
X197250000Y-95801127D01*
X197250000Y-96764314D01*
X197245606Y-96759920D01*
X197154394Y-96707259D01*
X197052661Y-96680000D01*
X196947339Y-96680000D01*
X196845606Y-96707259D01*
X196754394Y-96759920D01*
X196750000Y-96764314D01*
X196750000Y-95801127D01*
X196553671Y-95853734D01*
X196347517Y-95949865D01*
X196161179Y-96080342D01*
X196000342Y-96241179D01*
X195869865Y-96427517D01*
X195773734Y-96633673D01*
X195773730Y-96633682D01*
X195721127Y-96829999D01*
X176222159Y-96829999D01*
X176250500Y-96614734D01*
X176250500Y-96385266D01*
X176220548Y-96157762D01*
X176161158Y-95936113D01*
X176096417Y-95779815D01*
X176073349Y-95724123D01*
X176073346Y-95724117D01*
X176073344Y-95724112D01*
X175958611Y-95525388D01*
X175958608Y-95525385D01*
X175958607Y-95525382D01*
X175818918Y-95343338D01*
X175818911Y-95343330D01*
X175656670Y-95181089D01*
X175656661Y-95181081D01*
X175474617Y-95041392D01*
X175275890Y-94926657D01*
X175275881Y-94926653D01*
X175063883Y-94838840D01*
X175042404Y-94833085D01*
X174982744Y-94796719D01*
X174952216Y-94733871D01*
X174950500Y-94713311D01*
X174950500Y-90499997D01*
X201695034Y-90499997D01*
X201695034Y-90500002D01*
X201714858Y-90726599D01*
X201714860Y-90726610D01*
X201773730Y-90946317D01*
X201773735Y-90946331D01*
X201869863Y-91152478D01*
X201920974Y-91225472D01*
X202600000Y-90546446D01*
X202600000Y-90552661D01*
X202627259Y-90654394D01*
X202679920Y-90745606D01*
X202754394Y-90820080D01*
X202845606Y-90872741D01*
X202947339Y-90900000D01*
X202953553Y-90900000D01*
X202274526Y-91579025D01*
X202347513Y-91630132D01*
X202347521Y-91630136D01*
X202553668Y-91726264D01*
X202553682Y-91726269D01*
X202773389Y-91785139D01*
X202773400Y-91785141D01*
X202999998Y-91804966D01*
X203000002Y-91804966D01*
X203226599Y-91785141D01*
X203226610Y-91785139D01*
X203446317Y-91726269D01*
X203446331Y-91726264D01*
X203652478Y-91630136D01*
X203725471Y-91579024D01*
X203046447Y-90900000D01*
X203052661Y-90900000D01*
X203154394Y-90872741D01*
X203245606Y-90820080D01*
X203320080Y-90745606D01*
X203372741Y-90654394D01*
X203400000Y-90552661D01*
X203400000Y-90546447D01*
X204079024Y-91225471D01*
X204130136Y-91152478D01*
X204226264Y-90946331D01*
X204226269Y-90946317D01*
X204285139Y-90726610D01*
X204285141Y-90726599D01*
X204304966Y-90500002D01*
X204304966Y-90499997D01*
X204285141Y-90273400D01*
X204285139Y-90273389D01*
X204226269Y-90053682D01*
X204226264Y-90053668D01*
X204130136Y-89847521D01*
X204130132Y-89847513D01*
X204079025Y-89774526D01*
X203400000Y-90453551D01*
X203400000Y-90447339D01*
X203372741Y-90345606D01*
X203320080Y-90254394D01*
X203245606Y-90179920D01*
X203154394Y-90127259D01*
X203052661Y-90100000D01*
X203046445Y-90100000D01*
X203725472Y-89420974D01*
X203652478Y-89369863D01*
X203446331Y-89273735D01*
X203446317Y-89273730D01*
X203226610Y-89214860D01*
X203226599Y-89214858D01*
X203000002Y-89195034D01*
X202999998Y-89195034D01*
X202773400Y-89214858D01*
X202773389Y-89214860D01*
X202553682Y-89273730D01*
X202553673Y-89273734D01*
X202347516Y-89369866D01*
X202347512Y-89369868D01*
X202274526Y-89420973D01*
X202274526Y-89420974D01*
X202953553Y-90100000D01*
X202947339Y-90100000D01*
X202845606Y-90127259D01*
X202754394Y-90179920D01*
X202679920Y-90254394D01*
X202627259Y-90345606D01*
X202600000Y-90447339D01*
X202600000Y-90453552D01*
X201920974Y-89774526D01*
X201920973Y-89774526D01*
X201869868Y-89847512D01*
X201869866Y-89847516D01*
X201773734Y-90053673D01*
X201773730Y-90053682D01*
X201714860Y-90273389D01*
X201714858Y-90273400D01*
X201695034Y-90499997D01*
X174950500Y-90499997D01*
X174950500Y-88385258D01*
X175999500Y-88385258D01*
X175999500Y-88614741D01*
X176021249Y-88779929D01*
X176029452Y-88842238D01*
X176036546Y-88868713D01*
X176088842Y-89063887D01*
X176176650Y-89275876D01*
X176176657Y-89275890D01*
X176291392Y-89474617D01*
X176431081Y-89656661D01*
X176431089Y-89656670D01*
X176593330Y-89818911D01*
X176593338Y-89818918D01*
X176775382Y-89958607D01*
X176775385Y-89958608D01*
X176775388Y-89958611D01*
X176974112Y-90073344D01*
X176974117Y-90073346D01*
X176974123Y-90073349D01*
X177032514Y-90097535D01*
X177186113Y-90161158D01*
X177407762Y-90220548D01*
X177635266Y-90250500D01*
X177635273Y-90250500D01*
X178364727Y-90250500D01*
X178364734Y-90250500D01*
X178592238Y-90220548D01*
X178813887Y-90161158D01*
X179025888Y-90073344D01*
X179224612Y-89958611D01*
X179406661Y-89818919D01*
X179406665Y-89818914D01*
X179406670Y-89818911D01*
X179568911Y-89656670D01*
X179568914Y-89656665D01*
X179568919Y-89656661D01*
X179708611Y-89474612D01*
X179823344Y-89275888D01*
X179911158Y-89063887D01*
X179970548Y-88842238D01*
X180000500Y-88614734D01*
X180000500Y-88385266D01*
X180000499Y-88385258D01*
X188499500Y-88385258D01*
X188499500Y-88614741D01*
X188521249Y-88779929D01*
X188529452Y-88842238D01*
X188536546Y-88868713D01*
X188588842Y-89063887D01*
X188676650Y-89275876D01*
X188676657Y-89275890D01*
X188791392Y-89474617D01*
X188931081Y-89656661D01*
X188931089Y-89656670D01*
X189093330Y-89818911D01*
X189093338Y-89818918D01*
X189275382Y-89958607D01*
X189275385Y-89958608D01*
X189275388Y-89958611D01*
X189474112Y-90073344D01*
X189474117Y-90073346D01*
X189474123Y-90073349D01*
X189532514Y-90097535D01*
X189686113Y-90161158D01*
X189907762Y-90220548D01*
X190135266Y-90250500D01*
X190135273Y-90250500D01*
X190864727Y-90250500D01*
X190864734Y-90250500D01*
X191092238Y-90220548D01*
X191313887Y-90161158D01*
X191525888Y-90073344D01*
X191724612Y-89958611D01*
X191906661Y-89818919D01*
X191906665Y-89818914D01*
X191906670Y-89818911D01*
X192068911Y-89656670D01*
X192068914Y-89656665D01*
X192068919Y-89656661D01*
X192208611Y-89474612D01*
X192323344Y-89275888D01*
X192411158Y-89063887D01*
X192470548Y-88842238D01*
X192500500Y-88614734D01*
X192500500Y-88385266D01*
X192470548Y-88157762D01*
X192411158Y-87936113D01*
X192326892Y-87732677D01*
X192323349Y-87724123D01*
X192323346Y-87724117D01*
X192323344Y-87724112D01*
X192208611Y-87525388D01*
X192208608Y-87525385D01*
X192208607Y-87525382D01*
X192068918Y-87343338D01*
X192068911Y-87343330D01*
X191906670Y-87181089D01*
X191906661Y-87181081D01*
X191724617Y-87041392D01*
X191525890Y-86926657D01*
X191525876Y-86926650D01*
X191313887Y-86838842D01*
X191312334Y-86838426D01*
X191092238Y-86779452D01*
X191054215Y-86774446D01*
X190864741Y-86749500D01*
X190864734Y-86749500D01*
X190135266Y-86749500D01*
X190135258Y-86749500D01*
X189918715Y-86778009D01*
X189907762Y-86779452D01*
X189818196Y-86803451D01*
X189686112Y-86838842D01*
X189474123Y-86926650D01*
X189474109Y-86926657D01*
X189275382Y-87041392D01*
X189093338Y-87181081D01*
X188931081Y-87343338D01*
X188791392Y-87525382D01*
X188676657Y-87724109D01*
X188676650Y-87724123D01*
X188588842Y-87936112D01*
X188529453Y-88157759D01*
X188529451Y-88157770D01*
X188499500Y-88385258D01*
X180000499Y-88385258D01*
X179970548Y-88157762D01*
X179911158Y-87936113D01*
X179826892Y-87732677D01*
X179823349Y-87724123D01*
X179823346Y-87724117D01*
X179823344Y-87724112D01*
X179708611Y-87525388D01*
X179708608Y-87525385D01*
X179708607Y-87525382D01*
X179568918Y-87343338D01*
X179568911Y-87343330D01*
X179406670Y-87181089D01*
X179406661Y-87181081D01*
X179224617Y-87041392D01*
X179025890Y-86926657D01*
X179025876Y-86926650D01*
X178813887Y-86838842D01*
X178812334Y-86838426D01*
X178592238Y-86779452D01*
X178554215Y-86774446D01*
X178364741Y-86749500D01*
X178364734Y-86749500D01*
X177635266Y-86749500D01*
X177635258Y-86749500D01*
X177418715Y-86778009D01*
X177407762Y-86779452D01*
X177318196Y-86803451D01*
X177186112Y-86838842D01*
X176974123Y-86926650D01*
X176974109Y-86926657D01*
X176775382Y-87041392D01*
X176593338Y-87181081D01*
X176431081Y-87343338D01*
X176291392Y-87525382D01*
X176176657Y-87724109D01*
X176176650Y-87724123D01*
X176088842Y-87936112D01*
X176029453Y-88157759D01*
X176029451Y-88157770D01*
X175999500Y-88385258D01*
X174950500Y-88385258D01*
X174950500Y-87591518D01*
X174970185Y-87524479D01*
X174986814Y-87503842D01*
X177248576Y-85242079D01*
X177309897Y-85208596D01*
X177368348Y-85209987D01*
X177407762Y-85220548D01*
X177635266Y-85250500D01*
X177635273Y-85250500D01*
X178364727Y-85250500D01*
X178364734Y-85250500D01*
X178592238Y-85220548D01*
X178813887Y-85161158D01*
X179025888Y-85073344D01*
X179224612Y-84958611D01*
X179406661Y-84818919D01*
X179406665Y-84818914D01*
X179406670Y-84818911D01*
X179568911Y-84656670D01*
X179568914Y-84656665D01*
X179568919Y-84656661D01*
X179708611Y-84474612D01*
X179823344Y-84275888D01*
X179823349Y-84275876D01*
X179825142Y-84272242D01*
X179826284Y-84272805D01*
X179866697Y-84222649D01*
X179932990Y-84200579D01*
X179937425Y-84200500D01*
X188562575Y-84200500D01*
X188629614Y-84220185D01*
X188674762Y-84272289D01*
X188674858Y-84272242D01*
X188675038Y-84272607D01*
X188675369Y-84272989D01*
X188676444Y-84275458D01*
X188676651Y-84275876D01*
X188676656Y-84275888D01*
X188791389Y-84474612D01*
X188791392Y-84474617D01*
X188931081Y-84656661D01*
X188931089Y-84656670D01*
X189093330Y-84818911D01*
X189093338Y-84818918D01*
X189093339Y-84818919D01*
X189103215Y-84826497D01*
X189275382Y-84958607D01*
X189275385Y-84958608D01*
X189275388Y-84958611D01*
X189474112Y-85073344D01*
X189474117Y-85073346D01*
X189474123Y-85073349D01*
X189529426Y-85096256D01*
X189686113Y-85161158D01*
X189907762Y-85220548D01*
X190135266Y-85250500D01*
X190135273Y-85250500D01*
X190864727Y-85250500D01*
X190864734Y-85250500D01*
X191092238Y-85220548D01*
X191313887Y-85161158D01*
X191525888Y-85073344D01*
X191724612Y-84958611D01*
X191906661Y-84818919D01*
X191906665Y-84818914D01*
X191906670Y-84818911D01*
X192068911Y-84656670D01*
X192068914Y-84656665D01*
X192068919Y-84656661D01*
X192208611Y-84474612D01*
X192263236Y-84379998D01*
X195694532Y-84379998D01*
X195694532Y-84380001D01*
X195714364Y-84606686D01*
X195714366Y-84606697D01*
X195773258Y-84826488D01*
X195773261Y-84826497D01*
X195869431Y-85032732D01*
X195869432Y-85032734D01*
X195999954Y-85219141D01*
X196160858Y-85380045D01*
X196160861Y-85380047D01*
X196347266Y-85510568D01*
X196553504Y-85606739D01*
X196773308Y-85665635D01*
X196935230Y-85679801D01*
X196999998Y-85685468D01*
X197000000Y-85685468D01*
X197000002Y-85685468D01*
X197056673Y-85680509D01*
X197226692Y-85665635D01*
X197446496Y-85606739D01*
X197652734Y-85510568D01*
X197667830Y-85499998D01*
X201694532Y-85499998D01*
X201694532Y-85500001D01*
X201714364Y-85726686D01*
X201714366Y-85726697D01*
X201773258Y-85946488D01*
X201773261Y-85946497D01*
X201869431Y-86152732D01*
X201869432Y-86152734D01*
X201999954Y-86339141D01*
X202160858Y-86500045D01*
X202160861Y-86500047D01*
X202347266Y-86630568D01*
X202553504Y-86726739D01*
X202773308Y-86785635D01*
X202935230Y-86799801D01*
X202999998Y-86805468D01*
X203000000Y-86805468D01*
X203000002Y-86805468D01*
X203056673Y-86800509D01*
X203226692Y-86785635D01*
X203446496Y-86726739D01*
X203652734Y-86630568D01*
X203839139Y-86500047D01*
X204000047Y-86339139D01*
X204130568Y-86152734D01*
X204226739Y-85946496D01*
X204285635Y-85726692D01*
X204305468Y-85500000D01*
X204304520Y-85489170D01*
X204293435Y-85362464D01*
X204285635Y-85273308D01*
X204233200Y-85077618D01*
X204226741Y-85053511D01*
X204226738Y-85053502D01*
X204182489Y-84958611D01*
X204130568Y-84847266D01*
X204000047Y-84660861D01*
X204000045Y-84660858D01*
X203839141Y-84499954D01*
X203652734Y-84369432D01*
X203652732Y-84369431D01*
X203446497Y-84273261D01*
X203446488Y-84273258D01*
X203226697Y-84214366D01*
X203226693Y-84214365D01*
X203226692Y-84214365D01*
X203226691Y-84214364D01*
X203226686Y-84214364D01*
X203000002Y-84194532D01*
X202999998Y-84194532D01*
X202773313Y-84214364D01*
X202773302Y-84214366D01*
X202553511Y-84273258D01*
X202553502Y-84273261D01*
X202347267Y-84369431D01*
X202347265Y-84369432D01*
X202160858Y-84499954D01*
X201999954Y-84660858D01*
X201869432Y-84847265D01*
X201869431Y-84847267D01*
X201773261Y-85053502D01*
X201773258Y-85053511D01*
X201714366Y-85273302D01*
X201714364Y-85273313D01*
X201694532Y-85499998D01*
X197667830Y-85499998D01*
X197839139Y-85380047D01*
X198000047Y-85219139D01*
X198130568Y-85032734D01*
X198226739Y-84826496D01*
X198285635Y-84606692D01*
X198305468Y-84380000D01*
X198304543Y-84369432D01*
X198296322Y-84275458D01*
X198285635Y-84153308D01*
X198226739Y-83933504D01*
X198130568Y-83727266D01*
X198000047Y-83540861D01*
X198000045Y-83540858D01*
X197839141Y-83379954D01*
X197652734Y-83249432D01*
X197652732Y-83249431D01*
X197446497Y-83153261D01*
X197446488Y-83153258D01*
X197226697Y-83094366D01*
X197226693Y-83094365D01*
X197226692Y-83094365D01*
X197226691Y-83094364D01*
X197226686Y-83094364D01*
X197000002Y-83074532D01*
X196999998Y-83074532D01*
X196773313Y-83094364D01*
X196773302Y-83094366D01*
X196553511Y-83153258D01*
X196553502Y-83153261D01*
X196347267Y-83249431D01*
X196347265Y-83249432D01*
X196160858Y-83379954D01*
X195999954Y-83540858D01*
X195869432Y-83727265D01*
X195869431Y-83727267D01*
X195773261Y-83933502D01*
X195773258Y-83933511D01*
X195714366Y-84153302D01*
X195714364Y-84153313D01*
X195694532Y-84379998D01*
X192263236Y-84379998D01*
X192323344Y-84275888D01*
X192411158Y-84063887D01*
X192470548Y-83842238D01*
X192500500Y-83614734D01*
X192500500Y-83385266D01*
X192470548Y-83157762D01*
X192411158Y-82936113D01*
X192338413Y-82760493D01*
X192330945Y-82691025D01*
X192362220Y-82628546D01*
X192365266Y-82625389D01*
X200253838Y-74736819D01*
X200315161Y-74703334D01*
X200341519Y-74700500D01*
X223178996Y-74700500D01*
X223270040Y-74682389D01*
X223314328Y-74673580D01*
X223378069Y-74647177D01*
X223441807Y-74620777D01*
X223441808Y-74620776D01*
X223441811Y-74620775D01*
X223556543Y-74544114D01*
X233054706Y-65045949D01*
X233116027Y-65012466D01*
X233153186Y-65010104D01*
X233334531Y-65025969D01*
X233349999Y-65027323D01*
X233350000Y-65027323D01*
X233350001Y-65027323D01*
X233363367Y-65026153D01*
X233546809Y-65010104D01*
X233615305Y-65023870D01*
X233645294Y-65045951D01*
X260683453Y-92084111D01*
X260683454Y-92084112D01*
X260798192Y-92160777D01*
X260925667Y-92213578D01*
X260925672Y-92213580D01*
X260925676Y-92213580D01*
X260925677Y-92213581D01*
X261061003Y-92240500D01*
X261061006Y-92240500D01*
X261061007Y-92240500D01*
X261469481Y-92240500D01*
X261536520Y-92260185D01*
X261582275Y-92312989D01*
X261592219Y-92382147D01*
X261563194Y-92445703D01*
X261557162Y-92452181D01*
X248455888Y-105553453D01*
X248455887Y-105553454D01*
X248379222Y-105668192D01*
X248326421Y-105795667D01*
X248326418Y-105795677D01*
X248299500Y-105931004D01*
X248299500Y-131175500D01*
X248279815Y-131242539D01*
X248227011Y-131288294D01*
X248175500Y-131299500D01*
X234931004Y-131299500D01*
X234795677Y-131326418D01*
X234795667Y-131326421D01*
X234668192Y-131379222D01*
X234553454Y-131455887D01*
X233425885Y-132583456D01*
X233365667Y-132673581D01*
X233349230Y-132698180D01*
X233349223Y-132698192D01*
X233296420Y-132825671D01*
X233296418Y-132825677D01*
X233269500Y-132961004D01*
X233269500Y-133667288D01*
X233249815Y-133734327D01*
X233216624Y-133768863D01*
X233098594Y-133851508D01*
X232931505Y-134018597D01*
X232801575Y-134204158D01*
X232746998Y-134247783D01*
X232677500Y-134254977D01*
X232615145Y-134223454D01*
X232598425Y-134204158D01*
X232468494Y-134018597D01*
X232301402Y-133851506D01*
X232301395Y-133851501D01*
X232107834Y-133715967D01*
X232107830Y-133715965D01*
X232036727Y-133682809D01*
X231893663Y-133616097D01*
X231893659Y-133616096D01*
X231893655Y-133616094D01*
X231665413Y-133554938D01*
X231665403Y-133554936D01*
X231430001Y-133534341D01*
X231429999Y-133534341D01*
X231194596Y-133554936D01*
X231194586Y-133554938D01*
X230966344Y-133616094D01*
X230966335Y-133616098D01*
X230752171Y-133715964D01*
X230752169Y-133715965D01*
X230558597Y-133851505D01*
X230391505Y-134018597D01*
X230261575Y-134204158D01*
X230206998Y-134247783D01*
X230137500Y-134254977D01*
X230075145Y-134223454D01*
X230058425Y-134204158D01*
X229928494Y-134018597D01*
X229761402Y-133851506D01*
X229761395Y-133851501D01*
X229567834Y-133715967D01*
X229567830Y-133715965D01*
X229496727Y-133682809D01*
X229353663Y-133616097D01*
X229353659Y-133616096D01*
X229353655Y-133616094D01*
X229125413Y-133554938D01*
X229125403Y-133554936D01*
X228890001Y-133534341D01*
X228889999Y-133534341D01*
X228654596Y-133554936D01*
X228654586Y-133554938D01*
X228426344Y-133616094D01*
X228426335Y-133616098D01*
X228212171Y-133715964D01*
X228212169Y-133715965D01*
X228018600Y-133851503D01*
X227896673Y-133973430D01*
X227835350Y-134006914D01*
X227765658Y-134001930D01*
X227709725Y-133960058D01*
X227692810Y-133929081D01*
X227643797Y-133797671D01*
X227643793Y-133797664D01*
X227557547Y-133682455D01*
X227557544Y-133682452D01*
X227442335Y-133596206D01*
X227442328Y-133596202D01*
X227307482Y-133545908D01*
X227307483Y-133545908D01*
X227247883Y-133539501D01*
X227247881Y-133539500D01*
X227247873Y-133539500D01*
X227247864Y-133539500D01*
X225452129Y-133539500D01*
X225452123Y-133539501D01*
X225392516Y-133545908D01*
X225257671Y-133596202D01*
X225257664Y-133596206D01*
X225142455Y-133682452D01*
X225142452Y-133682455D01*
X225056206Y-133797664D01*
X225056203Y-133797669D01*
X225007189Y-133929083D01*
X224965317Y-133985016D01*
X224899853Y-134009433D01*
X224831580Y-133994581D01*
X224803326Y-133973430D01*
X224681402Y-133851506D01*
X224681395Y-133851501D01*
X224487834Y-133715967D01*
X224487830Y-133715965D01*
X224416727Y-133682809D01*
X224273663Y-133616097D01*
X224273659Y-133616096D01*
X224273655Y-133616094D01*
X224045413Y-133554938D01*
X224045403Y-133554936D01*
X223810001Y-133534341D01*
X223809999Y-133534341D01*
X223574596Y-133554936D01*
X223574586Y-133554938D01*
X223346344Y-133616094D01*
X223346335Y-133616098D01*
X223132171Y-133715964D01*
X223132169Y-133715965D01*
X222938597Y-133851505D01*
X222771505Y-134018597D01*
X222641575Y-134204158D01*
X222586998Y-134247783D01*
X222517500Y-134254977D01*
X222455145Y-134223454D01*
X222438425Y-134204158D01*
X222308494Y-134018597D01*
X222141402Y-133851506D01*
X222141395Y-133851501D01*
X221947834Y-133715967D01*
X221947830Y-133715965D01*
X221876727Y-133682809D01*
X221733663Y-133616097D01*
X221733659Y-133616096D01*
X221733655Y-133616094D01*
X221505413Y-133554938D01*
X221505403Y-133554936D01*
X221270001Y-133534341D01*
X221269999Y-133534341D01*
X221034596Y-133554936D01*
X221034586Y-133554938D01*
X220806344Y-133616094D01*
X220806335Y-133616098D01*
X220592171Y-133715964D01*
X220592169Y-133715965D01*
X220398597Y-133851505D01*
X220231505Y-134018597D01*
X220101575Y-134204158D01*
X220046998Y-134247783D01*
X219977500Y-134254977D01*
X219915145Y-134223454D01*
X219898425Y-134204158D01*
X219768494Y-134018597D01*
X219601402Y-133851506D01*
X219601395Y-133851501D01*
X219407834Y-133715967D01*
X219407830Y-133715965D01*
X219336727Y-133682809D01*
X219193663Y-133616097D01*
X219193659Y-133616096D01*
X219193655Y-133616094D01*
X218965413Y-133554938D01*
X218965403Y-133554936D01*
X218730001Y-133534341D01*
X218729999Y-133534341D01*
X218494596Y-133554936D01*
X218494586Y-133554938D01*
X218266344Y-133616094D01*
X218266335Y-133616098D01*
X218052171Y-133715964D01*
X218052169Y-133715965D01*
X217858597Y-133851505D01*
X217691505Y-134018597D01*
X217561575Y-134204158D01*
X217506998Y-134247783D01*
X217437500Y-134254977D01*
X217375145Y-134223454D01*
X217358425Y-134204158D01*
X217228494Y-134018597D01*
X217061402Y-133851506D01*
X217061395Y-133851501D01*
X216867834Y-133715967D01*
X216867830Y-133715965D01*
X216796727Y-133682809D01*
X216653663Y-133616097D01*
X216653659Y-133616096D01*
X216653655Y-133616094D01*
X216425413Y-133554938D01*
X216425403Y-133554936D01*
X216190001Y-133534341D01*
X216189999Y-133534341D01*
X215954596Y-133554936D01*
X215954586Y-133554938D01*
X215726344Y-133616094D01*
X215726335Y-133616098D01*
X215512171Y-133715964D01*
X215512169Y-133715965D01*
X215318600Y-133851503D01*
X215196673Y-133973430D01*
X215135350Y-134006914D01*
X215065658Y-134001930D01*
X215009725Y-133960058D01*
X214992810Y-133929081D01*
X214943797Y-133797671D01*
X214943793Y-133797664D01*
X214857547Y-133682455D01*
X214857544Y-133682452D01*
X214742335Y-133596206D01*
X214742328Y-133596202D01*
X214607482Y-133545908D01*
X214607483Y-133545908D01*
X214547883Y-133539501D01*
X214547881Y-133539500D01*
X214547873Y-133539500D01*
X214547864Y-133539500D01*
X212752129Y-133539500D01*
X212752123Y-133539501D01*
X212692516Y-133545908D01*
X212557671Y-133596202D01*
X212557664Y-133596206D01*
X212442455Y-133682452D01*
X212442452Y-133682455D01*
X212356206Y-133797664D01*
X212356203Y-133797669D01*
X212307189Y-133929083D01*
X212265317Y-133985016D01*
X212199853Y-134009433D01*
X212131580Y-133994581D01*
X212103326Y-133973430D01*
X211981402Y-133851506D01*
X211981395Y-133851501D01*
X211787834Y-133715967D01*
X211787830Y-133715965D01*
X211716727Y-133682809D01*
X211573663Y-133616097D01*
X211573659Y-133616096D01*
X211573655Y-133616094D01*
X211345413Y-133554938D01*
X211345403Y-133554936D01*
X211110001Y-133534341D01*
X211109999Y-133534341D01*
X210874596Y-133554936D01*
X210874586Y-133554938D01*
X210646344Y-133616094D01*
X210646335Y-133616098D01*
X210432171Y-133715964D01*
X210432169Y-133715965D01*
X210238597Y-133851505D01*
X210071505Y-134018597D01*
X209941575Y-134204158D01*
X209886998Y-134247783D01*
X209817500Y-134254977D01*
X209755145Y-134223454D01*
X209738425Y-134204158D01*
X209608494Y-134018597D01*
X209441402Y-133851506D01*
X209441395Y-133851501D01*
X209247834Y-133715967D01*
X209247830Y-133715965D01*
X209176727Y-133682809D01*
X209033663Y-133616097D01*
X209033659Y-133616096D01*
X209033655Y-133616094D01*
X208805413Y-133554938D01*
X208805403Y-133554936D01*
X208570001Y-133534341D01*
X208569999Y-133534341D01*
X208334596Y-133554936D01*
X208334586Y-133554938D01*
X208106344Y-133616094D01*
X208106335Y-133616098D01*
X207892171Y-133715964D01*
X207892169Y-133715965D01*
X207698597Y-133851505D01*
X207531505Y-134018597D01*
X207401575Y-134204158D01*
X207346998Y-134247783D01*
X207277500Y-134254977D01*
X207215145Y-134223454D01*
X207198425Y-134204158D01*
X207068494Y-134018597D01*
X206901402Y-133851506D01*
X206901395Y-133851501D01*
X206707834Y-133715967D01*
X206707830Y-133715965D01*
X206636727Y-133682809D01*
X206493663Y-133616097D01*
X206493659Y-133616096D01*
X206493655Y-133616094D01*
X206265413Y-133554938D01*
X206265403Y-133554936D01*
X206030001Y-133534341D01*
X206029999Y-133534341D01*
X205794596Y-133554936D01*
X205794586Y-133554938D01*
X205566344Y-133616094D01*
X205566335Y-133616098D01*
X205352171Y-133715964D01*
X205352169Y-133715965D01*
X205158597Y-133851505D01*
X204991505Y-134018597D01*
X204861575Y-134204158D01*
X204806998Y-134247783D01*
X204737500Y-134254977D01*
X204675145Y-134223454D01*
X204658425Y-134204158D01*
X204528494Y-134018597D01*
X204361402Y-133851506D01*
X204361395Y-133851501D01*
X204167834Y-133715967D01*
X204167830Y-133715965D01*
X204096727Y-133682809D01*
X203953663Y-133616097D01*
X203953659Y-133616096D01*
X203953655Y-133616094D01*
X203725413Y-133554938D01*
X203725403Y-133554936D01*
X203490001Y-133534341D01*
X203489999Y-133534341D01*
X203254596Y-133554936D01*
X203254586Y-133554938D01*
X203026344Y-133616094D01*
X203026335Y-133616098D01*
X202812171Y-133715964D01*
X202812169Y-133715965D01*
X202618600Y-133851503D01*
X202496673Y-133973430D01*
X202435350Y-134006914D01*
X202365658Y-134001930D01*
X202309725Y-133960058D01*
X202292810Y-133929081D01*
X202243797Y-133797671D01*
X202243793Y-133797664D01*
X202157547Y-133682455D01*
X202157544Y-133682452D01*
X202042335Y-133596206D01*
X202042328Y-133596202D01*
X201907482Y-133545908D01*
X201907483Y-133545908D01*
X201847883Y-133539501D01*
X201847881Y-133539500D01*
X201847873Y-133539500D01*
X201847864Y-133539500D01*
X200052129Y-133539500D01*
X200052123Y-133539501D01*
X199992516Y-133545908D01*
X199857671Y-133596202D01*
X199857664Y-133596206D01*
X199742455Y-133682452D01*
X199742452Y-133682455D01*
X199656206Y-133797664D01*
X199656203Y-133797669D01*
X199607189Y-133929083D01*
X199565317Y-133985016D01*
X199499853Y-134009433D01*
X199431580Y-133994581D01*
X199403326Y-133973430D01*
X199281402Y-133851506D01*
X199281395Y-133851501D01*
X199087834Y-133715967D01*
X199087830Y-133715965D01*
X199016727Y-133682809D01*
X198873663Y-133616097D01*
X198873659Y-133616096D01*
X198873655Y-133616094D01*
X198645413Y-133554938D01*
X198645403Y-133554936D01*
X198410001Y-133534341D01*
X198409999Y-133534341D01*
X198174596Y-133554936D01*
X198174586Y-133554938D01*
X197946344Y-133616094D01*
X197946335Y-133616098D01*
X197732171Y-133715964D01*
X197732169Y-133715965D01*
X197538597Y-133851505D01*
X197371505Y-134018597D01*
X197241575Y-134204158D01*
X197186998Y-134247783D01*
X197117500Y-134254977D01*
X197055145Y-134223454D01*
X197038425Y-134204158D01*
X196908494Y-134018597D01*
X196741402Y-133851506D01*
X196741395Y-133851501D01*
X196547834Y-133715967D01*
X196547830Y-133715965D01*
X196476727Y-133682809D01*
X196333663Y-133616097D01*
X196333659Y-133616096D01*
X196333655Y-133616094D01*
X196105413Y-133554938D01*
X196105403Y-133554936D01*
X195870001Y-133534341D01*
X195869999Y-133534341D01*
X195634596Y-133554936D01*
X195634586Y-133554938D01*
X195406344Y-133616094D01*
X195406335Y-133616098D01*
X195192171Y-133715964D01*
X195192169Y-133715965D01*
X194998597Y-133851505D01*
X194831505Y-134018597D01*
X194695965Y-134212169D01*
X194695964Y-134212171D01*
X194596098Y-134426335D01*
X194596094Y-134426344D01*
X194534938Y-134654586D01*
X194534936Y-134654596D01*
X194514341Y-134889999D01*
X194514341Y-134890000D01*
X194534936Y-135125403D01*
X194534938Y-135125413D01*
X194596094Y-135353655D01*
X194596096Y-135353659D01*
X194596097Y-135353663D01*
X194676004Y-135525023D01*
X194695965Y-135567830D01*
X194695967Y-135567834D01*
X194804281Y-135722521D01*
X194831505Y-135761401D01*
X194998599Y-135928495D01*
X195095384Y-135996265D01*
X195192165Y-136064032D01*
X195192167Y-136064033D01*
X195192170Y-136064035D01*
X195406337Y-136163903D01*
X195634592Y-136225063D01*
X195811034Y-136240500D01*
X195869999Y-136245659D01*
X195870000Y-136245659D01*
X195870001Y-136245659D01*
X195928966Y-136240500D01*
X196105408Y-136225063D01*
X196333663Y-136163903D01*
X196547830Y-136064035D01*
X196741401Y-135928495D01*
X196908495Y-135761401D01*
X197038425Y-135575842D01*
X197093002Y-135532217D01*
X197162500Y-135525023D01*
X197224855Y-135556546D01*
X197241575Y-135575842D01*
X197371500Y-135761395D01*
X197371505Y-135761401D01*
X197538599Y-135928495D01*
X197635384Y-135996265D01*
X197732165Y-136064032D01*
X197732167Y-136064033D01*
X197732170Y-136064035D01*
X197946337Y-136163903D01*
X198174592Y-136225063D01*
X198351034Y-136240500D01*
X198409999Y-136245659D01*
X198410000Y-136245659D01*
X198410001Y-136245659D01*
X198468966Y-136240500D01*
X198645408Y-136225063D01*
X198873663Y-136163903D01*
X199087830Y-136064035D01*
X199281401Y-135928495D01*
X199403329Y-135806566D01*
X199464648Y-135773084D01*
X199534340Y-135778068D01*
X199590274Y-135819939D01*
X199607189Y-135850917D01*
X199656202Y-135982328D01*
X199656206Y-135982335D01*
X199742452Y-136097544D01*
X199742455Y-136097547D01*
X199857664Y-136183793D01*
X199857671Y-136183797D01*
X199992517Y-136234091D01*
X199992516Y-136234091D01*
X199999444Y-136234835D01*
X200052127Y-136240500D01*
X201847872Y-136240499D01*
X201907483Y-136234091D01*
X202042331Y-136183796D01*
X202157546Y-136097546D01*
X202243796Y-135982331D01*
X202292810Y-135850916D01*
X202334681Y-135794984D01*
X202400145Y-135770566D01*
X202468418Y-135785417D01*
X202496673Y-135806569D01*
X202618599Y-135928495D01*
X202715384Y-135996265D01*
X202812165Y-136064032D01*
X202812167Y-136064033D01*
X202812170Y-136064035D01*
X203026337Y-136163903D01*
X203254592Y-136225063D01*
X203431034Y-136240500D01*
X203489999Y-136245659D01*
X203490000Y-136245659D01*
X203490001Y-136245659D01*
X203548966Y-136240500D01*
X203725408Y-136225063D01*
X203953663Y-136163903D01*
X204167830Y-136064035D01*
X204361401Y-135928495D01*
X204528495Y-135761401D01*
X204658425Y-135575842D01*
X204713002Y-135532217D01*
X204782500Y-135525023D01*
X204844855Y-135556546D01*
X204861575Y-135575842D01*
X204991500Y-135761395D01*
X204991505Y-135761401D01*
X205158599Y-135928495D01*
X205255384Y-135996265D01*
X205352165Y-136064032D01*
X205352167Y-136064033D01*
X205352170Y-136064035D01*
X205566337Y-136163903D01*
X205794592Y-136225063D01*
X205971034Y-136240500D01*
X206029999Y-136245659D01*
X206030000Y-136245659D01*
X206030001Y-136245659D01*
X206088966Y-136240500D01*
X206265408Y-136225063D01*
X206493663Y-136163903D01*
X206707830Y-136064035D01*
X206901401Y-135928495D01*
X207068495Y-135761401D01*
X207198425Y-135575842D01*
X207253002Y-135532217D01*
X207322500Y-135525023D01*
X207384855Y-135556546D01*
X207401575Y-135575842D01*
X207531500Y-135761395D01*
X207531505Y-135761401D01*
X207698599Y-135928495D01*
X207795384Y-135996265D01*
X207892165Y-136064032D01*
X207892167Y-136064033D01*
X207892170Y-136064035D01*
X208106337Y-136163903D01*
X208334592Y-136225063D01*
X208511034Y-136240500D01*
X208569999Y-136245659D01*
X208570000Y-136245659D01*
X208570001Y-136245659D01*
X208628966Y-136240500D01*
X208805408Y-136225063D01*
X209033663Y-136163903D01*
X209247830Y-136064035D01*
X209441401Y-135928495D01*
X209608495Y-135761401D01*
X209738425Y-135575842D01*
X209793002Y-135532217D01*
X209862500Y-135525023D01*
X209924855Y-135556546D01*
X209941575Y-135575842D01*
X210071500Y-135761395D01*
X210071505Y-135761401D01*
X210238599Y-135928495D01*
X210335384Y-135996265D01*
X210432165Y-136064032D01*
X210432167Y-136064033D01*
X210432170Y-136064035D01*
X210646337Y-136163903D01*
X210874592Y-136225063D01*
X211051034Y-136240500D01*
X211109999Y-136245659D01*
X211110000Y-136245659D01*
X211110001Y-136245659D01*
X211168966Y-136240500D01*
X211345408Y-136225063D01*
X211573663Y-136163903D01*
X211787830Y-136064035D01*
X211981401Y-135928495D01*
X212103329Y-135806566D01*
X212164648Y-135773084D01*
X212234340Y-135778068D01*
X212290274Y-135819939D01*
X212307189Y-135850917D01*
X212356202Y-135982328D01*
X212356206Y-135982335D01*
X212442452Y-136097544D01*
X212442455Y-136097547D01*
X212557664Y-136183793D01*
X212557671Y-136183797D01*
X212692517Y-136234091D01*
X212692516Y-136234091D01*
X212699444Y-136234835D01*
X212752127Y-136240500D01*
X214547872Y-136240499D01*
X214607483Y-136234091D01*
X214742331Y-136183796D01*
X214857546Y-136097546D01*
X214943796Y-135982331D01*
X214992810Y-135850916D01*
X215034681Y-135794984D01*
X215100145Y-135770566D01*
X215168418Y-135785417D01*
X215196673Y-135806569D01*
X215318599Y-135928495D01*
X215415384Y-135996265D01*
X215512165Y-136064032D01*
X215512167Y-136064033D01*
X215512170Y-136064035D01*
X215726337Y-136163903D01*
X215954592Y-136225063D01*
X216131034Y-136240500D01*
X216189999Y-136245659D01*
X216190000Y-136245659D01*
X216190001Y-136245659D01*
X216248966Y-136240500D01*
X216425408Y-136225063D01*
X216653663Y-136163903D01*
X216867830Y-136064035D01*
X217061401Y-135928495D01*
X217228495Y-135761401D01*
X217358425Y-135575842D01*
X217413002Y-135532217D01*
X217482500Y-135525023D01*
X217544855Y-135556546D01*
X217561575Y-135575842D01*
X217691500Y-135761395D01*
X217691505Y-135761401D01*
X217858599Y-135928495D01*
X217955384Y-135996265D01*
X218052165Y-136064032D01*
X218052167Y-136064033D01*
X218052170Y-136064035D01*
X218266337Y-136163903D01*
X218494592Y-136225063D01*
X218671034Y-136240500D01*
X218729999Y-136245659D01*
X218730000Y-136245659D01*
X218730001Y-136245659D01*
X218788966Y-136240500D01*
X218965408Y-136225063D01*
X219193663Y-136163903D01*
X219407830Y-136064035D01*
X219601401Y-135928495D01*
X219768495Y-135761401D01*
X219898425Y-135575842D01*
X219953002Y-135532217D01*
X220022500Y-135525023D01*
X220084855Y-135556546D01*
X220101575Y-135575842D01*
X220231500Y-135761395D01*
X220231505Y-135761401D01*
X220398599Y-135928495D01*
X220495384Y-135996265D01*
X220592165Y-136064032D01*
X220592167Y-136064033D01*
X220592170Y-136064035D01*
X220806337Y-136163903D01*
X221034592Y-136225063D01*
X221211034Y-136240500D01*
X221269999Y-136245659D01*
X221270000Y-136245659D01*
X221270001Y-136245659D01*
X221328966Y-136240500D01*
X221505408Y-136225063D01*
X221733663Y-136163903D01*
X221947830Y-136064035D01*
X222141401Y-135928495D01*
X222308495Y-135761401D01*
X222438425Y-135575842D01*
X222493002Y-135532217D01*
X222562500Y-135525023D01*
X222624855Y-135556546D01*
X222641575Y-135575842D01*
X222771500Y-135761395D01*
X222771505Y-135761401D01*
X222938599Y-135928495D01*
X223035384Y-135996265D01*
X223132165Y-136064032D01*
X223132167Y-136064033D01*
X223132170Y-136064035D01*
X223346337Y-136163903D01*
X223574592Y-136225063D01*
X223751034Y-136240500D01*
X223809999Y-136245659D01*
X223810000Y-136245659D01*
X223810001Y-136245659D01*
X223868966Y-136240500D01*
X224045408Y-136225063D01*
X224273663Y-136163903D01*
X224487830Y-136064035D01*
X224681401Y-135928495D01*
X224803329Y-135806566D01*
X224864648Y-135773084D01*
X224934340Y-135778068D01*
X224990274Y-135819939D01*
X225007189Y-135850917D01*
X225056202Y-135982328D01*
X225056206Y-135982335D01*
X225142452Y-136097544D01*
X225142455Y-136097547D01*
X225257664Y-136183793D01*
X225257671Y-136183797D01*
X225392517Y-136234091D01*
X225392516Y-136234091D01*
X225399444Y-136234835D01*
X225452127Y-136240500D01*
X227247872Y-136240499D01*
X227307483Y-136234091D01*
X227442331Y-136183796D01*
X227557546Y-136097546D01*
X227643796Y-135982331D01*
X227692810Y-135850916D01*
X227734681Y-135794984D01*
X227800145Y-135770566D01*
X227868418Y-135785417D01*
X227896673Y-135806569D01*
X228018599Y-135928495D01*
X228115384Y-135996265D01*
X228212165Y-136064032D01*
X228212167Y-136064033D01*
X228212170Y-136064035D01*
X228426337Y-136163903D01*
X228654592Y-136225063D01*
X228831034Y-136240500D01*
X228889999Y-136245659D01*
X228890000Y-136245659D01*
X228890001Y-136245659D01*
X228948966Y-136240500D01*
X229125408Y-136225063D01*
X229353663Y-136163903D01*
X229567830Y-136064035D01*
X229761401Y-135928495D01*
X229928495Y-135761401D01*
X230058425Y-135575842D01*
X230113002Y-135532217D01*
X230182500Y-135525023D01*
X230244855Y-135556546D01*
X230261575Y-135575842D01*
X230391500Y-135761395D01*
X230391505Y-135761401D01*
X230558599Y-135928495D01*
X230655384Y-135996265D01*
X230752165Y-136064032D01*
X230752167Y-136064033D01*
X230752170Y-136064035D01*
X230966337Y-136163903D01*
X231194592Y-136225063D01*
X231371034Y-136240500D01*
X231429999Y-136245659D01*
X231430000Y-136245659D01*
X231430001Y-136245659D01*
X231488966Y-136240500D01*
X231665408Y-136225063D01*
X231893663Y-136163903D01*
X232107830Y-136064035D01*
X232301401Y-135928495D01*
X232468495Y-135761401D01*
X232598425Y-135575842D01*
X232653002Y-135532217D01*
X232722500Y-135525023D01*
X232784855Y-135556546D01*
X232801575Y-135575842D01*
X232931500Y-135761395D01*
X232931505Y-135761401D01*
X233098599Y-135928495D01*
X233195384Y-135996265D01*
X233292165Y-136064032D01*
X233292167Y-136064033D01*
X233292170Y-136064035D01*
X233506337Y-136163903D01*
X233734592Y-136225063D01*
X233911034Y-136240500D01*
X233969999Y-136245659D01*
X233970000Y-136245659D01*
X233970001Y-136245659D01*
X234028966Y-136240500D01*
X234205408Y-136225063D01*
X234433663Y-136163903D01*
X234647830Y-136064035D01*
X234841401Y-135928495D01*
X235008495Y-135761401D01*
X235138425Y-135575842D01*
X235193002Y-135532217D01*
X235262500Y-135525023D01*
X235324855Y-135556546D01*
X235341575Y-135575842D01*
X235471500Y-135761395D01*
X235471505Y-135761401D01*
X235638599Y-135928495D01*
X235735384Y-135996265D01*
X235832165Y-136064032D01*
X235832167Y-136064033D01*
X235832170Y-136064035D01*
X236046337Y-136163903D01*
X236274592Y-136225063D01*
X236451034Y-136240500D01*
X236509999Y-136245659D01*
X236510000Y-136245659D01*
X236510001Y-136245659D01*
X236568966Y-136240500D01*
X236745408Y-136225063D01*
X236973663Y-136163903D01*
X237187830Y-136064035D01*
X237381401Y-135928495D01*
X237503717Y-135806178D01*
X237565036Y-135772696D01*
X237634728Y-135777680D01*
X237690662Y-135819551D01*
X237707577Y-135850528D01*
X237756646Y-135982088D01*
X237756649Y-135982093D01*
X237842809Y-136097187D01*
X237842812Y-136097190D01*
X237957906Y-136183350D01*
X237957913Y-136183354D01*
X238092620Y-136233596D01*
X238092627Y-136233598D01*
X238152155Y-136239999D01*
X238152172Y-136240000D01*
X238800000Y-136240000D01*
X238800000Y-135334560D01*
X238853147Y-135365245D01*
X238982857Y-135400000D01*
X239117143Y-135400000D01*
X239246853Y-135365245D01*
X239300000Y-135334560D01*
X239300000Y-136240000D01*
X239947828Y-136240000D01*
X239947844Y-136239999D01*
X240007372Y-136233598D01*
X240007379Y-136233596D01*
X240142086Y-136183354D01*
X240142093Y-136183350D01*
X240257187Y-136097190D01*
X240257190Y-136097187D01*
X240343350Y-135982093D01*
X240343354Y-135982086D01*
X240392422Y-135850529D01*
X240434293Y-135794595D01*
X240499757Y-135770178D01*
X240568030Y-135785030D01*
X240596285Y-135806181D01*
X240718599Y-135928495D01*
X240815384Y-135996265D01*
X240912165Y-136064032D01*
X240912167Y-136064033D01*
X240912170Y-136064035D01*
X241126337Y-136163903D01*
X241354592Y-136225063D01*
X241531034Y-136240500D01*
X241589999Y-136245659D01*
X241590000Y-136245659D01*
X241590001Y-136245659D01*
X241648966Y-136240500D01*
X241825408Y-136225063D01*
X242053663Y-136163903D01*
X242267830Y-136064035D01*
X242461401Y-135928495D01*
X242628495Y-135761401D01*
X242758425Y-135575842D01*
X242813002Y-135532217D01*
X242882500Y-135525023D01*
X242944855Y-135556546D01*
X242961575Y-135575842D01*
X243091500Y-135761395D01*
X243091505Y-135761401D01*
X243258599Y-135928495D01*
X243355384Y-135996265D01*
X243452165Y-136064032D01*
X243452167Y-136064033D01*
X243452170Y-136064035D01*
X243666337Y-136163903D01*
X243894592Y-136225063D01*
X244071034Y-136240500D01*
X244129999Y-136245659D01*
X244130000Y-136245659D01*
X244130001Y-136245659D01*
X244188966Y-136240500D01*
X244365408Y-136225063D01*
X244593663Y-136163903D01*
X244807830Y-136064035D01*
X245001401Y-135928495D01*
X245168495Y-135761401D01*
X245304035Y-135567830D01*
X245403903Y-135353663D01*
X245465063Y-135125408D01*
X245485659Y-134890000D01*
X245465063Y-134654592D01*
X245403903Y-134426337D01*
X245304035Y-134212171D01*
X245298425Y-134204158D01*
X245168494Y-134018597D01*
X245001402Y-133851506D01*
X245001395Y-133851501D01*
X244807834Y-133715967D01*
X244807830Y-133715965D01*
X244736727Y-133682809D01*
X244593663Y-133616097D01*
X244593659Y-133616096D01*
X244593655Y-133616094D01*
X244365413Y-133554938D01*
X244365403Y-133554936D01*
X244194661Y-133539998D01*
X260694532Y-133539998D01*
X260694532Y-133540000D01*
X260714364Y-133766686D01*
X260714366Y-133766697D01*
X260773258Y-133986488D01*
X260773261Y-133986497D01*
X260869431Y-134192732D01*
X260869432Y-134192734D01*
X260999954Y-134379141D01*
X261160858Y-134540045D01*
X261160861Y-134540047D01*
X261347266Y-134670568D01*
X261553504Y-134766739D01*
X261773308Y-134825635D01*
X261935230Y-134839801D01*
X261999998Y-134845468D01*
X262000000Y-134845468D01*
X262000002Y-134845468D01*
X262056673Y-134840509D01*
X262226692Y-134825635D01*
X262446496Y-134766739D01*
X262652734Y-134670568D01*
X262839139Y-134540047D01*
X263000047Y-134379139D01*
X263130568Y-134192734D01*
X263226739Y-133986496D01*
X263285635Y-133766692D01*
X263305468Y-133540000D01*
X263305424Y-133539501D01*
X263285635Y-133313313D01*
X263285635Y-133313308D01*
X263226739Y-133093504D01*
X263130568Y-132887266D01*
X263000047Y-132700861D01*
X263000045Y-132700858D01*
X262839141Y-132539954D01*
X262745978Y-132474721D01*
X262702353Y-132420144D01*
X262695159Y-132350646D01*
X262726682Y-132288291D01*
X262786911Y-132252877D01*
X262803842Y-132249857D01*
X262857483Y-132244091D01*
X262992331Y-132193796D01*
X263107546Y-132107546D01*
X263193796Y-131992331D01*
X263244091Y-131857483D01*
X263250500Y-131797873D01*
X263250499Y-130202128D01*
X263244091Y-130142517D01*
X263223495Y-130087297D01*
X263193797Y-130007671D01*
X263193793Y-130007664D01*
X263107547Y-129892455D01*
X263107544Y-129892452D01*
X262992335Y-129806206D01*
X262992328Y-129806202D01*
X262857482Y-129755908D01*
X262857483Y-129755908D01*
X262803087Y-129750060D01*
X262738536Y-129723322D01*
X262698688Y-129665929D01*
X262696195Y-129596104D01*
X262724678Y-129548098D01*
X262725472Y-129539025D01*
X262046447Y-128860000D01*
X262052661Y-128860000D01*
X262154394Y-128832741D01*
X262245606Y-128780080D01*
X262320080Y-128705606D01*
X262372741Y-128614394D01*
X262400000Y-128512661D01*
X262400000Y-128506447D01*
X263079024Y-129185471D01*
X263130136Y-129112478D01*
X263226264Y-128906331D01*
X263226269Y-128906317D01*
X263285139Y-128686610D01*
X263285141Y-128686599D01*
X263304966Y-128460002D01*
X263304966Y-128459997D01*
X263285141Y-128233400D01*
X263285139Y-128233389D01*
X263226269Y-128013682D01*
X263226264Y-128013668D01*
X263130136Y-127807521D01*
X263130132Y-127807513D01*
X263079025Y-127734526D01*
X262400000Y-128413551D01*
X262400000Y-128407339D01*
X262372741Y-128305606D01*
X262320080Y-128214394D01*
X262245606Y-128139920D01*
X262154394Y-128087259D01*
X262052661Y-128060000D01*
X262046445Y-128060000D01*
X262725472Y-127380974D01*
X262652478Y-127329863D01*
X262446331Y-127233735D01*
X262446317Y-127233730D01*
X262226610Y-127174860D01*
X262226599Y-127174858D01*
X262000002Y-127155034D01*
X261999998Y-127155034D01*
X261773400Y-127174858D01*
X261773389Y-127174860D01*
X261553682Y-127233730D01*
X261553673Y-127233734D01*
X261347516Y-127329866D01*
X261347512Y-127329868D01*
X261274526Y-127380973D01*
X261274526Y-127380974D01*
X261953553Y-128060000D01*
X261947339Y-128060000D01*
X261845606Y-128087259D01*
X261754394Y-128139920D01*
X261679920Y-128214394D01*
X261627259Y-128305606D01*
X261600000Y-128407339D01*
X261600000Y-128413552D01*
X260920974Y-127734526D01*
X260920973Y-127734526D01*
X260869868Y-127807512D01*
X260869866Y-127807516D01*
X260773734Y-128013673D01*
X260773730Y-128013682D01*
X260714860Y-128233389D01*
X260714858Y-128233400D01*
X260695034Y-128459997D01*
X260695034Y-128460002D01*
X260714858Y-128686599D01*
X260714860Y-128686610D01*
X260773730Y-128906317D01*
X260773735Y-128906331D01*
X260869863Y-129112478D01*
X260920974Y-129185472D01*
X261600000Y-128506446D01*
X261600000Y-128512661D01*
X261627259Y-128614394D01*
X261679920Y-128705606D01*
X261754394Y-128780080D01*
X261845606Y-128832741D01*
X261947339Y-128860000D01*
X261953553Y-128860000D01*
X261274526Y-129539025D01*
X261275595Y-129551238D01*
X261298403Y-129579771D01*
X261305597Y-129649270D01*
X261274075Y-129711625D01*
X261213846Y-129747039D01*
X261196910Y-129750060D01*
X261142520Y-129755907D01*
X261007671Y-129806202D01*
X261007664Y-129806206D01*
X260892455Y-129892452D01*
X260892452Y-129892455D01*
X260806206Y-130007664D01*
X260806202Y-130007671D01*
X260755908Y-130142517D01*
X260749501Y-130202116D01*
X260749501Y-130202123D01*
X260749500Y-130202135D01*
X260749500Y-131797870D01*
X260749501Y-131797876D01*
X260755908Y-131857483D01*
X260806202Y-131992328D01*
X260806206Y-131992335D01*
X260892452Y-132107544D01*
X260892455Y-132107547D01*
X261007664Y-132193793D01*
X261007671Y-132193797D01*
X261052618Y-132210561D01*
X261142517Y-132244091D01*
X261196157Y-132249858D01*
X261260703Y-132276594D01*
X261300552Y-132333986D01*
X261303047Y-132403811D01*
X261267395Y-132463900D01*
X261254022Y-132474721D01*
X261160856Y-132539956D01*
X260999954Y-132700858D01*
X260869432Y-132887265D01*
X260869431Y-132887267D01*
X260773261Y-133093502D01*
X260773258Y-133093511D01*
X260714366Y-133313302D01*
X260714364Y-133313313D01*
X260694532Y-133539998D01*
X244194661Y-133539998D01*
X244130001Y-133534341D01*
X244129999Y-133534341D01*
X243894596Y-133554936D01*
X243894586Y-133554938D01*
X243666344Y-133616094D01*
X243666335Y-133616098D01*
X243452171Y-133715964D01*
X243452169Y-133715965D01*
X243258597Y-133851505D01*
X243091505Y-134018597D01*
X242961575Y-134204158D01*
X242906998Y-134247783D01*
X242837500Y-134254977D01*
X242775145Y-134223454D01*
X242758425Y-134204158D01*
X242628494Y-134018597D01*
X242461402Y-133851506D01*
X242461395Y-133851501D01*
X242267834Y-133715967D01*
X242267830Y-133715965D01*
X242196727Y-133682809D01*
X242053663Y-133616097D01*
X242053659Y-133616096D01*
X242053655Y-133616094D01*
X241825413Y-133554938D01*
X241825403Y-133554936D01*
X241590001Y-133534341D01*
X241589999Y-133534341D01*
X241354596Y-133554936D01*
X241354586Y-133554938D01*
X241126344Y-133616094D01*
X241126335Y-133616098D01*
X240912171Y-133715964D01*
X240912169Y-133715965D01*
X240718600Y-133851503D01*
X240596284Y-133973819D01*
X240534961Y-134007303D01*
X240465269Y-134002319D01*
X240409336Y-133960447D01*
X240392421Y-133929470D01*
X240343354Y-133797913D01*
X240343350Y-133797906D01*
X240257190Y-133682812D01*
X240257187Y-133682809D01*
X240142093Y-133596649D01*
X240142086Y-133596645D01*
X240007379Y-133546403D01*
X240007372Y-133546401D01*
X239947844Y-133540000D01*
X239300000Y-133540000D01*
X239300000Y-134445439D01*
X239246853Y-134414755D01*
X239117143Y-134380000D01*
X238982857Y-134380000D01*
X238853147Y-134414755D01*
X238800000Y-134445439D01*
X238800000Y-133540000D01*
X238152155Y-133540000D01*
X238092627Y-133546401D01*
X238092620Y-133546403D01*
X237957913Y-133596645D01*
X237957906Y-133596649D01*
X237842812Y-133682809D01*
X237842809Y-133682812D01*
X237756649Y-133797906D01*
X237756645Y-133797913D01*
X237707578Y-133929470D01*
X237665707Y-133985404D01*
X237600242Y-134009821D01*
X237531969Y-133994969D01*
X237503715Y-133973819D01*
X237458977Y-133929081D01*
X237381401Y-133851505D01*
X237381397Y-133851502D01*
X237381396Y-133851501D01*
X237187834Y-133715967D01*
X237187830Y-133715965D01*
X237116727Y-133682809D01*
X236973663Y-133616097D01*
X236973659Y-133616096D01*
X236973655Y-133616094D01*
X236745413Y-133554938D01*
X236745403Y-133554936D01*
X236510001Y-133534341D01*
X236509999Y-133534341D01*
X236274596Y-133554936D01*
X236274586Y-133554938D01*
X236046344Y-133616094D01*
X236046335Y-133616098D01*
X235832171Y-133715964D01*
X235832169Y-133715965D01*
X235638597Y-133851505D01*
X235471505Y-134018597D01*
X235341575Y-134204158D01*
X235286998Y-134247783D01*
X235217500Y-134254977D01*
X235155145Y-134223454D01*
X235138425Y-134204158D01*
X235008494Y-134018597D01*
X234841404Y-133851508D01*
X234841402Y-133851506D01*
X234841401Y-133851505D01*
X234841396Y-133851501D01*
X234841393Y-133851499D01*
X234723376Y-133768861D01*
X234679751Y-133714284D01*
X234670500Y-133667287D01*
X234670500Y-133371519D01*
X234690185Y-133304480D01*
X234706819Y-133283838D01*
X235253838Y-132736819D01*
X235315161Y-132703334D01*
X235341519Y-132700500D01*
X249068995Y-132700500D01*
X249160041Y-132682389D01*
X249204328Y-132673580D01*
X249331811Y-132620775D01*
X249446542Y-132544114D01*
X249544114Y-132446542D01*
X249620775Y-132331811D01*
X249673580Y-132204328D01*
X249692831Y-132107547D01*
X249700500Y-132068995D01*
X249700500Y-114913389D01*
X259174500Y-114913389D01*
X259174500Y-115086611D01*
X259201598Y-115257701D01*
X259255127Y-115422445D01*
X259333768Y-115576788D01*
X259435586Y-115716928D01*
X259435588Y-115716930D01*
X259543491Y-115824833D01*
X259576976Y-115886156D01*
X259571992Y-115955848D01*
X259530120Y-116011781D01*
X259520907Y-116018053D01*
X259456654Y-116057684D01*
X259332684Y-116181654D01*
X259240643Y-116330875D01*
X259240641Y-116330880D01*
X259185494Y-116497302D01*
X259185493Y-116497309D01*
X259175000Y-116600013D01*
X259175000Y-116750000D01*
X260269670Y-116750000D01*
X260249925Y-116769745D01*
X260200556Y-116855255D01*
X260175000Y-116950630D01*
X260175000Y-117049370D01*
X260200556Y-117144745D01*
X260249925Y-117230255D01*
X260269670Y-117250000D01*
X259175001Y-117250000D01*
X259175001Y-117399986D01*
X259185494Y-117502697D01*
X259240641Y-117669119D01*
X259240643Y-117669124D01*
X259332684Y-117818345D01*
X259456654Y-117942315D01*
X259605875Y-118034356D01*
X259605880Y-118034358D01*
X259772302Y-118089505D01*
X259772309Y-118089506D01*
X259875019Y-118099999D01*
X260299999Y-118099999D01*
X260300000Y-118099998D01*
X260300000Y-117280330D01*
X260319745Y-117300075D01*
X260405255Y-117349444D01*
X260500630Y-117375000D01*
X260599370Y-117375000D01*
X260694745Y-117349444D01*
X260780255Y-117300075D01*
X260800000Y-117280330D01*
X260800000Y-118099999D01*
X261224972Y-118099999D01*
X261224986Y-118099998D01*
X261327697Y-118089505D01*
X261494119Y-118034358D01*
X261494124Y-118034356D01*
X261643345Y-117942315D01*
X261767315Y-117818345D01*
X261859356Y-117669124D01*
X261859358Y-117669119D01*
X261914505Y-117502697D01*
X261914506Y-117502690D01*
X261924999Y-117399986D01*
X261925000Y-117399973D01*
X261925000Y-117250000D01*
X260830330Y-117250000D01*
X260850075Y-117230255D01*
X260899444Y-117144745D01*
X260925000Y-117049370D01*
X260925000Y-116950630D01*
X260899444Y-116855255D01*
X260850075Y-116769745D01*
X260830330Y-116750000D01*
X261924999Y-116750000D01*
X261924999Y-116600028D01*
X261924998Y-116600013D01*
X261914505Y-116497302D01*
X261859358Y-116330880D01*
X261859356Y-116330875D01*
X261767315Y-116181654D01*
X261643343Y-116057682D01*
X261579093Y-116018053D01*
X261532368Y-115966105D01*
X261521145Y-115897143D01*
X261548988Y-115833061D01*
X261556486Y-115824855D01*
X261664414Y-115716928D01*
X261766232Y-115576788D01*
X261844873Y-115422445D01*
X261898402Y-115257701D01*
X261925500Y-115086611D01*
X261925500Y-114913389D01*
X261898402Y-114742299D01*
X261844873Y-114577555D01*
X261766232Y-114423212D01*
X261664414Y-114283072D01*
X261541928Y-114160586D01*
X261401788Y-114058768D01*
X261247445Y-113980127D01*
X261082701Y-113926598D01*
X261082699Y-113926597D01*
X261082698Y-113926597D01*
X260951271Y-113905781D01*
X260911611Y-113899500D01*
X260188389Y-113899500D01*
X260148728Y-113905781D01*
X260017302Y-113926597D01*
X259852552Y-113980128D01*
X259698211Y-114058768D01*
X259618256Y-114116859D01*
X259558072Y-114160586D01*
X259558070Y-114160588D01*
X259558069Y-114160588D01*
X259435588Y-114283069D01*
X259435588Y-114283070D01*
X259435586Y-114283072D01*
X259391859Y-114343256D01*
X259333768Y-114423211D01*
X259255128Y-114577552D01*
X259201597Y-114742302D01*
X259174500Y-114913389D01*
X249700500Y-114913389D01*
X249700500Y-106341519D01*
X249720185Y-106274480D01*
X249736819Y-106253838D01*
X263713838Y-92276819D01*
X263775161Y-92243334D01*
X263801519Y-92240500D01*
X263884716Y-92240500D01*
X263951755Y-92260185D01*
X263986290Y-92293376D01*
X264029174Y-92354620D01*
X264185378Y-92510824D01*
X264185384Y-92510829D01*
X264366333Y-92637531D01*
X264366335Y-92637532D01*
X264366338Y-92637534D01*
X264495781Y-92697894D01*
X264548220Y-92744066D01*
X264567372Y-92811260D01*
X264547156Y-92878141D01*
X264495781Y-92922658D01*
X264366590Y-92982901D01*
X264301811Y-93028258D01*
X264972554Y-93699000D01*
X264949840Y-93699000D01*
X264852939Y-93724964D01*
X264766060Y-93775124D01*
X264695124Y-93846060D01*
X264644964Y-93932939D01*
X264619000Y-94029840D01*
X264619000Y-94052553D01*
X263948258Y-93381811D01*
X263902901Y-93446590D01*
X263809579Y-93646720D01*
X263809575Y-93646729D01*
X263752426Y-93860013D01*
X263752424Y-93860023D01*
X263733179Y-94079999D01*
X263733179Y-94080000D01*
X263752424Y-94299976D01*
X263752426Y-94299986D01*
X263809575Y-94513270D01*
X263809580Y-94513284D01*
X263902898Y-94713405D01*
X263902901Y-94713411D01*
X263948258Y-94778187D01*
X263948258Y-94778188D01*
X264619000Y-94107446D01*
X264619000Y-94130160D01*
X264644964Y-94227061D01*
X264695124Y-94313940D01*
X264766060Y-94384876D01*
X264852939Y-94435036D01*
X264949840Y-94461000D01*
X264972553Y-94461000D01*
X264301810Y-95131740D01*
X264366590Y-95177099D01*
X264366592Y-95177100D01*
X264566715Y-95270419D01*
X264566729Y-95270424D01*
X264780013Y-95327573D01*
X264780023Y-95327575D01*
X264999999Y-95346821D01*
X265000001Y-95346821D01*
X265219976Y-95327575D01*
X265219986Y-95327573D01*
X265433270Y-95270424D01*
X265433284Y-95270419D01*
X265633407Y-95177100D01*
X265633417Y-95177094D01*
X265698188Y-95131741D01*
X265027448Y-94461000D01*
X265050160Y-94461000D01*
X265147061Y-94435036D01*
X265233940Y-94384876D01*
X265304876Y-94313940D01*
X265355036Y-94227061D01*
X265381000Y-94130160D01*
X265381000Y-94107447D01*
X266051741Y-94778188D01*
X266097094Y-94713417D01*
X266097100Y-94713407D01*
X266190419Y-94513284D01*
X266190424Y-94513270D01*
X266247573Y-94299986D01*
X266247575Y-94299976D01*
X266266821Y-94080000D01*
X266266821Y-94079999D01*
X266247575Y-93860023D01*
X266247573Y-93860013D01*
X266190424Y-93646729D01*
X266190420Y-93646720D01*
X266097096Y-93446586D01*
X266051741Y-93381811D01*
X266051740Y-93381810D01*
X265381000Y-94052551D01*
X265381000Y-94029840D01*
X265355036Y-93932939D01*
X265304876Y-93846060D01*
X265233940Y-93775124D01*
X265147061Y-93724964D01*
X265050160Y-93699000D01*
X265027447Y-93699000D01*
X265698188Y-93028258D01*
X265633411Y-92982901D01*
X265633405Y-92982898D01*
X265504219Y-92922658D01*
X265451779Y-92876486D01*
X265432627Y-92809293D01*
X265452843Y-92742411D01*
X265504219Y-92697894D01*
X265633662Y-92637534D01*
X265814620Y-92510826D01*
X265970826Y-92354620D01*
X266097534Y-92173662D01*
X266190894Y-91973450D01*
X266248070Y-91760068D01*
X266267323Y-91540000D01*
X266248070Y-91319932D01*
X266190894Y-91106550D01*
X266097534Y-90906339D01*
X266034180Y-90815859D01*
X265970827Y-90725381D01*
X265899840Y-90654394D01*
X265814620Y-90569174D01*
X265814616Y-90569171D01*
X265814615Y-90569170D01*
X265633666Y-90442468D01*
X265633658Y-90442464D01*
X265504811Y-90382382D01*
X265452371Y-90336210D01*
X265433219Y-90269017D01*
X265453435Y-90202135D01*
X265504811Y-90157618D01*
X265528769Y-90146446D01*
X265633662Y-90097534D01*
X265814620Y-89970826D01*
X265970826Y-89814620D01*
X266097534Y-89633662D01*
X266190894Y-89433450D01*
X266248070Y-89220068D01*
X266264642Y-89030641D01*
X266267323Y-89000002D01*
X266267323Y-88999997D01*
X266255837Y-88868713D01*
X266248070Y-88779932D01*
X266190894Y-88566550D01*
X266097534Y-88366339D01*
X265970826Y-88185380D01*
X265814620Y-88029174D01*
X265814616Y-88029171D01*
X265814615Y-88029170D01*
X265633666Y-87902468D01*
X265633658Y-87902464D01*
X265504811Y-87842382D01*
X265452371Y-87796210D01*
X265433219Y-87729017D01*
X265453435Y-87662135D01*
X265504811Y-87617618D01*
X265514830Y-87612946D01*
X265633662Y-87557534D01*
X265814620Y-87430826D01*
X265970826Y-87274620D01*
X266097534Y-87093662D01*
X266190894Y-86893450D01*
X266248070Y-86680068D01*
X266267323Y-86460000D01*
X266248070Y-86239932D01*
X266190894Y-86026550D01*
X266097534Y-85826339D01*
X266027757Y-85726686D01*
X265970827Y-85645381D01*
X265925349Y-85599903D01*
X265814620Y-85489174D01*
X265814616Y-85489171D01*
X265814615Y-85489170D01*
X265633666Y-85362468D01*
X265633658Y-85362464D01*
X265504811Y-85302382D01*
X265452371Y-85256210D01*
X265433219Y-85189017D01*
X265453435Y-85122135D01*
X265504811Y-85077618D01*
X265531911Y-85064981D01*
X265633662Y-85017534D01*
X265814620Y-84890826D01*
X265970826Y-84734620D01*
X266097534Y-84553662D01*
X266190894Y-84353450D01*
X266248070Y-84140068D01*
X266267323Y-83920000D01*
X266266739Y-83913330D01*
X266248070Y-83699937D01*
X266248070Y-83699932D01*
X266190894Y-83486550D01*
X266097534Y-83286339D01*
X266007502Y-83157759D01*
X265970827Y-83105381D01*
X265939978Y-83074532D01*
X265814620Y-82949174D01*
X265814616Y-82949171D01*
X265814615Y-82949170D01*
X265633666Y-82822468D01*
X265633662Y-82822466D01*
X265584411Y-82799500D01*
X265433450Y-82729106D01*
X265433447Y-82729105D01*
X265433445Y-82729104D01*
X265220070Y-82671930D01*
X265220062Y-82671929D01*
X265000002Y-82652677D01*
X264999998Y-82652677D01*
X264779937Y-82671929D01*
X264779929Y-82671930D01*
X264566554Y-82729104D01*
X264566548Y-82729107D01*
X264366340Y-82822465D01*
X264366338Y-82822466D01*
X264185377Y-82949175D01*
X264029175Y-83105377D01*
X263902466Y-83286338D01*
X263902465Y-83286340D01*
X263809107Y-83486548D01*
X263809104Y-83486554D01*
X263751930Y-83699929D01*
X263751929Y-83699937D01*
X263732677Y-83919997D01*
X263732677Y-83920002D01*
X263751929Y-84140062D01*
X263751930Y-84140070D01*
X263809104Y-84353445D01*
X263809105Y-84353447D01*
X263809106Y-84353450D01*
X263868360Y-84480521D01*
X263902466Y-84553662D01*
X263902468Y-84553666D01*
X264029170Y-84734615D01*
X264029175Y-84734621D01*
X264185378Y-84890824D01*
X264185384Y-84890829D01*
X264366333Y-85017531D01*
X264366335Y-85017532D01*
X264366338Y-85017534D01*
X264468089Y-85064981D01*
X264495189Y-85077618D01*
X264547628Y-85123790D01*
X264566780Y-85190984D01*
X264546564Y-85257865D01*
X264495189Y-85302382D01*
X264366340Y-85362465D01*
X264366338Y-85362466D01*
X264185377Y-85489175D01*
X264029175Y-85645377D01*
X263902466Y-85826338D01*
X263902465Y-85826340D01*
X263809107Y-86026548D01*
X263809104Y-86026554D01*
X263751930Y-86239929D01*
X263751929Y-86239937D01*
X263732677Y-86459997D01*
X263732677Y-86460002D01*
X263751929Y-86680062D01*
X263751930Y-86680070D01*
X263809104Y-86893445D01*
X263809105Y-86893447D01*
X263809106Y-86893450D01*
X263824591Y-86926657D01*
X263902466Y-87093662D01*
X263902468Y-87093666D01*
X264029170Y-87274615D01*
X264029175Y-87274621D01*
X264185378Y-87430824D01*
X264185384Y-87430829D01*
X264366333Y-87557531D01*
X264366335Y-87557532D01*
X264366338Y-87557534D01*
X264454070Y-87598444D01*
X264495189Y-87617618D01*
X264547628Y-87663790D01*
X264566780Y-87730984D01*
X264546564Y-87797865D01*
X264495189Y-87842382D01*
X264366340Y-87902465D01*
X264366338Y-87902466D01*
X264185377Y-88029175D01*
X264029175Y-88185377D01*
X263902466Y-88366338D01*
X263902465Y-88366340D01*
X263809107Y-88566548D01*
X263809104Y-88566554D01*
X263751930Y-88779929D01*
X263751929Y-88779937D01*
X263732677Y-88999997D01*
X263732677Y-89000002D01*
X263751929Y-89220062D01*
X263751930Y-89220070D01*
X263809104Y-89433445D01*
X263809105Y-89433447D01*
X263809106Y-89433450D01*
X263902466Y-89633662D01*
X263902468Y-89633666D01*
X264029170Y-89814615D01*
X264029175Y-89814621D01*
X264185378Y-89970824D01*
X264185384Y-89970829D01*
X264366333Y-90097531D01*
X264366335Y-90097532D01*
X264366338Y-90097534D01*
X264430084Y-90127259D01*
X264495189Y-90157618D01*
X264547628Y-90203790D01*
X264566780Y-90270984D01*
X264546564Y-90337865D01*
X264495189Y-90382382D01*
X264366340Y-90442465D01*
X264366338Y-90442466D01*
X264185377Y-90569175D01*
X264029174Y-90725378D01*
X263986291Y-90786623D01*
X263931714Y-90830248D01*
X263884716Y-90839500D01*
X261471519Y-90839500D01*
X261404480Y-90819815D01*
X261383838Y-90803181D01*
X235818239Y-65237582D01*
X235784754Y-65176259D01*
X235789738Y-65106567D01*
X235831610Y-65050634D01*
X235895113Y-65026373D01*
X236109975Y-65007575D01*
X236109986Y-65007573D01*
X236323270Y-64950424D01*
X236323284Y-64950419D01*
X236523407Y-64857100D01*
X236523417Y-64857094D01*
X236588188Y-64811741D01*
X235917446Y-64141000D01*
X235940160Y-64141000D01*
X236037061Y-64115036D01*
X236123940Y-64064876D01*
X236194876Y-63993940D01*
X236245036Y-63907061D01*
X236271000Y-63810160D01*
X236271000Y-63787447D01*
X236941741Y-64458188D01*
X236987094Y-64393417D01*
X236987100Y-64393407D01*
X237080419Y-64193284D01*
X237080424Y-64193270D01*
X237137573Y-63979986D01*
X237137575Y-63979976D01*
X237156821Y-63760000D01*
X237156821Y-63759999D01*
X237137575Y-63540023D01*
X237137573Y-63540013D01*
X237080424Y-63326729D01*
X237080420Y-63326720D01*
X236987096Y-63126586D01*
X236941741Y-63061811D01*
X236941740Y-63061810D01*
X236271000Y-63732551D01*
X236271000Y-63709840D01*
X236245036Y-63612939D01*
X236194876Y-63526060D01*
X236123940Y-63455124D01*
X236037061Y-63404964D01*
X235940160Y-63379000D01*
X235917447Y-63379000D01*
X236588188Y-62708258D01*
X236523411Y-62662901D01*
X236523405Y-62662898D01*
X236323284Y-62569580D01*
X236323270Y-62569575D01*
X236109986Y-62512426D01*
X236109976Y-62512424D01*
X235890001Y-62493179D01*
X235889999Y-62493179D01*
X235670023Y-62512424D01*
X235670013Y-62512426D01*
X235456729Y-62569575D01*
X235456720Y-62569579D01*
X235256590Y-62662901D01*
X235191811Y-62708258D01*
X235862554Y-63379000D01*
X235839840Y-63379000D01*
X235742939Y-63404964D01*
X235656060Y-63455124D01*
X235585124Y-63526060D01*
X235534964Y-63612939D01*
X235509000Y-63709840D01*
X235509000Y-63732553D01*
X234838258Y-63061811D01*
X234792901Y-63126590D01*
X234732658Y-63255781D01*
X234686485Y-63308220D01*
X234619292Y-63327372D01*
X234552411Y-63307156D01*
X234507894Y-63255781D01*
X234447534Y-63126340D01*
X234447533Y-63126338D01*
X234320827Y-62945381D01*
X234320823Y-62945377D01*
X234164620Y-62789174D01*
X234164616Y-62789171D01*
X234164615Y-62789170D01*
X233983666Y-62662468D01*
X233983662Y-62662466D01*
X233983660Y-62662465D01*
X233783450Y-62569106D01*
X233783447Y-62569105D01*
X233783445Y-62569104D01*
X233570070Y-62511930D01*
X233570062Y-62511929D01*
X233350002Y-62492677D01*
X233349998Y-62492677D01*
X233129937Y-62511929D01*
X233129929Y-62511930D01*
X232916554Y-62569104D01*
X232916548Y-62569107D01*
X232716340Y-62662465D01*
X232716338Y-62662466D01*
X232535377Y-62789175D01*
X232379175Y-62945377D01*
X232252466Y-63126338D01*
X232252465Y-63126340D01*
X232192382Y-63255189D01*
X232146209Y-63307628D01*
X232079016Y-63326780D01*
X232012135Y-63306564D01*
X231967618Y-63255189D01*
X231907534Y-63126340D01*
X231907533Y-63126338D01*
X231780827Y-62945381D01*
X231780823Y-62945377D01*
X231624620Y-62789174D01*
X231624616Y-62789171D01*
X231624615Y-62789170D01*
X231443666Y-62662468D01*
X231443662Y-62662466D01*
X231443660Y-62662465D01*
X231243450Y-62569106D01*
X231243447Y-62569105D01*
X231243445Y-62569104D01*
X231030070Y-62511930D01*
X231030062Y-62511929D01*
X230810002Y-62492677D01*
X230809998Y-62492677D01*
X230589937Y-62511929D01*
X230589929Y-62511930D01*
X230376554Y-62569104D01*
X230376548Y-62569107D01*
X230176340Y-62662465D01*
X230176338Y-62662466D01*
X229995377Y-62789175D01*
X229839175Y-62945377D01*
X229712466Y-63126338D01*
X229712465Y-63126340D01*
X229652382Y-63255189D01*
X229606209Y-63307628D01*
X229539016Y-63326780D01*
X229472135Y-63306564D01*
X229427618Y-63255189D01*
X229367534Y-63126340D01*
X229367533Y-63126338D01*
X229240827Y-62945381D01*
X229240823Y-62945377D01*
X229084620Y-62789174D01*
X229084616Y-62789171D01*
X229084615Y-62789170D01*
X228903666Y-62662468D01*
X228903662Y-62662466D01*
X228903660Y-62662465D01*
X228703450Y-62569106D01*
X228703447Y-62569105D01*
X228703445Y-62569104D01*
X228490070Y-62511930D01*
X228490062Y-62511929D01*
X228270002Y-62492677D01*
X228269998Y-62492677D01*
X228049937Y-62511929D01*
X228049929Y-62511930D01*
X227836554Y-62569104D01*
X227836548Y-62569107D01*
X227636340Y-62662465D01*
X227636338Y-62662466D01*
X227455377Y-62789175D01*
X227299175Y-62945377D01*
X227172466Y-63126338D01*
X227172465Y-63126340D01*
X227112382Y-63255189D01*
X227066209Y-63307628D01*
X226999016Y-63326780D01*
X226932135Y-63306564D01*
X226887618Y-63255189D01*
X226827534Y-63126340D01*
X226827533Y-63126338D01*
X226700827Y-62945381D01*
X226700823Y-62945377D01*
X226544620Y-62789174D01*
X226544616Y-62789171D01*
X226544615Y-62789170D01*
X226363666Y-62662468D01*
X226363662Y-62662466D01*
X226363660Y-62662465D01*
X226163450Y-62569106D01*
X226163447Y-62569105D01*
X226163445Y-62569104D01*
X225950070Y-62511930D01*
X225950062Y-62511929D01*
X225730002Y-62492677D01*
X225729998Y-62492677D01*
X225509937Y-62511929D01*
X225509929Y-62511930D01*
X225296554Y-62569104D01*
X225296548Y-62569107D01*
X225096340Y-62662465D01*
X225096338Y-62662466D01*
X224915377Y-62789175D01*
X224759175Y-62945377D01*
X224632466Y-63126338D01*
X224632465Y-63126340D01*
X224572382Y-63255189D01*
X224526209Y-63307628D01*
X224459016Y-63326780D01*
X224392135Y-63306564D01*
X224347618Y-63255189D01*
X224287534Y-63126340D01*
X224287533Y-63126338D01*
X224160827Y-62945381D01*
X224160823Y-62945377D01*
X224004620Y-62789174D01*
X224004616Y-62789171D01*
X224004615Y-62789170D01*
X223823666Y-62662468D01*
X223823662Y-62662466D01*
X223823660Y-62662465D01*
X223623450Y-62569106D01*
X223623447Y-62569105D01*
X223623445Y-62569104D01*
X223410070Y-62511930D01*
X223410062Y-62511929D01*
X223190002Y-62492677D01*
X223189998Y-62492677D01*
X222969937Y-62511929D01*
X222969929Y-62511930D01*
X222756554Y-62569104D01*
X222756548Y-62569107D01*
X222556340Y-62662465D01*
X222556338Y-62662466D01*
X222375377Y-62789175D01*
X222219175Y-62945377D01*
X222092466Y-63126338D01*
X222092465Y-63126340D01*
X222032382Y-63255189D01*
X221986209Y-63307628D01*
X221919016Y-63326780D01*
X221852135Y-63306564D01*
X221807618Y-63255189D01*
X221747534Y-63126340D01*
X221747533Y-63126338D01*
X221620827Y-62945381D01*
X221620823Y-62945377D01*
X221464620Y-62789174D01*
X221464616Y-62789171D01*
X221464615Y-62789170D01*
X221283666Y-62662468D01*
X221283662Y-62662466D01*
X221283660Y-62662465D01*
X221083450Y-62569106D01*
X221083447Y-62569105D01*
X221083445Y-62569104D01*
X220870070Y-62511930D01*
X220870062Y-62511929D01*
X220650002Y-62492677D01*
X220649998Y-62492677D01*
X220429937Y-62511929D01*
X220429929Y-62511930D01*
X220216554Y-62569104D01*
X220216548Y-62569107D01*
X220016340Y-62662465D01*
X220016338Y-62662466D01*
X219835377Y-62789175D01*
X219679175Y-62945377D01*
X219552466Y-63126338D01*
X219552465Y-63126340D01*
X219492382Y-63255189D01*
X219446209Y-63307628D01*
X219379016Y-63326780D01*
X219312135Y-63306564D01*
X219267618Y-63255189D01*
X219207534Y-63126340D01*
X219207533Y-63126338D01*
X219080827Y-62945381D01*
X219080823Y-62945377D01*
X218924620Y-62789174D01*
X218924616Y-62789171D01*
X218924615Y-62789170D01*
X218743666Y-62662468D01*
X218743662Y-62662466D01*
X218743660Y-62662465D01*
X218543450Y-62569106D01*
X218543447Y-62569105D01*
X218543445Y-62569104D01*
X218330070Y-62511930D01*
X218330062Y-62511929D01*
X218110002Y-62492677D01*
X218109998Y-62492677D01*
X217889937Y-62511929D01*
X217889929Y-62511930D01*
X217676554Y-62569104D01*
X217676548Y-62569107D01*
X217476340Y-62662465D01*
X217476338Y-62662466D01*
X217295377Y-62789175D01*
X217139175Y-62945377D01*
X217012466Y-63126338D01*
X217012465Y-63126340D01*
X216919107Y-63326548D01*
X216919104Y-63326554D01*
X216861930Y-63539929D01*
X216861929Y-63539937D01*
X216842677Y-63759997D01*
X216842677Y-63760002D01*
X216861929Y-63980062D01*
X216861930Y-63980070D01*
X216919104Y-64193445D01*
X216919105Y-64193447D01*
X216919106Y-64193450D01*
X216952382Y-64264811D01*
X217012466Y-64393662D01*
X217012468Y-64393666D01*
X217139170Y-64574615D01*
X217139175Y-64574621D01*
X217295378Y-64730824D01*
X217295384Y-64730829D01*
X217476333Y-64857531D01*
X217476335Y-64857532D01*
X217476338Y-64857534D01*
X217676550Y-64950894D01*
X217889932Y-65008070D01*
X218047123Y-65021822D01*
X218109998Y-65027323D01*
X218110000Y-65027323D01*
X218110002Y-65027323D01*
X218165017Y-65022509D01*
X218330068Y-65008070D01*
X218543450Y-64950894D01*
X218743662Y-64857534D01*
X218924620Y-64730826D01*
X219080826Y-64574620D01*
X219207534Y-64393662D01*
X219267618Y-64264811D01*
X219313790Y-64212371D01*
X219380983Y-64193219D01*
X219447865Y-64213435D01*
X219492382Y-64264811D01*
X219552464Y-64393658D01*
X219552468Y-64393666D01*
X219679170Y-64574615D01*
X219679175Y-64574621D01*
X219835378Y-64730824D01*
X219835384Y-64730829D01*
X220016333Y-64857531D01*
X220016335Y-64857532D01*
X220016338Y-64857534D01*
X220216550Y-64950894D01*
X220429932Y-65008070D01*
X220587123Y-65021822D01*
X220649998Y-65027323D01*
X220650000Y-65027323D01*
X220650002Y-65027323D01*
X220705017Y-65022509D01*
X220870068Y-65008070D01*
X221083450Y-64950894D01*
X221283662Y-64857534D01*
X221464620Y-64730826D01*
X221620826Y-64574620D01*
X221747534Y-64393662D01*
X221807618Y-64264811D01*
X221853790Y-64212371D01*
X221920983Y-64193219D01*
X221987865Y-64213435D01*
X222032382Y-64264811D01*
X222092464Y-64393658D01*
X222092468Y-64393666D01*
X222219170Y-64574615D01*
X222219175Y-64574621D01*
X222375378Y-64730824D01*
X222375384Y-64730829D01*
X222556333Y-64857531D01*
X222556335Y-64857532D01*
X222556338Y-64857534D01*
X222756550Y-64950894D01*
X222969932Y-65008070D01*
X223127123Y-65021822D01*
X223189998Y-65027323D01*
X223190000Y-65027323D01*
X223190002Y-65027323D01*
X223245017Y-65022509D01*
X223410068Y-65008070D01*
X223623450Y-64950894D01*
X223823662Y-64857534D01*
X224004620Y-64730826D01*
X224160826Y-64574620D01*
X224287534Y-64393662D01*
X224347618Y-64264811D01*
X224393790Y-64212371D01*
X224460983Y-64193219D01*
X224527865Y-64213435D01*
X224572382Y-64264811D01*
X224632464Y-64393658D01*
X224632468Y-64393666D01*
X224759170Y-64574615D01*
X224759175Y-64574621D01*
X224915378Y-64730824D01*
X224915384Y-64730829D01*
X225096333Y-64857531D01*
X225096335Y-64857532D01*
X225096338Y-64857534D01*
X225296550Y-64950894D01*
X225509932Y-65008070D01*
X225667123Y-65021822D01*
X225729998Y-65027323D01*
X225730000Y-65027323D01*
X225730002Y-65027323D01*
X225785017Y-65022509D01*
X225950068Y-65008070D01*
X226163450Y-64950894D01*
X226363662Y-64857534D01*
X226544620Y-64730826D01*
X226700826Y-64574620D01*
X226827534Y-64393662D01*
X226887618Y-64264811D01*
X226933790Y-64212371D01*
X227000983Y-64193219D01*
X227067865Y-64213435D01*
X227112382Y-64264811D01*
X227172464Y-64393658D01*
X227172468Y-64393666D01*
X227299170Y-64574615D01*
X227299175Y-64574621D01*
X227455378Y-64730824D01*
X227455384Y-64730829D01*
X227636333Y-64857531D01*
X227636335Y-64857532D01*
X227636338Y-64857534D01*
X227836550Y-64950894D01*
X228049932Y-65008070D01*
X228207123Y-65021822D01*
X228269998Y-65027323D01*
X228270000Y-65027323D01*
X228270002Y-65027323D01*
X228325017Y-65022509D01*
X228490068Y-65008070D01*
X228703450Y-64950894D01*
X228903662Y-64857534D01*
X229084620Y-64730826D01*
X229240826Y-64574620D01*
X229367534Y-64393662D01*
X229427618Y-64264811D01*
X229473790Y-64212371D01*
X229540983Y-64193219D01*
X229607865Y-64213435D01*
X229652382Y-64264811D01*
X229712464Y-64393658D01*
X229712468Y-64393666D01*
X229839170Y-64574615D01*
X229839175Y-64574621D01*
X229995378Y-64730824D01*
X229995384Y-64730829D01*
X230176333Y-64857531D01*
X230176335Y-64857532D01*
X230176338Y-64857534D01*
X230376550Y-64950894D01*
X230589932Y-65008070D01*
X230804423Y-65026835D01*
X230869492Y-65052287D01*
X230910471Y-65108878D01*
X230914349Y-65178640D01*
X230881297Y-65238044D01*
X222856162Y-73263181D01*
X222794839Y-73296666D01*
X222768481Y-73299500D01*
X199931004Y-73299500D01*
X199795677Y-73326418D01*
X199795667Y-73326421D01*
X199668192Y-73379222D01*
X199553454Y-73455887D01*
X191251423Y-81757918D01*
X191190100Y-81791403D01*
X191131650Y-81790012D01*
X191092245Y-81779454D01*
X191092246Y-81779454D01*
X191092238Y-81779452D01*
X191037436Y-81772237D01*
X190864741Y-81749500D01*
X190864734Y-81749500D01*
X190135266Y-81749500D01*
X190135258Y-81749500D01*
X189918715Y-81778009D01*
X189907762Y-81779452D01*
X189863160Y-81791403D01*
X189686112Y-81838842D01*
X189474123Y-81926650D01*
X189474109Y-81926657D01*
X189275382Y-82041392D01*
X189093338Y-82181081D01*
X188931081Y-82343338D01*
X188791392Y-82525382D01*
X188676657Y-82724109D01*
X188674858Y-82727758D01*
X188673715Y-82727194D01*
X188633303Y-82777351D01*
X188567010Y-82799421D01*
X188562575Y-82799500D01*
X179937425Y-82799500D01*
X179870386Y-82779815D01*
X179825237Y-82727710D01*
X179825142Y-82727758D01*
X179824961Y-82727392D01*
X179824631Y-82727011D01*
X179823555Y-82724541D01*
X179823346Y-82724118D01*
X179823344Y-82724112D01*
X179708611Y-82525388D01*
X179708608Y-82525385D01*
X179708607Y-82525382D01*
X179568918Y-82343338D01*
X179568911Y-82343330D01*
X179406670Y-82181089D01*
X179406661Y-82181081D01*
X179224617Y-82041392D01*
X179025890Y-81926657D01*
X179025881Y-81926653D01*
X178813883Y-81838840D01*
X178792404Y-81833085D01*
X178732744Y-81796719D01*
X178702216Y-81733871D01*
X178700500Y-81713311D01*
X178700500Y-73931004D01*
X178673581Y-73795677D01*
X178673580Y-73795676D01*
X178673580Y-73795672D01*
X178673578Y-73795667D01*
X178673047Y-73793916D01*
X178673038Y-73792947D01*
X178672392Y-73789698D01*
X178673008Y-73789575D01*
X178672422Y-73724049D01*
X178709669Y-73664936D01*
X178772962Y-73635343D01*
X178842207Y-73644667D01*
X178893280Y-73686794D01*
X178946107Y-73762238D01*
X178999954Y-73839141D01*
X179160858Y-74000045D01*
X179160861Y-74000047D01*
X179347266Y-74130568D01*
X179553504Y-74226739D01*
X179773308Y-74285635D01*
X179935230Y-74299801D01*
X179999998Y-74305468D01*
X180000000Y-74305468D01*
X180000002Y-74305468D01*
X180056673Y-74300509D01*
X180226692Y-74285635D01*
X180446496Y-74226739D01*
X180652734Y-74130568D01*
X180839139Y-74000047D01*
X181000047Y-73839139D01*
X181020452Y-73809998D01*
X183694532Y-73809998D01*
X183694532Y-73810001D01*
X183714364Y-74036686D01*
X183714366Y-74036697D01*
X183773258Y-74256488D01*
X183773261Y-74256497D01*
X183869431Y-74462732D01*
X183869432Y-74462734D01*
X183999954Y-74649141D01*
X184160858Y-74810045D01*
X184160861Y-74810047D01*
X184347266Y-74940568D01*
X184553504Y-75036739D01*
X184773308Y-75095635D01*
X184935230Y-75109801D01*
X184999998Y-75115468D01*
X185000000Y-75115468D01*
X185000002Y-75115468D01*
X185056673Y-75110509D01*
X185226692Y-75095635D01*
X185446496Y-75036739D01*
X185652734Y-74940568D01*
X185839139Y-74810047D01*
X186000047Y-74649139D01*
X186130568Y-74462734D01*
X186226739Y-74256496D01*
X186285635Y-74036692D01*
X186305468Y-73810000D01*
X186304214Y-73795672D01*
X186293061Y-73668189D01*
X186285635Y-73583308D01*
X186226739Y-73363504D01*
X186130568Y-73157266D01*
X186000047Y-72970861D01*
X186000045Y-72970858D01*
X185839141Y-72809954D01*
X185652734Y-72679432D01*
X185652732Y-72679431D01*
X185446497Y-72583261D01*
X185446488Y-72583258D01*
X185226697Y-72524366D01*
X185226693Y-72524365D01*
X185226692Y-72524365D01*
X185226691Y-72524364D01*
X185226686Y-72524364D01*
X185000002Y-72504532D01*
X184999998Y-72504532D01*
X184773313Y-72524364D01*
X184773302Y-72524366D01*
X184553511Y-72583258D01*
X184553502Y-72583261D01*
X184347267Y-72679431D01*
X184347265Y-72679432D01*
X184160858Y-72809954D01*
X183999954Y-72970858D01*
X183869432Y-73157265D01*
X183869431Y-73157267D01*
X183773261Y-73363502D01*
X183773258Y-73363511D01*
X183714366Y-73583302D01*
X183714364Y-73583313D01*
X183694532Y-73809998D01*
X181020452Y-73809998D01*
X181130568Y-73652734D01*
X181226739Y-73446496D01*
X181285635Y-73226692D01*
X181305468Y-73000000D01*
X181285635Y-72773308D01*
X181226739Y-72553504D01*
X181130568Y-72347266D01*
X181000047Y-72160861D01*
X181000045Y-72160858D01*
X180839141Y-71999954D01*
X180652734Y-71869432D01*
X180652732Y-71869431D01*
X180446497Y-71773261D01*
X180446488Y-71773258D01*
X180226697Y-71714366D01*
X180226693Y-71714365D01*
X180226692Y-71714365D01*
X180226691Y-71714364D01*
X180226686Y-71714364D01*
X180000002Y-71694532D01*
X179999998Y-71694532D01*
X179773313Y-71714364D01*
X179773302Y-71714366D01*
X179553511Y-71773258D01*
X179553502Y-71773261D01*
X179347267Y-71869431D01*
X179347265Y-71869432D01*
X179160858Y-71999954D01*
X178999954Y-72160858D01*
X178869432Y-72347265D01*
X178869431Y-72347267D01*
X178773261Y-72553502D01*
X178773258Y-72553511D01*
X178714366Y-72773302D01*
X178714364Y-72773313D01*
X178694532Y-72999998D01*
X178694532Y-73000001D01*
X178714364Y-73226686D01*
X178714366Y-73226697D01*
X178773258Y-73446488D01*
X178773260Y-73446494D01*
X178773261Y-73446496D01*
X178773262Y-73446498D01*
X178782697Y-73466732D01*
X178793188Y-73535810D01*
X178764667Y-73599593D01*
X178706190Y-73637832D01*
X178636322Y-73638385D01*
X178577247Y-73601077D01*
X178567211Y-73588025D01*
X178564059Y-73583308D01*
X178544114Y-73553457D01*
X178544112Y-73553454D01*
X178544111Y-73553453D01*
X175865294Y-70874637D01*
X175831809Y-70813314D01*
X175836793Y-70743622D01*
X175838390Y-70739561D01*
X175911158Y-70563887D01*
X175970548Y-70342238D01*
X176000500Y-70114734D01*
X176000500Y-69885266D01*
X175970548Y-69657762D01*
X175911158Y-69436113D01*
X175846417Y-69279815D01*
X175823349Y-69224123D01*
X175823346Y-69224117D01*
X175823344Y-69224112D01*
X175708611Y-69025388D01*
X175708608Y-69025385D01*
X175708607Y-69025382D01*
X175568918Y-68843338D01*
X175568911Y-68843330D01*
X175406670Y-68681089D01*
X175406661Y-68681081D01*
X175224617Y-68541392D01*
X175025890Y-68426657D01*
X175025876Y-68426650D01*
X174813887Y-68338842D01*
X174743865Y-68320080D01*
X174592238Y-68279452D01*
X174554215Y-68274446D01*
X174364741Y-68249500D01*
X174364734Y-68249500D01*
X173635266Y-68249500D01*
X173635258Y-68249500D01*
X173418715Y-68278009D01*
X173407762Y-68279452D01*
X173314076Y-68304554D01*
X173186112Y-68338842D01*
X172974123Y-68426650D01*
X172974109Y-68426657D01*
X172775382Y-68541392D01*
X172593338Y-68681081D01*
X172431081Y-68843338D01*
X172291392Y-69025382D01*
X172176657Y-69224109D01*
X172174858Y-69227758D01*
X172173715Y-69227194D01*
X172133303Y-69277351D01*
X172067010Y-69299421D01*
X172062575Y-69299500D01*
X163437425Y-69299500D01*
X163370386Y-69279815D01*
X163325237Y-69227710D01*
X163325142Y-69227758D01*
X163324961Y-69227392D01*
X163324631Y-69227011D01*
X163323555Y-69224541D01*
X163323346Y-69224118D01*
X163323344Y-69224112D01*
X163208611Y-69025388D01*
X163208608Y-69025385D01*
X163208607Y-69025382D01*
X163068918Y-68843338D01*
X163068911Y-68843330D01*
X162906670Y-68681089D01*
X162906661Y-68681081D01*
X162724617Y-68541392D01*
X162525890Y-68426657D01*
X162525876Y-68426650D01*
X162313887Y-68338842D01*
X162243865Y-68320080D01*
X162092238Y-68279452D01*
X162054215Y-68274446D01*
X161864741Y-68249500D01*
X161864734Y-68249500D01*
X161135266Y-68249500D01*
X161135258Y-68249500D01*
X160918715Y-68278009D01*
X160907762Y-68279452D01*
X160814076Y-68304554D01*
X160686112Y-68338842D01*
X160474123Y-68426650D01*
X160474109Y-68426657D01*
X160275382Y-68541392D01*
X160093338Y-68681081D01*
X159931081Y-68843338D01*
X159791392Y-69025382D01*
X159676657Y-69224109D01*
X159676650Y-69224123D01*
X159588842Y-69436112D01*
X159529453Y-69657759D01*
X159529451Y-69657770D01*
X159499500Y-69885258D01*
X159499500Y-70114741D01*
X159520537Y-70274526D01*
X159529452Y-70342238D01*
X159530868Y-70347521D01*
X159588842Y-70563887D01*
X159588842Y-70563888D01*
X159661584Y-70739504D01*
X159669053Y-70808973D01*
X159637777Y-70871452D01*
X159634704Y-70874637D01*
X158555888Y-71953454D01*
X158555887Y-71953455D01*
X158555886Y-71953457D01*
X158524819Y-71999953D01*
X158502022Y-72034071D01*
X158479225Y-72068188D01*
X158479221Y-72068195D01*
X158426421Y-72195667D01*
X158426418Y-72195677D01*
X158399500Y-72331004D01*
X158399500Y-74911660D01*
X158379815Y-74978699D01*
X158327011Y-75024454D01*
X158257853Y-75034398D01*
X158194297Y-75005373D01*
X158189560Y-75000962D01*
X158188825Y-75000346D01*
X158002482Y-74869865D01*
X157796328Y-74773734D01*
X157600000Y-74721127D01*
X157600000Y-75684314D01*
X157595606Y-75679920D01*
X157504394Y-75627259D01*
X157402661Y-75600000D01*
X157297339Y-75600000D01*
X157195606Y-75627259D01*
X157104394Y-75679920D01*
X157100000Y-75684314D01*
X157100000Y-74721127D01*
X156903671Y-74773734D01*
X156697517Y-74869865D01*
X156511179Y-75000342D01*
X156350342Y-75161179D01*
X156219865Y-75347517D01*
X156123734Y-75553673D01*
X156123730Y-75553682D01*
X156071127Y-75749999D01*
X156071128Y-75750000D01*
X157034314Y-75750000D01*
X157029920Y-75754394D01*
X156977259Y-75845606D01*
X156950000Y-75947339D01*
X156950000Y-76052661D01*
X156977259Y-76154394D01*
X157029920Y-76245606D01*
X157034314Y-76250000D01*
X156071128Y-76250000D01*
X156123730Y-76446317D01*
X156123734Y-76446326D01*
X156219865Y-76652482D01*
X156350342Y-76838820D01*
X156511179Y-76999657D01*
X156697517Y-77130134D01*
X156903673Y-77226265D01*
X156903682Y-77226269D01*
X157099999Y-77278872D01*
X157100000Y-77278871D01*
X157100000Y-76315686D01*
X157104394Y-76320080D01*
X157195606Y-76372741D01*
X157297339Y-76400000D01*
X157402661Y-76400000D01*
X157504394Y-76372741D01*
X157595606Y-76320080D01*
X157600000Y-76315686D01*
X157600000Y-77278872D01*
X157796317Y-77226269D01*
X157796326Y-77226265D01*
X158002482Y-77130134D01*
X158188825Y-76999653D01*
X158192966Y-76996180D01*
X158193926Y-76997324D01*
X158249142Y-76967174D01*
X158318834Y-76972158D01*
X158374767Y-77014030D01*
X158399184Y-77079494D01*
X158399500Y-77088340D01*
X158399500Y-80058480D01*
X158379815Y-80125519D01*
X158363181Y-80146161D01*
X156770589Y-81738752D01*
X156709266Y-81772237D01*
X156699095Y-81774010D01*
X156657769Y-81779451D01*
X156657767Y-81779451D01*
X156657762Y-81779452D01*
X156613160Y-81791403D01*
X156436112Y-81838842D01*
X156224123Y-81926650D01*
X156224109Y-81926657D01*
X156025382Y-82041392D01*
X155843338Y-82181081D01*
X155681081Y-82343338D01*
X155541392Y-82525382D01*
X155426657Y-82724109D01*
X155426650Y-82724123D01*
X155338842Y-82936112D01*
X155279453Y-83157759D01*
X155279451Y-83157770D01*
X155249500Y-83385258D01*
X151600500Y-83385258D01*
X151600500Y-79612976D01*
X151600500Y-79612974D01*
X151559577Y-79460247D01*
X151559573Y-79460240D01*
X151480524Y-79323321D01*
X151480521Y-79323317D01*
X151480520Y-79323315D01*
X151368716Y-79211511D01*
X151368715Y-79211510D01*
X151364385Y-79207180D01*
X151364374Y-79207170D01*
X148136819Y-75979615D01*
X148103334Y-75918292D01*
X148100500Y-75891934D01*
X148100500Y-73239059D01*
X148100501Y-73239046D01*
X148100501Y-73063347D01*
X148100500Y-73063329D01*
X148100500Y-72231692D01*
X148120185Y-72164653D01*
X148153374Y-72130119D01*
X148339139Y-72000047D01*
X148500047Y-71839139D01*
X148630568Y-71652734D01*
X148726739Y-71446496D01*
X148785635Y-71226692D01*
X148805468Y-71000000D01*
X148805468Y-70999997D01*
X151195034Y-70999997D01*
X151195034Y-71000002D01*
X151214858Y-71226599D01*
X151214860Y-71226610D01*
X151273730Y-71446317D01*
X151273735Y-71446331D01*
X151369863Y-71652478D01*
X151420974Y-71725472D01*
X152100000Y-71046446D01*
X152100000Y-71052661D01*
X152127259Y-71154394D01*
X152179920Y-71245606D01*
X152254394Y-71320080D01*
X152345606Y-71372741D01*
X152447339Y-71400000D01*
X152453553Y-71400000D01*
X151774526Y-72079025D01*
X151847513Y-72130132D01*
X151847521Y-72130136D01*
X152053668Y-72226264D01*
X152053682Y-72226269D01*
X152273389Y-72285139D01*
X152273400Y-72285141D01*
X152499998Y-72304966D01*
X152500002Y-72304966D01*
X152726599Y-72285141D01*
X152726610Y-72285139D01*
X152946317Y-72226269D01*
X152946331Y-72226264D01*
X153152478Y-72130136D01*
X153225471Y-72079024D01*
X152546447Y-71400000D01*
X152552661Y-71400000D01*
X152654394Y-71372741D01*
X152745606Y-71320080D01*
X152820080Y-71245606D01*
X152872741Y-71154394D01*
X152900000Y-71052661D01*
X152900000Y-71046447D01*
X153579024Y-71725471D01*
X153630136Y-71652478D01*
X153726264Y-71446331D01*
X153726269Y-71446317D01*
X153785139Y-71226610D01*
X153785141Y-71226599D01*
X153804966Y-71000002D01*
X153804966Y-70999997D01*
X153785141Y-70773400D01*
X153785139Y-70773389D01*
X153726269Y-70553682D01*
X153726264Y-70553668D01*
X153630136Y-70347521D01*
X153630132Y-70347513D01*
X153579025Y-70274526D01*
X152900000Y-70953551D01*
X152900000Y-70947339D01*
X152872741Y-70845606D01*
X152820080Y-70754394D01*
X152745606Y-70679920D01*
X152654394Y-70627259D01*
X152552661Y-70600000D01*
X152546445Y-70600000D01*
X153225472Y-69920974D01*
X153152478Y-69869863D01*
X152946331Y-69773735D01*
X152946317Y-69773730D01*
X152726610Y-69714860D01*
X152726599Y-69714858D01*
X152500002Y-69695034D01*
X152499998Y-69695034D01*
X152273400Y-69714858D01*
X152273389Y-69714860D01*
X152053682Y-69773730D01*
X152053673Y-69773734D01*
X151847516Y-69869866D01*
X151847512Y-69869868D01*
X151774526Y-69920973D01*
X151774526Y-69920974D01*
X152453553Y-70600000D01*
X152447339Y-70600000D01*
X152345606Y-70627259D01*
X152254394Y-70679920D01*
X152179920Y-70754394D01*
X152127259Y-70845606D01*
X152100000Y-70947339D01*
X152100000Y-70953552D01*
X151420974Y-70274526D01*
X151420973Y-70274526D01*
X151369868Y-70347512D01*
X151369866Y-70347516D01*
X151273734Y-70553673D01*
X151273730Y-70553682D01*
X151214860Y-70773389D01*
X151214858Y-70773400D01*
X151195034Y-70999997D01*
X148805468Y-70999997D01*
X148785635Y-70773308D01*
X148726739Y-70553504D01*
X148630568Y-70347266D01*
X148500047Y-70160861D01*
X148500045Y-70160858D01*
X148339141Y-69999954D01*
X148152734Y-69869432D01*
X148152732Y-69869431D01*
X147946497Y-69773261D01*
X147946488Y-69773258D01*
X147726697Y-69714366D01*
X147726693Y-69714365D01*
X147726692Y-69714365D01*
X147726691Y-69714364D01*
X147726686Y-69714364D01*
X147500002Y-69694532D01*
X147499998Y-69694532D01*
X147273313Y-69714364D01*
X147273302Y-69714366D01*
X147053511Y-69773258D01*
X147053502Y-69773261D01*
X146847267Y-69869431D01*
X146847265Y-69869432D01*
X146660858Y-69999954D01*
X146499954Y-70160858D01*
X146369432Y-70347265D01*
X146369431Y-70347267D01*
X146273261Y-70553502D01*
X146273258Y-70553511D01*
X146214366Y-70773302D01*
X146214364Y-70773313D01*
X146194532Y-70999998D01*
X146194532Y-71000001D01*
X146214364Y-71226686D01*
X146214366Y-71226697D01*
X146273258Y-71446488D01*
X146273261Y-71446497D01*
X146369431Y-71652732D01*
X146369432Y-71652734D01*
X146499954Y-71839141D01*
X146660858Y-72000045D01*
X146660861Y-72000047D01*
X146846624Y-72130118D01*
X146890248Y-72184693D01*
X146899500Y-72231692D01*
X146899500Y-72849902D01*
X146879815Y-72916941D01*
X146863181Y-72937583D01*
X145092705Y-74708058D01*
X145031382Y-74741543D01*
X144972931Y-74740152D01*
X144876697Y-74714366D01*
X144876693Y-74714365D01*
X144876692Y-74714365D01*
X144876691Y-74714364D01*
X144876686Y-74714364D01*
X144650002Y-74694532D01*
X144649998Y-74694532D01*
X144423313Y-74714364D01*
X144423302Y-74714366D01*
X144203511Y-74773258D01*
X144203502Y-74773261D01*
X143997267Y-74869431D01*
X143997265Y-74869432D01*
X143810858Y-74999954D01*
X143649954Y-75160858D01*
X143519432Y-75347265D01*
X143519431Y-75347267D01*
X143423261Y-75553502D01*
X143423258Y-75553511D01*
X143364366Y-75773302D01*
X143364364Y-75773313D01*
X143344532Y-75999998D01*
X143344532Y-76000001D01*
X143364364Y-76226686D01*
X143364366Y-76226697D01*
X143423258Y-76446488D01*
X143423261Y-76446497D01*
X143519431Y-76652732D01*
X143519432Y-76652734D01*
X143649954Y-76839141D01*
X143810858Y-77000045D01*
X143810861Y-77000047D01*
X143997266Y-77130568D01*
X144203504Y-77226739D01*
X144423308Y-77285635D01*
X144585230Y-77299801D01*
X144649998Y-77305468D01*
X144650000Y-77305468D01*
X144650002Y-77305468D01*
X144706673Y-77300509D01*
X144876692Y-77285635D01*
X144972932Y-77259847D01*
X145042781Y-77261510D01*
X145092706Y-77291941D01*
X145913181Y-78112416D01*
X145946666Y-78173739D01*
X145949500Y-78200097D01*
X145949500Y-81812988D01*
X145929815Y-81880027D01*
X145877011Y-81925782D01*
X145807853Y-81935726D01*
X145778048Y-81927549D01*
X145563887Y-81838842D01*
X145467397Y-81812988D01*
X145342238Y-81779452D01*
X145287436Y-81772237D01*
X145114741Y-81749500D01*
X145114734Y-81749500D01*
X144385266Y-81749500D01*
X144385258Y-81749500D01*
X144168715Y-81778009D01*
X144157762Y-81779452D01*
X144113160Y-81791403D01*
X143936112Y-81838842D01*
X143724123Y-81926650D01*
X143724109Y-81926657D01*
X143525382Y-82041392D01*
X143343338Y-82181081D01*
X143181081Y-82343338D01*
X143041392Y-82525382D01*
X142926657Y-82724109D01*
X142926650Y-82724123D01*
X142838842Y-82936112D01*
X142779453Y-83157759D01*
X142779451Y-83157770D01*
X142749500Y-83385258D01*
X142500500Y-83385258D01*
X142500500Y-67999997D01*
X178695034Y-67999997D01*
X178695034Y-68000002D01*
X178714858Y-68226599D01*
X178714860Y-68226610D01*
X178773730Y-68446317D01*
X178773735Y-68446331D01*
X178869863Y-68652478D01*
X178920974Y-68725472D01*
X179600000Y-68046446D01*
X179600000Y-68052661D01*
X179627259Y-68154394D01*
X179679920Y-68245606D01*
X179754394Y-68320080D01*
X179845606Y-68372741D01*
X179947339Y-68400000D01*
X179953553Y-68400000D01*
X179274526Y-69079025D01*
X179347513Y-69130132D01*
X179347521Y-69130136D01*
X179553668Y-69226264D01*
X179553682Y-69226269D01*
X179773389Y-69285139D01*
X179773400Y-69285141D01*
X179999998Y-69304966D01*
X180000002Y-69304966D01*
X180226599Y-69285141D01*
X180226610Y-69285139D01*
X180446317Y-69226269D01*
X180446331Y-69226264D01*
X180652478Y-69130136D01*
X180725471Y-69079024D01*
X180046447Y-68400000D01*
X180052661Y-68400000D01*
X180154394Y-68372741D01*
X180245606Y-68320080D01*
X180320080Y-68245606D01*
X180372741Y-68154394D01*
X180400000Y-68052661D01*
X180400000Y-68046447D01*
X181079024Y-68725471D01*
X181130136Y-68652478D01*
X181226264Y-68446331D01*
X181226269Y-68446317D01*
X181285139Y-68226610D01*
X181285141Y-68226599D01*
X181304966Y-68000002D01*
X181304966Y-67999997D01*
X181285141Y-67773400D01*
X181285139Y-67773389D01*
X181226269Y-67553682D01*
X181226264Y-67553668D01*
X181130136Y-67347521D01*
X181130132Y-67347513D01*
X181079025Y-67274526D01*
X180400000Y-67953551D01*
X180400000Y-67947339D01*
X180372741Y-67845606D01*
X180320080Y-67754394D01*
X180245606Y-67679920D01*
X180154394Y-67627259D01*
X180052661Y-67600000D01*
X180046445Y-67600000D01*
X180725472Y-66920974D01*
X180652478Y-66869863D01*
X180446331Y-66773735D01*
X180446317Y-66773730D01*
X180226610Y-66714860D01*
X180226599Y-66714858D01*
X180000002Y-66695034D01*
X179999998Y-66695034D01*
X179773400Y-66714858D01*
X179773389Y-66714860D01*
X179553682Y-66773730D01*
X179553673Y-66773734D01*
X179347516Y-66869866D01*
X179347512Y-66869868D01*
X179274526Y-66920973D01*
X179274526Y-66920974D01*
X179953553Y-67600000D01*
X179947339Y-67600000D01*
X179845606Y-67627259D01*
X179754394Y-67679920D01*
X179679920Y-67754394D01*
X179627259Y-67845606D01*
X179600000Y-67947339D01*
X179600000Y-67953552D01*
X178920974Y-67274526D01*
X178920973Y-67274526D01*
X178869868Y-67347512D01*
X178869866Y-67347516D01*
X178773734Y-67553673D01*
X178773730Y-67553682D01*
X178714860Y-67773389D01*
X178714858Y-67773400D01*
X178695034Y-67999997D01*
X142500500Y-67999997D01*
X142500500Y-60859999D01*
X183721127Y-60859999D01*
X183721128Y-60860000D01*
X184684314Y-60860000D01*
X184679920Y-60864394D01*
X184627259Y-60955606D01*
X184600000Y-61057339D01*
X184600000Y-61162661D01*
X184627259Y-61264394D01*
X184679920Y-61355606D01*
X184684314Y-61360000D01*
X183721128Y-61360000D01*
X183773730Y-61556317D01*
X183773734Y-61556326D01*
X183869865Y-61762482D01*
X184000342Y-61948820D01*
X184161179Y-62109657D01*
X184347517Y-62240134D01*
X184553673Y-62336265D01*
X184553682Y-62336269D01*
X184749999Y-62388872D01*
X184750000Y-62388871D01*
X184750000Y-61425686D01*
X184754394Y-61430080D01*
X184845606Y-61482741D01*
X184947339Y-61510000D01*
X185052661Y-61510000D01*
X185154394Y-61482741D01*
X185245606Y-61430080D01*
X185250000Y-61425686D01*
X185250000Y-62388872D01*
X185446317Y-62336269D01*
X185446326Y-62336265D01*
X185652482Y-62240134D01*
X185838820Y-62109657D01*
X185999657Y-61948820D01*
X186130134Y-61762482D01*
X186226265Y-61556326D01*
X186226269Y-61556317D01*
X186278872Y-61360000D01*
X185315686Y-61360000D01*
X185320080Y-61355606D01*
X185372741Y-61264394D01*
X185400000Y-61162661D01*
X185400000Y-61057339D01*
X185372741Y-60955606D01*
X185320080Y-60864394D01*
X185315686Y-60860000D01*
X186278872Y-60860000D01*
X186278872Y-60859999D01*
X186226269Y-60663682D01*
X186226265Y-60663673D01*
X186130134Y-60457517D01*
X185999657Y-60271179D01*
X185838820Y-60110342D01*
X185652482Y-59979865D01*
X185446328Y-59883734D01*
X185250000Y-59831127D01*
X185250000Y-60794314D01*
X185245606Y-60789920D01*
X185154394Y-60737259D01*
X185052661Y-60710000D01*
X184947339Y-60710000D01*
X184845606Y-60737259D01*
X184754394Y-60789920D01*
X184750000Y-60794314D01*
X184750000Y-59831127D01*
X184553671Y-59883734D01*
X184347517Y-59979865D01*
X184161179Y-60110342D01*
X184000342Y-60271179D01*
X183869865Y-60457517D01*
X183773734Y-60663673D01*
X183773730Y-60663682D01*
X183721127Y-60859999D01*
X142500500Y-60859999D01*
X142500500Y-59624500D01*
X142520185Y-59557461D01*
X142572989Y-59511706D01*
X142624500Y-59500500D01*
X268375500Y-59500500D01*
X268442539Y-59520185D01*
G37*
%TD.AperFunction*%
%TD*%
M02*
