M48
; DRILL file {KiCad 8.0.8} date 2025-03-05T15:18:08-0500
; FORMAT={-:-/ absolute / inch / decimal}
; #@! TF.CreationDate,2025-03-05T15:18:08-05:00
; #@! TF.GenerationSoftware,Kicad,Pcbnew,8.0.8
; #@! TF.FileFunction,Plated,1,2,PTH
FMAT,2
INCH
; #@! TA.AperFunction,Plated,PTH,ComponentDrill
T1C0.0295
; #@! TA.AperFunction,Plated,PTH,ComponentDrill
T2C0.0300
; #@! TA.AperFunction,Plated,PTH,ComponentDrill
T3C0.0315
; #@! TA.AperFunction,Plated,PTH,ComponentDrill
T4C0.0402
; #@! TA.AperFunction,Plated,PTH,ComponentDrill
T5C0.0472
%
G90
G05
T1
X10.2579Y-4.5276
X10.2579Y-4.6063
T2
X8.587Y-2.5102
X8.687Y-2.5102
X8.787Y-2.5102
X8.887Y-2.5102
X8.987Y-2.5102
X9.087Y-2.5102
X9.187Y-2.5102
X9.287Y-2.5102
X10.4331Y-3.3039
X10.4331Y-3.4039
X10.4331Y-3.5039
X10.4331Y-3.6039
X10.4331Y-3.7039
T3
X5.6949Y-2.9921
X5.8071Y-2.7953
X6.0039Y-2.7953
X6.1949Y-2.9921
X6.4642Y-4.3701
X6.5157Y-4.6063
X6.7126Y-4.6063
X6.9642Y-4.3701
X7.0866Y-2.6772
X7.0866Y-2.874
X7.2835Y-2.4059
X7.2835Y-2.9059
X7.7559Y-3.322
X7.7559Y-3.822
X7.9921Y-3.3661
X7.9921Y-3.563
X10.315Y-5.0575
X10.315Y-5.1575
X10.315Y-5.2575
T4
X7.7114Y-4.6106
X7.7114Y-5.3106
X7.7205Y-4.8606
X7.7205Y-4.9606
X7.7205Y-5.0606
X7.8114Y-4.6106
X7.8114Y-5.3106
X7.9114Y-4.6106
X7.9114Y-5.3106
X8.0114Y-4.6106
X8.0114Y-5.3106
X8.1114Y-4.6106
X8.1114Y-5.3106
X8.2114Y-4.6106
X8.2114Y-5.3106
X8.3114Y-4.6106
X8.3114Y-5.3106
X8.4114Y-4.6106
X8.4114Y-5.3106
X8.5114Y-4.6106
X8.5114Y-5.3106
X8.6114Y-4.6106
X8.6114Y-5.3106
X8.7114Y-4.6106
X8.7114Y-5.3106
X8.8114Y-4.6106
X8.8114Y-5.3106
X8.9114Y-4.6106
X8.9114Y-5.3106
X9.0114Y-4.6106
X9.0114Y-5.3106
X9.1114Y-4.6106
X9.1114Y-5.3106
X9.2114Y-4.6106
X9.2114Y-5.3106
X9.3114Y-4.6106
X9.3114Y-5.3106
X9.4114Y-4.6106
X9.4114Y-5.3106
X9.5114Y-4.6106
X9.5114Y-5.3106
X9.6114Y-4.6106
X9.6114Y-5.3106
T5
X5.6988Y-3.2874
X5.6988Y-3.4843
X6.1909Y-3.2874
X6.1909Y-3.4843
X6.3583Y-2.7559
X6.3583Y-2.9528
X6.3681Y-3.7992
X6.3681Y-3.9961
X6.8504Y-2.7559
X6.8504Y-2.9528
X6.8602Y-3.7992
X6.8602Y-3.9961
X7.0079Y-3.2874
X7.0079Y-3.4843
X7.5Y-3.2874
X7.5Y-3.4843
M30
